<?xml version="1.0" encoding="utf-8"?>
<!-- Generator: Adobe Illustrator 16.0.0, SVG Export Plug-In . SVG Version: 6.00 Build 0)  -->
<!DOCTYPE svg PUBLIC "-//W3C//DTD SVG 1.1//EN" "http://www.w3.org/Graphics/SVG/1.1/DTD/svg11.dtd">
<svg version="1.1" id="Layer_1" xmlns="http://www.w3.org/2000/svg" xmlns:xlink="http://www.w3.org/1999/xlink" x="0px" y="0px"
	 width="1920px" height="7098px" viewBox="0 0 1920 7098" enable-background="new 0 0 1920 7098" xml:space="preserve">
<linearGradient id="SVGID_1_" gradientUnits="userSpaceOnUse" x1="959.0005" y1="0" x2="959.0002" y2="7039.0005">
	<stop  offset="0.043" style="stop-color:#672D91"/>
	<stop  offset="0.2258" style="stop-color:#5E64A7"/>
	<stop  offset="0.4086" style="stop-color:#8072B2"/>
	<stop  offset="0.5538" style="stop-color:#AB80B2"/>
	<stop  offset="0.7097" style="stop-color:#D28BB3"/>
	<stop  offset="0.9086" style="stop-color:#E9C3C2"/>
	<stop  offset="0.9731" style="stop-color:#672D91"/>
</linearGradient>
<rect fill="url(#SVGID_1_)" width="1918" height="7039"/>
<path fill="#AE86C4" d="M1914.851,3412.04c0.19,22.82-51.222,41.74-114.811,42.25c-15.95,0.13-31.159-0.91-44.987-2.91
	c0.01,0.16,0.01,0.311,0.01,0.47c0,24.591-33.381,44.53-74.546,44.53c-16.109,0-13.328-0.53-25.516-5.71
	c-12.647,4.6-24.008,12.091-41.357,12.331c-14.341,0.2-25.52-9.157-32.354-2.667c11.007,8.33,13.475,11.798,9.672,22.667
	c-6.856,19.59-42.692,19.666-105.064,33.333c-60.14,13.178-186.114-61.667-192.118-82.004c7.005-0.663,13.838,1.291,18.432,2.6
	c24.563,7.99,49.71,31.59,98.391,39.86c60.707,10.32,164.351-15.79,144.669-14.12c-10.657,0.9-29.349-5.34-40.355-13.67
	c6.835-6.49,33.36,1.26,47.699,1c55.694-1,47.689-13,68.682-21.85c12.188,5.18,27.107,8.229,43.218,8.229
	c41.164,0,74.545-19.939,74.545-44.53c0-0.159,0-0.31-0.01-0.47c13.828,2,29.037,3.04,44.988,2.91
	c58.075-0.47,105.994-16.29,113.709-36.41C1912.31,3402.27,1914.811,3407.04,1914.851,3412.04z"/>
<path fill="#D09ECF" d="M1692.023,3395c-20.623,9.51-41.185-2.65-54.834-22.19c-9.865,0.141-20.352-0.01-31.219-0.01
	c-58.025,0-105.064,4.19-105.064-53.8s47.039-122,105.064-122c35.563,0,66.992,24.04,86.003,56h0.05
	c73.045,0,48.36,89.8,76.377,107.99C1802.691,3383.25,1757.063,3365,1692.023,3395z"/>
<path fill="#C58CC3" d="M1513.429,2906.5c-2.081,1.62-6.664,3.37-12.889,5.1c-20.731,5.78-59.745,11.4-85.671,11.4
	c-21.494,0-29.408-1.63-33.752-5.4c-2.471-2.14-3.781-4.979-5.772-8.6c-3.593-6.53-2.692-19,31.019-19
	S1499.921,2897.5,1513.429,2906.5z"/>
<path fill="#AC81BF" d="M1513.429,2906.5c-13.84,14.172-50.132,14.203-67.873,25.838c-21.346,14-71.632,3.787-63.207-11.338
	c0.562-1.009-1.001-2.17-1.231-3.4c4.344,3.771,12.258,5.4,33.752,5.4c25.926,0,64.939-5.62,85.671-11.4
	C1500.54,2911.6,1507.426,2909.75,1513.429,2906.5z"/>
<path fill="#AE80BB" d="M1524.938,2929.672c0,1.749-7.446,3.333-13.341,3.333s-10.674-1.418-10.674-3.167
	c0-1.748,0.775-6.838,6.67-6.838S1524.938,2927.924,1524.938,2929.672z"/>
<path fill="#C58CC3" d="M1368.34,2916.5c-2.081,1.62-13.738,2.97-20.182,3.5c-8.105,0.68-15.31,2.03-21.863,3.76
	c-26.317,6.92-42.097,19.91-62.85,19.91c-17.57,0-37.173-18.93-67.431-25.66c-6.754-1.51-14.049-2.399-21.964-2.34
	c42.366-5.33,29.018-50.67,87.394-49C1308.193,2868.01,1278.115,2906.5,1368.34,2916.5z"/>
<path fill="#AE80BB" d="M1364.338,2916.027c-2.082,1.62-14.173,27.643-36.139,21.321c-39.187-11.277-42.837,21.896-68.756,21.321
	c-67.712-1.5-65.042-25.67-85.393-43c13.178-0.391,15.848,1.997,21.964,2.34c30.258,6.73,49.86,25.66,67.431,25.66
	c20.753,0,36.532-12.99,62.85-19.91C1335.869,2927,1348.158,2920,1364.338,2916.027z"/>
<path fill="#BF97CC" d="M1902.844,3395.04c0.02,1.979-0.351,3.92-1.102,5.84c-7.715,20.12-55.634,35.94-113.709,36.41
	c-15.95,0.13-31.16-0.91-44.988-2.91c0.01,0.16,0.01,0.311,0.01,0.47c0,24.591-33.381,44.53-74.545,44.53
	c-16.109,0-31.029-3.05-43.217-8.229c-20.993,8.85-12.988,20.85-68.683,21.85c-14.339,0.26-40.864-7.49-47.698-1
	c11.006,8.33,29.697,14.57,40.354,13.67c19.682-1.67-83.962,24.44-144.669,14.12c-48.681-8.271-73.826-31.87-98.391-39.86
	c-6.063-1.979-12.098-3-18.431-2.6c12.908-30.74,45.438-32.9,87.293-28.55c8.976,0.939,18.391,2.17,28.127,3.489
	c-3.182-2-6.104-4.079-8.755-6.239c-12.008-3.63-21.974-11.2-27.927-20.99c-3.843-6.3-6.024-13.521-6.024-21.19
	c0-24.59,14.813-33.971,41.686-27.52c127.749,30.67,154.047-28.383,151.077-64.381c105.061-41.998,101.048,47.221,128.625,68.451
	c17.58-14.811,58.156-25.391,105.494-25.771C1850.961,3354.12,1902.663,3372.21,1902.844,3395.04z"/>
<path fill="#C58CC3" d="M1179.215,3011.67c-4.161,0-19.3-6.646-21.174-6.632c10.035-1.263,6.873-12.001,20.698-11.605
	C1189.813,2993.75,1184.129,3011.67,1179.215,3011.67z"/>
<path fill="#C58CC3" d="M1174.402,2884.763c4.108,0.667,13.867,3.907,10.771,9.857c-3.852,5.284-12.626,5.655-23.567-2.802
	C1152.843,2885.046,1168.109,2883.741,1174.402,2884.763z"/>
<path fill="#C58CC3" d="M1206.447,2863.611c0.169-3.041,1.773-10.397,6.35-8.604c4.151,2.395,10.901,4.742,5.586,13.364
	C1214.124,2875.276,1206.189,2868.274,1206.447,2863.611z"/>
<path fill="#AE80BB" d="M601.835,2940.613c-2.84,2.207-54.137,1.57-69.41,43.161c-12.339,33.604-30.969,40.775-59.205,40.855
	c-85.475,0.239-103.674-38.39-117.557-103.131c25.605,17.881,59.969,66.999,114.349,70.698c25.531,1.738,31.237-5.938,49.221-19.021
	C542.236,2956.441,542.915,2944.004,601.835,2940.613z"/>
<path fill="#C58CC3" d="M601.835,2940.613c-0.754,0.579-4.69,0.493-10.625,0.752c-14.401,0.617-40.583,3.256-61.561,22.469
	c-22.63,20.729-34.106,30.102-59.637,28.363c-54.379-3.699-89.669-48.501-106.106-64.791c-3.702-3.688-6.453-5.92-8.242-5.907
	c24.679-25.083,42.769-65.778,114.756-63.719C528.068,2859.433,579.007,2920.673,601.835,2940.613z"/>
<path fill="#C58CC3" d="M338.129,2940.746c4.822-1.747,17.274-4.107,17.517,4.174c-0.97,8.016-10.191,13.683-27.053,11.125
	C315.091,2953.995,330.74,2943.423,338.129,2940.746z"/>
<path fill="#C58CC3" d="M567.923,2860.998c4.29-0.239,14.552,1.063,11.627,8.546c-3.742,6.911-12.814,9.454-24.55,2.538
	C545.602,2866.54,561.355,2861.367,567.923,2860.998z"/>
<path fill="#C58CC3" d="M116.373,2963.249c8.223,0.609,28.342,5.12,24.438,16.622c-5.613,10.384-22.536,12.412-46.808-1.586
	C74.567,2967.074,103.776,2962.319,116.373,2963.249z"/>
<path fill="#C58CC3" d="M750.733,2898.895c-1.455,6.475-3.738,12.035-12.006,15.846c-0.013,0.014-0.024,0.025-0.037,0.014
	c-6.44,2.946-16.474,4.559-32.515,4.978c-33.13-1.023-27.91,5.269-16.744,10.269h0.012c6.194,4,14.191,5.257,18.51,5.405
	c16.448,0.21,20.112,18.001,20.112,18.001s-0.629,0.274-1.727,0.569c-0.014,0-0.025,0.022-0.039,0.022
	c-3.528,0.949-11.808,2.963-19.482,2.988c-1.912,0-3.455-0.06-4.701-0.221c-1.899-0.222-3.086-0.603-3.776-1.108
	c-3.048-2.245,3.591-6.683,1.259-8.792c-0.284-0.26-0.715-0.493-1.32-0.666c-2.419-0.74-7.662-0.74-18.052,0.53
	c-7.133,3.182-15.24,4.403-23.791,4.982c-33.551,2.269-50.234-5.513-56.071-16.438c-4.677-8.805-2.332-19.633,3.937-28.881
	c21.804-32.162,23.346-45.32,52.134-45.32c26.491,0,34.192,29.498,51.703,39.438
	C738.592,2917.799,752.845,2889.436,750.733,2898.895z"/>
<path fill="#AE80BB" d="M698.341,2955.658c-2.974-0.247-7.872-0.012-15.646,0.937c-7.133,3.183-15.24,4.403-23.792,4.982
	c-43.04,2.923-58.327-10.729-58.538-26.304c5.837,10.926,22.52,18.707,56.071,16.438c8.55-0.579,16.658-1.801,23.791-4.982
	C713.976,2942.586,693.392,2952.02,698.341,2955.658z"/>
<path fill="#AE80BB" d="M750.733,2898.895c-2.578,11.518-5.354,29.729-42.09,30.702c-9.032-0.271-15.213,0.403-19.2,0.403h-0.012
	c-11.167-5-16.387-11.292,16.744-10.269c16.041-0.419,26.074-2.063,32.515-5.011c0.013,0.012,0.024,0.017,0.037,0.003
	C749.66,2911.333,752.028,2893.111,750.733,2898.895z"/>
<path fill="#D09ECF" d="M392.238,3563.98c-13.547-8.869-10.646-20.801-21.473-26.37c-4.363-2.25-10.027-4.311-17.881-6.61
	c-62.709,6-79.33-35.21-88.725-40.67c-19.682-11.42-32.811-40.23-54.234-47.04c-19.812-6.29-28.268,25.79-49.16,24.38
	c-14.559-0.99-9.456-17.54-22.684-14c-31.238,8.34-46.027-1.34-38.684-14.67c6.504-11.83-4.843-23.44,64.7-3.33
	c-8.515-8.31-42.847-18.8-31.35-35.34c16.681-24-8.675-115.33,55.364,26c3.392,7.49,18.182-38,34.021-39.33
	c7.824-0.66,14.328-2.24,19.912-4.38c35.701-13.68,34.061-50.271,101.912-16.061c31.75,16.011,51.951,48.62,56.725,85.5l0.051,0.021
	c-37.184,70.92-22.381,94.711,10.846,91.25C514.313,3532.63,467.617,3613.335,392.238,3563.98z"/>
<path fill="#BF97CC" d="M630.094,3550.01c-2.051,3.19-7.534,5.431-15.738,4.34c-5.425-0.72-10.558-1.649-15.2-2.699
	c0,0.029,0,0.06-0.01,0.1c-0.69,5.01-26.797,17.81-41.016,1.89c-10.126-10.31-37.603-2.199-40.115-1.199
	c3.513,2.21-15.879,5.729-36.202,0.779c-10.195-2.479-21.854-7.29-29.678-10.609c-4.683-1.98-7.996-3.42-8.806-3.5
	c3.653-3.94,19.993-2.601,30.669-1.181c4.662,0.62,8.246,1.25,9.236,1.471c-0.53-0.29-4.143-3.08-7.445-5.9
	c-3.033-2.59-5.804-5.21-5.703-5.96c0.691-5.01,55.683,21.38,67.83-9.71c3.072-14.6,45.084-14.83,42.084,16.28c0,0.01,0,0.01,0,0.01
	c0,1.18-0.068,2.399-0.318,3.67c0.22-0.08,0.561-0.15,0.793-0.22c6.673-1.99,20.387-2.16,35.926-0.101
	C629.029,3539.15,632.976,3545.52,630.094,3550.01z"/>
<path fill="#AE86C4" d="M239.145,3534.17c-18.972,15.66-41.195,24.3-72.424-2.5c-12.218-10.49-21.544-22.52-27.419-34.39
	c-21.692-6.96-20.481,36.89-61.256,9.39c-11.888-8.018,1.333,22-52.032,22.667C-11.343,3506.67,34,3465.911,5,3447.422v-17.481
	c18,8.17,24.956-1.931,22.424-13.641c9.416-0.47,24.485,22.681,35.532,31.82c28.027,23.21,58.41,26.319,65.47,27.89
	c23.29,27.115,89.455,91.24,109.719,9.99c1.451,1.872,8.735,15.3,13.707,26.47c-1.271-2.239-2.51-4.1-3.701-5.47
	C248.051,3507.13,249.65,3525.5,239.145,3534.17z"/>
<path fill="#AE86C4" d="M426.258,3580.104c-67.375,5.231-149.758,34.899-164.77-47.474
	C328.198,3597.335,305.518,3534.83,426.258,3580.104z"/>
<path fill="#AE86C4" d="M493.604,4217.843c-1.286,0.638-21.311-3.677-30.59,11.39c-7.494,12.173-15.354,13.503-26.412,11.296
	c-33.469-6.682-37.525-23.242-37.82-49.679c8.602,9.027,18.152,30.975,39.141,36.731c9.853,2.704,12.695,0.151,20.772-3.542
	C469.025,4219.313,470.276,4214.499,493.604,4217.843z"/>
<path fill="#BF97CC" d="M493.604,4216.843c-0.34,0.166-1.873-0.179-4.218-0.548c-5.683-0.9-16.141-1.943-25.874,3.913
	c-10.502,6.319-15.737,9.077-25.59,6.373c-20.988-5.757-31.244-26.089-36.384-33.768c-1.156-1.735-2.056-2.827-2.757-2.964
	c11.648-7.86,21.957-22.354,49.967-15.841C471.178,4179.226,486.253,4207.229,493.604,4216.843z"/>
<path fill="#AE86C4" d="M614.355,3560.35c-5.425-0.72-10.558-1.649-15.2-2.699c0,0.029,0,0.06-0.01,0.1
	c-0.69,5.01-26.797,17.81-41.016,1.89c-10.126-10.31-37.603-2.199-40.115-1.199c3.513,2.21-15.879,5.729-36.202,0.779
	c-16.299-3.96-33.8-16.359-29.678-16.609c7.824,3.319,19.482,8.13,29.678,10.609c20.323,4.95,39.715,1.431,36.202-0.779
	c2.513-1,29.989-9.11,40.115,1.199c14.219,15.92,40.325,3.12,41.016-1.89c0.01-0.04,0.01-0.07,0.01-0.1
	c4.643,1.05,9.775,1.979,15.2,2.699c8.204,1.091,13.688-1.149,15.738-4.34C633.445,3555.53,627.283,3562.07,614.355,3560.35z"/>
<path fill="#BF97CC" d="M414.752,3575.427c-2.771-2.61-23.459-4.494-26.545-5.862c-54.673-24.229-65.952,17.016-116.543-23.064
	c-3.462-2.74-6.864-7.78-10.176-13.87c-3.322-6.1-6.544-13.24-9.637-20.16c-4.972-11.17-9.605-21.77-13.707-26.47
	c-0.101,0.13,1.5,18.5-9.006,27.17c-18.972,15.66-41.195,24.3-72.425-2.5c-11.727-10.07-20.793-21.56-26.696-32.97
	c-0.25-0.47-0.49-0.95-0.722-1.42c-7.514-2.41-12.637-2.271-17.909-2.53c-9.938-0.49-29.328,32.069-57.355,8.859
	c-11.047-9.14-2.783-30.759-12.199-30.289c2.531,11.71-8.425-8.73-26.826-16.9C12.204,3434.18,9,3432.38,5,3429.94v-186.82
	c6,2.96,36.764,65.56,42.026,73.38c36.643,54.45,22.014-8.5,50.521,21c3.452-34.42,48.93-15.76,47.758,10.31
	c-0.009,0.44-0.039,0.881-0.089,1.33c-5.584,2.141,4.213,27.19-12.468,51.19c-6.063,8.729,0.63,15.77,9.555,21.689
	c7.985,5.311,17.772,9.721,21.795,13.65c-9.196-2.66-16.98-4.77-23.574-6.39c-43.276-10.65-35.481-0.55-41.126,9.72
	c-4.692,8.52-0.34,15.56,11.578,17.33c6.723,1.01,15.84,0.35,27.105-2.66c13.228-3.54,8.125,13.01,22.684,14
	c20.893,1.41,29.349-30.67,49.16-24.38c21.424,6.81,34.553,35.62,54.234,47.04c9.395,5.46,26.016,46.67,88.725,40.67
	C383.862,3534.83,372.225,3554.99,414.752,3575.427z"/>
<path fill="#D09ECF" d="M102.662,3339.763c-0.329,0.109-1.295-0.538-2.844-1.36c-3.756-2.002-10.955-5.05-20.91-0.777
	c-10.74,4.611-15.908,6.501-21.873,1.84c-12.711-9.93-19.768-41.221-20.218-41.494c12.317-6,35.698-23.244,53.216-11.213
	C104.062,3296.395,101.828,3328.375,102.662,3339.763z"/>
<path fill="#D09ECF" d="M1920.179,4718.489c-37.022-2.947-52.119,37.754-99.061,39.788c-51.032,2.21-66.657-44.708-105.064-42.735
	c-43.026,2.211-55.721,62.459-213.284,65.121c-115.918,1.958-153.941-149.853-16.857-151.326
	c108.073-1.162,123.108-127.612,119.406-133.607c-7.41-11.997-7.338-31.437,1.334-40.278c9.957-10.152,34.029-13.199,59.272-12.28
	c-8.709-19.833,15.44-54.704,57.466-54.702c0.001-12.169-6.719-39.117,21.299-45.013c-4.002-64.839,11.311-78.103,39.311-84.226
	v-0.037c-2-53.759,88.102-64.081,136.131-58.79C1920.535,4241.266,1920.178,4668.387,1920.179,4718.489z"/>
<path fill="#AC89CA" d="M1920.358,4703.999c0.02,1.458,1.849,201.688-0.18,201.964c-158.108,21.443-61.146-70.182-120.073-69.83
	c-15.95,0.096-40.216-5.369-54.043-6.844c0.01,0.119,0.01,0.229,0.01,0.347c0,18.118-33.381,32.81-74.546,32.81
	c-16.11,0-31.029-2.247-43.218-6.063c-20.992,6.521-12.987,15.362-68.682,16.099c-14.339,0.191-40.864-5.519-47.699-0.736
	c-179.44-23.823-103.898-50.839-110.065-63.61c-6.617-13.704-85.464,15.343-180.11,0.491
	c-40.69-6.386-161.743,28.984-190.783,36.349c-60.036,15.228-119.977-10.46-94.057-28.489
	c28.017-19.49,149.424,7.859,138.084-14.736c-12.675-26.033,12.008-41.262,48.029-43.226c22.313-1.217,45.361,26.034,56.733,11.203
	c-3.182-1.474-19.758-37.487,9.974-28.887c56.034,16.21,158.765,30.946,209.355-56.065c17.451,51.154,25.453,99.291,171.543,91.924
	c105.061-30.944,114.737-45.682,146.09-56.979c17.58-10.912,52.057,38.103,99.395,37.822
	C1879.704,4757.164,1920.178,4687.178,1920.358,4703.999z"/>
<path fill="#C58CC3" d="M1583.973,4488.607c-5.791,5.508,17.978-21.745-16.01-41.261c-22.014-8.842-43.528,19.902-50.031,24.314
	c-11.706,7.943-76.046-25.994-85.385,44.204c-4.081,30.669,31.941,123.421,76.845,105.663
	c49.911-19.738,109.612-42.169,149.969,3.315c58.649,66.102,220.74,66.102,260.294,27.334c-0.477-40.524,1.771-32.42-0.377-75.891
	c-0.51-10.331,5.649-13.115-106.363,7.666c-51.031,9.467-43.335-81.426-52.764-86.262c-17.503-8.98,33.298,93.998-122.835,64.398
	C1598.998,4554.825,1596.898,4476.313,1583.973,4488.607z"/>
<path fill="#C58CC3" d="M1920.312,4412.162c-28.15-6.997-55.167-0.182-63.672-11.234c-19.402-13.631-24.894-28.734-43.026-30.945
	c-19.563-2.385-24.688-30.193-16.26-28.551c8.505,1.658,56.785-14.674,4.754-71.162c46.694,42.243,105.448,9.172,98.059,14.612
	c-14.008,10.315-37.272,29.472-13.258,42.183c-26.267-5.526-41.525,26.156-27.576,41.768c9.836,11.009,27.809,15.877,49.495,7.316
	c0.141-0.056,5.359-1.895,5.5-1.953c3.1-3.292,2.623-15.113,6.015-10.658C1919.929,4386.192,1920.358,4395.586,1920.312,4412.162z"
	/>
<path fill="#AB80BF" d="M1920.179,4905.963c0.02,1.458,2.054,98.589,0,98.73c-155.427,10.73-202.455-11.619-203.456-42.32
	c-0.722-22.148,43.691-34.138,17.343-42.734c-31.175-10.17-21.351,23.143-81.05,8.842c-27.684-6.631-55.701-29.717-113.736,2.457
	c-11.458,6.352-75.457,3.747-106.73-1.966c-43.029-7.86-61.375,4.419-153.766,3.683c-41.602-0.332-107.065-12.525-140.419-10.807
	c-22.181,1.143-85.386-11.052-77.381-25.051c16.639-29.098,65.373,15.964,73.443,10.183c10.655-7.632,30.951-8.106,43.962-8.709
	c42.359-1.964,44.694,22.841,53.365,1.964c6.338-24.314,17.171-26.611,52.366-20.63c34.688,5.895,49.363,33.893,65.042,12.525
	c8.005-12.279,35.976-26.529,65.707-17.928c56.034,16.21,159.1,53.786,87.056-6.14c25.349,3.438,60.037,1.474,123.718-10.786
	c40.383,3.418,98.419,12.751,120.43-27.641c22.683,3.552,68.044-3.325,75.545,20.931
	C1849.165,4939.657,1919.998,4889.141,1920.179,4905.963z"/>
<path fill="#AE86C4" d="M458.938,4936.445c13.321,3.597,30.707,2.48,39.523-4.908c6.371,0.053,15.51,6.063,33.199,6.412
	c37.457,0.738,67.863-6.785,67.863-28.715c0-21.929-30.385-37.812-67.863-37.812c-46.207,0-52.711,32.103-48.709,44.52
	l-29.518-6.983c-25.016-4.035-30.519,2.074-34.262,17.091C415.396,4941.2,416.927,4925.102,458.938,4936.445z"/>
<path fill="#AB80BF" d="M1616.342,5218.007c13.321,1.831,29.874,0.754,38.69-3.007c6.371,0.026,35.01,5.497,52.699,5.674
	c37.458,0.376,122.741,1.16,122.741-10c0-11.161-83.628-28.049-120.772-33.043c-79.016-10.624-102.697,15.289-98.694,21.609
	l-30.687,1.767c-25.015-2.054-31.278,1.777-35.021,9.42C1541.522,5218.139,1574.332,5212.233,1616.342,5218.007z"/>
<path fill="#AB80BF" d="M1458.739,5195.939c-8.634,1.23-21.131,0.262-26.846-2.266c-4.128,0.018-20.925,3.939-32.392,4.058
	c-24.279,0.253-76.083-0.07-79.556-6.721c-6.792-13.004-9.535-1.298,9.885-15.907c34.688-26.097,93.058-24,83.719,0l35.688,4.57
	c16.216-1.381,53.122,6.034,55.548,11.171C1507.234,5196.027,1485.968,5192.059,1458.739,5195.939z"/>
<ellipse fill="#AE86C4" cx="1226.27" cy="5182" rx="7.505" ry="3"/>
<ellipse fill="#AE86C4" cx="1270.797" cy="5185.024" rx="13.008" ry="4.976"/>
<ellipse fill="#AB80BF" cx="1881.171" cy="5203.024" rx="13.008" ry="4.976"/>
<path fill="#AE86C4" d="M1340.323,4436.5c0,13.381-14.972,24-27.267,24c-3.074,0-11.444,10.18-14.259,11
	c-36.022,10.5-84.793-8.84-78.549-13c25.516-17,81.05,16.084,70.043-9c-5.376-12.253-8.505-40.5,22.765-37.451
	C1325.294,4413.242,1340.323,4423.121,1340.323,4436.5z"/>
<path fill="#AE86C4" d="M1205.24,4411.93c0,20.119-22.51,36.086-40.998,36.086c-4.623,0-17.679,21.177-34.228-16.539
	c-8.085-18.424-12.79-60.896,34.228-56.313C1182.643,4376.959,1205.24,4391.813,1205.24,4411.93z"/>
<path fill="#D09ECF" d="M0.417,6450.619c86.832,0.346,1199.504,91.202,1229.582,53.499c30.077-37.702,30.943-63.617-0.238-133.83
	s-51.098-29.791-75.854-29.196c-42.195,1.013-213.347,97.778-211.455,48.307c1.847-48.307-78.614-60.789-55.403-84.317
	c34.02-34.485-26.143-54.255-61.754-73.682c-38.181-20.827-67.574-8.485-64.623-12.391c14.784-19.555-8.348-63.786-31.072-68.957
	c-102.093-23.236-122.384,76.453-188.967,19.575c69.076-91.532,12.816-276.531-80.533-271.42
	c-86.241,9.743-98.012,142.176-161.067,136.416c-8.877-84.697-55.349-119.821-87.209-114.183
	c-64.98,11.496-70.053,52.721-84.637-22.233c-2.011-10.335-23.272-17.795-17.755-35.978
	c24.162-79.632-39.316-126.498-109.107-151.189C-0.087,5770.508-0.424,6363.796,0.417,6450.619z"/>
<path fill="#BF97CC" d="M937.729,4931.44c-11.188,2.382-24.396,4.598-31.128-2.792c-4.863,0.054-19.005,9.188-31.873,11.575
	c-26.082,4.838-60.034-9.662-53.505-31.265c7.545-24.961,94.88-14.579,91.824-2.161l14.676-1.874
	c8.671-6.597-34.688-31.624,19.021-25.256C972.61,4882.734,1019.112,4914.113,937.729,4931.44z"/>
<path fill="#C58CC3" d="M0.833,6523.964c28.984,0.116,143.951,59.902,282.932,26.202c113.578-27.539,258.605-77.481,385.992-24.092
	c83.905,35.167,206.83,24.491,290.854,18.472c112.824-8.083,202.202,33.686,269.582-23.41c67.38-57.097,45.706-77.852-3.454-112.624
	s-65.228,34.854-117.541,21.363c-31.007-7.999-80.846-31.479-176.91-21.363c-38.958,4.104-45.655-120.294-74.189-80.943
	c-37.605,51.86-132.449-4.016-102.722-53.845c16.169-27.103-46.606-104.097-109.624-65.243
	c-30.135,18.581-37.542,73.573-60.614,75.673c-69.433,6.313-83.701-27.414-85.602-61.141
	c114.385-78.696,64.946-308.763,41.862-114.227c-46.877,128.165-199.453,46.772-222.578-2.635
	c-31.387-32.611-85.128-38.249-116.989-32.611c-64.979,11.499,3.71-79.161-58.019-103.482
	c-31.388-12.368-65.439,47.412-59.922,29.229c24.163-79.631-17.292-109.325-82.92-124.789
	C0.562,5933.965-0.006,6437.143,0.833,6523.964z"/>
<path fill="#AC89CA" d="M-0.43,6371.17c0.697,76.698-0.214,50.488,0.846,79.449c49.805,18.734,102.563-39.994,139.797,2.884
	c17.46,20.107,5.952,35.585,63.243,35.591c84.396,0.007,89.65-53.825,103.521-71.339c6.321-7.983,13.579,24.314,26.86,38.081
	c3.266,3.384,19.272,70.978,90.402,27.303c20.968-12.877,56.005-31.337,77.155-31.606c24.832-0.315,104.6,41.194,137.688,13.687
	c29.188-24.27-101.671-43.256-160.781-29.055c-162.763,39.107-122.222,23.265-159.668-38.017
	c-15.217-11.469-14.68-17.042-34.475,2.997c-14.047,13.519-65.834,67.568-98.5,29.982c-17.608-18.151-58.091-46.137-67.718-29.982
	C97.655,6435.191,7.825,6371.538-0.43,6371.17z"/>
<path fill="#AB80BF" d="M-0.216,6220.563c-0.489,1.07,0.05,182.459-0.195,200.318c25.02,11.241,118.574-33.931,135.042-4.752
	c32.338,57.304,67.234,44.686,90.562,37.145c27.602-8.926,39.743-3.035,76.837-60.338c16.905-26.112,19.95,45.266,71.335,73.495
	c10.145,5.572,93.839-33.21,121.745-32.564c58.97,1.364,51.377,31.472,133.18,30.825c36.832-0.293,102.657,24.968,132.186,26.475
	c19.637,1.003,235.88-17.733,242.54-50.48c6.469-31.813-142.67-45.022-185.472-8.185c-9.024,7.767-80.605-78.4-92.125-78.93
	c-37.504-1.725-39.572,20.039-47.247,1.723c-5.613-21.331-15.204-23.347-46.365-18.098c-30.71,5.171-43.704,29.733-57.585,10.988
	c-7.089-10.774-32.813-66.484-59.138-58.938c-49.61,14.222-108.205-0.839-99.869-58.139c-35.919-45.021-61.561-1.898-117.94-12.654
	c-35.756,2.998-53.75,66.667-73.238,31.228c-20.083,3.117-67.53-63.401-115.087-58.223
	C49.421,6197.941,11.399,6195.175-0.216,6220.563z"/>
<path fill="#D09ECF" d="M124.966,6327.084c4.222-17.481,3.87-11.324,39.147-21.72c15.017-27.814,54.34-4.523,62.298-11.029
	c24.995-20.434,31.634-80.818,7.916-110.745c-10.425-13.154-79.249-30.778-125.226,11.257
	C94.984,6207.755,2.135,6008.016,2.43,6048.718c0.354,49.122-2.131,98.317-1.405,112.474c2.495,48.666,7.044,103.714,40.351,122.617
	C71.486,6300.901,120.35,6346.195,124.966,6327.084z"/>
<path fill="#AE86C4" d="M1364.467,5674.274c-0.147,17.836,40.091,32.624,89.857,33.022c12.484,0.102,24.389-0.711,35.213-2.274
	c-0.01,0.125-0.01,0.243-0.01,0.366c0,19.222,26.127,34.806,58.346,34.806c12.607,0,10.432-0.415,19.971-4.463
	c9.898,3.595,18.789,9.45,32.369,9.64c11.223,0.155,19.974-7.158,25.321-2.086c-8.613,6.512-10.547,9.221-7.569,17.717
	c5.367,15.31,33.414,15.371,82.23,26.053c47.069,10.301,145.667-48.198,150.365-64.094c-5.482-0.518-10.83,1.009-14.425,2.031
	c-19.225,6.245-38.908,24.689-77.007,31.154c-47.515,8.066-128.634-12.341-113.23-11.035c8.344,0.703,22.973-4.174,31.586-10.686
	c-5.35-5.072-26.11,0.985-37.333,0.781c-43.589-0.781-37.325-10.159-53.756-17.077c-9.538,4.05-21.215,6.433-33.823,6.433
	c-32.219,0-58.346-15.584-58.346-34.805c0-0.123,0-0.242,0.008-0.367c-10.82,1.563-22.726,2.377-35.21,2.274
	c-45.453-0.367-82.959-12.732-88.996-28.458C1366.456,5666.637,1364.498,5670.367,1364.467,5674.274z"/>
<path fill="#D09ECF" d="M1710.468,5677.51c-16.603,8.571-33.157-2.389-44.146-20c-7.942,0.127-16.386-0.009-25.133-0.009
	c-46.715,0-91.458-20.248-91.458-72.515c0-52.268,48.74-120.32,95.455-120.32c28.63,0,73.707-4.055,96.665,54.078
	c22.956,58.131,15.707,99.537,15.707,99.537c59.206-25.627,88.895,10.113,89.05,30.938
	C1847.503,5766.864,1762.83,5650.471,1710.468,5677.51z"/>
<path fill="#BF97CC" d="M1366.825,5660.986c-0.015,1.548,0.275,3.065,0.862,4.566c6.039,15.725,43.544,28.09,88.998,28.457
	c12.484,0.102,24.388-0.712,35.209-2.274c-0.008,0.126-0.008,0.243-0.008,0.366c0,19.221,26.126,34.807,58.345,34.807
	c12.608,0,24.285-2.383,33.826-6.434c16.429,6.917,10.164,16.297,53.754,17.078c11.223,0.203,31.984-5.854,37.334-0.781
	c-8.614,6.512-23.245,11.389-31.586,10.684c-15.403-1.305,65.714,19.104,113.229,11.036c38.101-6.464,57.781-24.909,77.007-31.154
	c4.746-1.548,9.469-2.345,14.427-2.032c-10.104-24.025-66.287-33.219-61.628-40.869c3.009-4.924,4.717-10.567,4.717-16.563
	c0-19.219-11.595-26.553-32.627-21.51c-99.984,23.973-120.568-22.185-118.243-50.319c-82.229-32.825-79.087,36.908-100.67,53.501
	c-13.762-11.576-45.519-19.844-82.568-20.143C1407.433,5629.005,1366.967,5643.143,1366.825,5660.986z"/>
<path fill="#BF97CC" d="M1424.384,6522.011c9.201-32.039,11.473,46.914,48.954,8.475c17.803-54.76,52.24-31.883,62.073-28.023
	c29.86,11.736,67.47-46.924,44.766-48.969c-21.891-1.973-44.046-59.365-81.078-9.229c-32.596,44.133-48.694,2.945-62.939-19.436
	c-20.719-32.549-36.212-8.311-54.253-3.824c-19.551,4.859-55.318,86.98-77.144,32.457c-56.005,7.229-61.767-72.938-102.708-15.18
	c35.645,52.656,98.072,90.727,141.607,94.156C1379.012,6535.226,1411.496,6566.901,1424.384,6522.011z"/>
<path fill="#AB80BF" d="M1232.829,6506.868c12.771-10.66,34.391-7.722,40.357-7.912c18.118-0.577,37.691-17.937,24.218-15.941
	c-12.989,1.926-28.584-8.672-48.194,6.696c-17.261,13.526-28.57,5.942-37.956,2.418c-13.65-5.126-21.71,2.04-32.145,5.011
	C1167.801,6500.359,1212.438,6519.635,1232.829,6506.868z"/>
<path fill="#AC89CA" d="M488.664,6510.799c-64.307-3.093-33.047,10.091-16.509,9.976c32.452-0.223,113.682,4.758,124.064,5.743
	c29.993,2.846,102.953,3.506,112.734,2.698c11.571-0.953,16.721-3.16,32.271-9.295c7.087-2.794,8.364,4.846,29.907,7.869
	c4.251,0.597,37.808,6.041,49.507,6.111c24.723,0.148,23.069-6.227,57.364-6.293c15.442-0.029,66.264,4.945,78.644,5.107
	c8.231,0.108,107.8-3.225,110.592-6.73c2.712-3.403-91.95-5.762-109.894-1.819c-3.783,0.833-34.232-13.164-58.214-5.635
	c-10.011,3.145-54.936-13.825-68.586-9.705c-16.618,5.018-46.683,6.421-67.685-8.206c-15.058-4.819-49.61-7.146-71.48-0.259
	c-15.474,4.622-19.875,27.276-51.354,12.05c-17.104-7.414-47.528-4.229-58.583,1.534
	C558.146,6526.086,497.214,6511.21,488.664,6510.799z"/>
<path fill="#AE86C4" d="M1443.669,6520.222c12.771-27.74,36.79-33.844,42.757-34.342c18.118-1.502,9.668-50.963-3.805-45.766
	c-12.99,5.012-0.562-18.289-20.172,21.705c-17.261,35.201-27.404-26.99-36.79-36.164c-13.65-13.34-22.876,47.768-33.311,55.5
	C1381.041,6489.534,1423.278,6553.448,1443.669,6520.222z"/>
<path fill="#AB80BF" d="M0.802,6479.097c0,0,1.773,39.137,1.706,57.707c-0.026,6.967,84.758,27.572,128.337,30.812
	c48.892,3.636,68.717-32.901,79.122-33.542c-0.007,0.034,26.114,14.116,26.114,14.146c0.077,4.739,16.068,26.104,44.506,13.591
	c31.651-13.928,18.344-32.744,27.505-33.97c15.831,1.323,37.991,31.854,77.85,27.506c104.62-11.412,83.432-29.405,95.11-33.241
	c99.994-32.838,45.886-33.974,26.991-26.496c-94.935,37.564-148.344,7.224-146.223,0.231c-79.23-6.165-41.956-16.911-102.287-15.825
	c-54.846,7.578-74.673,43.317-167.45,16.27C30.575,6478.354,0.866,6474.696,0.802,6479.097z"/>
<path fill="#D09ECF" d="M231.99,6323.194c5.154,23.196,0.842-16.563-0.159-35.978c-2.667-51.717-28.263-80.194-43.71-89.945
	c-33.244-20.987-38.783-14.991-62.178-20.987c-53.767,3.249-85.226,15.241-124.531,41.197
	c34.221,23.667,70.05-11.907,111.842-10.208C143.797,6208.515,201.824,6187.424,231.99,6323.194z"/>
<g>
	<ellipse opacity="0.5" fill="#FFFFFF" cx="1439.259" cy="1248.876" rx="13.384" ry="13.376"/>
	<circle fill="#9EFFEE" cx="1439.572" cy="1248.436" r="7.074"/>
</g>
<g>
	<path opacity="0.5" fill="#FFFFFF" d="M1696.734,1028.584c-29.127,0-29.127,0-29.127,29.109c0-29.109-0.709-29.268-29.128-29.109
		c28.694-0.434,29.128,0,29.128-29.109C1667.607,1028.584,1667.607,1028.584,1696.734,1028.584z"/>
	<path fill="#FFEF45" d="M1682.348,1028.584c-14.151,0-14.151,0-14.151,14.142c0-14.142-0.345-14.219-14.15-14.142
		c13.939-0.211,14.15,0,14.15-14.143C1668.196,1028.584,1668.196,1028.584,1682.348,1028.584z"/>
</g>
<g>
	<path opacity="0.5" fill="#FFFFFF" d="M925.262,1998.584c-29.127,0-29.127,0-29.127,29.109c0-29.109-0.71-29.268-29.129-29.109
		c28.695-0.434,29.129,0,29.129-29.109C896.135,1998.584,896.135,1998.584,925.262,1998.584z"/>
	<path fill="#FFEF45" d="M910.874,1998.584c-14.151,0-14.151,0-14.151,14.142c0-14.142-0.344-14.219-14.15-14.142
		c13.94-0.211,14.15,0,14.15-14.143C896.723,1998.584,896.723,1998.584,910.874,1998.584z"/>
</g>
<g>
	<ellipse opacity="0.5" fill="#FFFFFF" cx="1128.069" cy="2511.876" rx="13.384" ry="13.376"/>
	<circle fill="#9EFFEE" cx="1128.381" cy="2511.436" r="7.074"/>
</g>
<g>
	<path opacity="0.5" fill="#FFFFFF" d="M366.92,1864.584c-29.128,0-29.128,0-29.128,29.109c0-29.109-0.71-29.268-29.128-29.109
		c28.694-0.434,29.128,0,29.128-29.109C337.792,1864.584,337.792,1864.584,366.92,1864.584z"/>
	<path fill="#FFEF45" d="M352.531,1864.584c-14.15,0-14.15,0-14.15,14.142c0-14.142-0.345-14.219-14.15-14.142
		c13.939-0.211,14.15,0,14.15-14.143C338.381,1864.584,338.381,1864.584,352.531,1864.584z"/>
</g>
<g>
	<ellipse opacity="0.5" fill="#FFFFFF" cx="1818.492" cy="3167.876" rx="13.384" ry="13.376"/>
	<circle fill="#9EFFEE" cx="1818.805" cy="3167.436" r="7.074"/>
</g>
<g>
	<path opacity="0.5" fill="#FFFFFF" d="M1531.634,3013.584c-29.128,0-29.128,0-29.128,29.109c0-29.109-0.709-29.268-29.128-29.109
		c28.694-0.434,29.128,0,29.128-29.109C1502.506,3013.584,1502.506,3013.584,1531.634,3013.584z"/>
	<path fill="#FFEF45" d="M1517.246,3013.584c-14.151,0-14.151,0-14.151,14.142c0-14.142-0.344-14.219-14.15-14.142
		c13.94-0.211,14.15,0,14.15-14.143C1503.095,3013.584,1503.095,3013.584,1517.246,3013.584z"/>
</g>
<g>
	<ellipse opacity="0.5" fill="#FFFFFF" cx="423.637" cy="2799.876" rx="13.385" ry="13.376"/>
	<circle fill="#9EFFEE" cx="423.949" cy="2799.436" r="7.074"/>
</g>
<g>
	<path opacity="0.5" fill="#FFFFFF" d="M203.819,2398.584c-29.128,0-29.128,0-29.128,29.109c0-29.109-0.709-29.268-29.127-29.109
		c28.693-0.434,29.127,0,29.127-29.109C174.691,2398.584,174.691,2398.584,203.819,2398.584z"/>
	<path fill="#FFEF45" d="M189.432,2398.584c-14.151,0-14.151,0-14.151,14.142c0-14.142-0.344-14.219-14.15-14.142
		c13.94-0.211,14.15,0,14.15-14.143C175.28,2398.584,175.28,2398.584,189.432,2398.584z"/>
</g>
<g>
	<circle opacity="0.5" fill="#FFFFFF" cx="299.405" cy="3302.721" r="5.726"/>
	<circle fill="#9EFFEE" cx="299.539" cy="3302.532" r="3.026"/>
</g>
<g>
	<path opacity="0.5" fill="#FFFFFF" d="M967.159,3260.711c-42.007,0-42.007,0-42.007,41.982c0-41.982-1.023-42.21-42.008-41.982
		c41.383-0.625,42.008,0,42.008-41.98C925.152,3260.711,925.152,3260.711,967.159,3260.711z"/>
	<path fill="#FFEF45" d="M946.409,3260.711c-20.407,0-20.407,0-20.407,20.396c0-20.396-0.497-20.506-20.408-20.396
		c20.104-0.304,20.408,0,20.408-20.396C926.002,3260.711,926.002,3260.711,946.409,3260.711z"/>
</g>
<g>
	<circle opacity="0.5" fill="#FFFFFF" cx="1278.005" cy="3425.721" r="6.563"/>
	<circle fill="#9EFFEE" cx="1278.159" cy="3425.505" r="3.468"/>
</g>
<g>
	<path opacity="0.5" fill="#FFFFFF" d="M1494.611,3279.584c-29.128,0-29.128,0-29.128,29.109c0-29.109-0.709-29.268-29.128-29.109
		c28.694-0.434,29.128,0,29.128-29.109C1465.483,3279.584,1465.483,3279.584,1494.611,3279.584z"/>
	<path fill="#FFEF45" d="M1480.223,3279.584c-14.15,0-14.15,0-14.15,14.142c0-14.142-0.345-14.219-14.15-14.142
		c13.939-0.211,14.15,0,14.15-14.143C1466.072,3279.584,1466.072,3279.584,1480.223,3279.584z"/>
</g>
<g>
	<circle opacity="0.5" fill="#FFFFFF" cx="1068.877" cy="3265.721" r="6.563"/>
	<circle fill="#9EFFEE" cx="1069.03" cy="3265.505" r="3.468"/>
</g>
<g>
	<circle opacity="0.5" fill="#FFFFFF" cx="526.545" cy="3612.721" r="8.613"/>
	<circle fill="#9EFFEE" cx="526.746" cy="3612.438" r="4.551"/>
</g>
<g>
	<circle opacity="0.5" fill="#FFFFFF" cx="511.535" cy="4816.721" r="6.563"/>
	<circle fill="#9EFFEE" cx="511.688" cy="4816.505" r="3.468"/>
</g>
<g>
	<path opacity="0.5" fill="#FFFFFF" d="M209.822,4659.584c-29.127,0-29.127,0-29.127,29.109c0-29.109-0.709-29.268-29.128-29.109
		c28.694-0.434,29.128,0,29.128-29.109C180.695,4659.584,180.695,4659.584,209.822,4659.584z"/>
	<path fill="#FFEF45" d="M195.436,4659.584c-14.151,0-14.151,0-14.151,14.142c0-14.142-0.345-14.219-14.15-14.142
		c13.94-0.211,14.15,0,14.15-14.143C181.284,4659.584,181.284,4659.584,195.436,4659.584z"/>
</g>
<g>
	<circle opacity="0.5" fill="#FFFFFF" cx="557.563" cy="4851.721" r="5.726"/>
	<circle fill="#9EFFEE" cx="557.697" cy="4851.532" r="3.026"/>
</g>
<g>
	<ellipse opacity="0.5" fill="#FFFFFF" cx="408.627" cy="682.876" rx="13.384" ry="13.376"/>
	<circle fill="#9EFFEE" cx="408.94" cy="682.436" r="7.073"/>
</g>
<g>
	<path opacity="0.5" fill="#FFFFFF" d="M621.075,471.584c-29.128,0-29.128,0-29.128,29.109c0-29.109-0.709-29.268-29.127-29.109
		c28.693-0.434,29.127,0,29.127-29.109C591.947,471.584,591.947,471.584,621.075,471.584z"/>
	<path fill="#FFEF45" d="M606.688,471.584c-14.151,0-14.151,0-14.151,14.142c0-14.142-0.344-14.219-14.15-14.142
		c13.94-0.211,14.15,0,14.15-14.143C592.536,471.584,592.536,471.584,606.688,471.584z"/>
</g>
<g>
	<path opacity="0.5" fill="#FFFFFF" d="M790.179,270.584c-29.127,0-29.127,0-29.127,29.109c0-29.109-0.71-29.268-29.128-29.109
		c28.693-0.434,29.128,0,29.128-29.109C761.052,270.584,761.052,270.584,790.179,270.584z"/>
	<path fill="#FFEF45" d="M775.791,270.584c-14.151,0-14.151,0-14.151,14.142c0-14.142-0.344-14.219-14.149-14.142
		c13.939-0.211,14.149,0,14.149-14.143C761.64,270.584,761.64,270.584,775.791,270.584z"/>
</g>
<g>
	<ellipse opacity="0.5" fill="#FFFFFF" cx="669.788" cy="855.876" rx="13.384" ry="13.376"/>
	<circle fill="#9EFFEE" cx="670.101" cy="855.436" r="7.073"/>
</g>
<g>
	<path opacity="0.5" fill="#FFFFFF" d="M1404.734,505.584c-29.127,0-29.127,0-29.127,29.109c0-29.109-0.709-29.268-29.128-29.109
		c28.694-0.434,29.128,0,29.128-29.109C1375.607,505.584,1375.607,505.584,1404.734,505.584z"/>
	<path fill="#FFEF45" d="M1390.348,505.584c-14.151,0-14.151,0-14.151,14.142c0-14.142-0.345-14.219-14.15-14.142
		c13.939-0.211,14.15,0,14.15-14.143C1376.196,505.584,1376.196,505.584,1390.348,505.584z"/>
</g>
<polygon fill="#672D91" points="1925,6665.5 1921,7098 3,7098 7.57,6741.5 50,6740.5 50,6704 98,6704.5 98,6716.5 256,6719.5 
	256,6714.5 275,6715.5 275,6727.5 287,6728.5 287,6714 293,6715 293,6702 310,6702 310,6715.5 318,6716.5 318,6728 431,6727.5 
	431,6715.5 482,6716.5 482,6691.5 523,6692.5 523,6721 533,6721 533,6633.5 571,6634 571,6719.5 582,6719 582,6663 604,6663 
	604,6615.5 610,6616 610,6594 656,6593.5 656,6616 660,6616 660,6700.5 701,6700 701,6650.5 744,6651 744,6691 765,6691 
	765,6706.56 777,6706.52 777,6692 784,6692 784,6599 805.13,6599 805.37,6590 837,6590 837,6598 826.25,6598 826.41,6602.33 
	837,6602.04 837,6701.84 867,6701.71 867,6706 873.97,6706 872.45,6573 878.64,6573 879.01,6567.06 881.92,6567.14 881.74,6549 
	887.38,6549 887.57,6547 898,6547 898,6549 904,6549 904,6567.13 909,6567.23 909,6572.14 922.04,6572.58 924,6753.8 954.5,6754.04 
	952.78,6669.79 954.47,6669.67 953.1,6610.05 959,6608.6 959,6595.97 964.2,6594.51 963.7,6580.43 971.22,6579.94 971.59,6568.83 
	1018.57,6568.77 1022.89,6697.72 1028,6697.71 1028,6645.02 1049.14,6644.54 1049.41,6629 1060.58,6629 1069.07,6621 1079.52,6621 
	1090.2,6628.52 1090.69,6640.89 1108.65,6643.08 1109.8,6718.47 1109.9,6725 1109,6725 1109,6725 1109.9,6725 1122,6725 1122,6698 
	1143,6698 1143,6658 1186,6657.5 1186,6707 1227,6707.5 1227,6623 1231,6623 1231,6600.5 1277,6601 1277,6623 1283,6622.5 
	1283,6670 1305,6670 1305,6726 1316,6726.5 1316,6641 1354,6640.5 1354,6728 1364,6728 1364,6699.5 1405,6698.5 1405,6723.5 
	1456,6722.5 1456,6734.5 1569,6735 1569,6723.5 1577,6722.5 1577,6709 1594,6709 1594,6722 1600,6721 1600,6735.5 1612,6734.5 
	1612,6722.5 1631,6721.5 1631,6726.5 1814,6723.5 1814,6711.5 1862,6711 1862,6747.5 1899,6748.5 1899,6666.5 "/>
<path fill="#C58CC3" d="M679.973,4492.488c-3.882,3.021-12.431,6.286-24.042,9.513c-38.672,10.782-111.447,21.266-159.809,21.266
	c-40.095,0-54.857-3.04-62.96-10.073c-4.609-3.991-7.054-9.289-10.768-16.042c-6.702-12.182-5.022-35.442,57.861-35.442
	C543.139,4461.709,654.775,4475.7,679.973,4492.488z"/>
<path fill="#AC81BF" d="M679.973,4492.488c-25.816,26.436-93.515,26.494-126.609,48.197c-39.818,26.115-133.62,7.064-117.905-21.149
	c1.047-1.882-1.867-4.048-2.297-6.343c8.103,7.033,22.865,10.073,62.96,10.073c48.361,0,121.136-10.483,159.809-21.266
	C655.931,4502.001,668.775,4498.551,679.973,4492.488z"/>
<path fill="#AE80BB" d="M701.443,4535.712c0,3.263-13.89,6.218-24.886,6.218s-19.911-2.646-19.911-5.907
	c0-3.261,1.446-12.756,12.442-12.756S701.443,4532.451,701.443,4535.712z"/>
<path fill="#C58CC3" d="M409.327,4511.142c-3.882,3.022-25.627,5.54-37.646,6.529c-15.12,1.268-28.558,3.787-40.783,7.013
	c-49.092,12.909-78.526,37.141-117.238,37.141c-32.775,0-69.341-35.312-125.784-47.866c-12.599-2.816-26.206-4.476-40.971-4.364
	c79.029-9.943,54.129-94.519,163.022-91.403C297.131,4420.689,241.024,4492.488,409.327,4511.142z"/>
<path fill="#AE80BB" d="M401.862,4510.26c-3.884,3.022-26.438,51.564-67.412,39.772c-73.098-21.036-79.907,40.844-128.256,39.772
	c-126.308-2.798-121.328-47.884-159.289-80.211c24.582-0.729,29.562,3.725,40.971,4.364c56.442,12.555,93.008,47.866,125.784,47.866
	c38.712,0,68.146-24.231,117.238-37.141C348.757,4530.729,371.681,4517.671,401.862,4510.26z"/>
<path fill="#C58CC3" d="M56.538,4688.67c-7.762,0-36.001-12.398-39.497-12.371c18.719-2.355,12.821-22.387,38.61-21.648
	C76.307,4655.242,65.705,4688.67,56.538,4688.67z"/>
<path fill="#C58CC3" d="M47.561,4451.939c7.664,1.244,25.868,7.289,20.091,18.389c-7.185,9.856-23.552,10.549-43.962-5.227
	C7.344,4452.468,35.822,4450.034,47.561,4451.939z"/>
<path fill="#C58CC3" d="M107.337,4412.484c0.315-5.673,3.308-19.395,11.844-16.049c7.744,4.467,20.335,8.847,10.42,24.93
	C121.657,4434.244,106.856,4421.183,107.337,4412.484z"/>
</svg>
