<?xml version="1.0" encoding="utf-8"?>
<!-- Generator: Adobe Illustrator 16.0.0, SVG Export Plug-In . SVG Version: 6.00 Build 0)  -->
<!DOCTYPE svg PUBLIC "-//W3C//DTD SVG 1.1//EN" "http://www.w3.org/Graphics/SVG/1.1/DTD/svg11.dtd">
<svg version="1.1" id="Layer_1" xmlns="http://www.w3.org/2000/svg" xmlns:xlink="http://www.w3.org/1999/xlink" x="0px" y="0px"
	 width="994.198px" height="328px" viewBox="0 0 994.198 328" enable-background="new 0 0 994.198 328" xml:space="preserve">
<g>
	<path fill="#F794DE" d="M927.329,70.652l-2.483,11.732l-0.46,2.18c-3.771-2-7.698-3.751-11.753-5.235
		c-10.073-3.683-20.971-5.694-32.279-5.69c-15.264-0.004-29.744,3.648-42.492,10.134C826.938,89.328,817.264,97,809.326,106H778.23
		c-7.938-9-17.611-16.672-28.536-22.227c-12.749-6.486-27.229-10.156-42.492-10.152c-7.405,0-14.628,0.873-21.55,2.493
		c-3.619,0.855-7.154,1.916-10.598,3.167c-1.567,0.572-3.119,1.186-4.646,1.841c-11.305-4.814-23.77-7.469-36.785-7.469
		c-11.102,0-21.803,1.944-31.72,5.507l-0.017-0.103c-0.016,0.008-0.035-0.059-0.051-0.059h-0.004c-0.008,0-0.017,0.087-0.025,0.087
		c-0.891,0.296-1.779,0.613-2.666,0.937c-12.377-22.146-29.524-40.914-50.023-54.738c-11.816-7.97-24.748-14.308-38.496-18.623
		S482.305,0,467.276,0H259.322c-14.86,0-29.372,2.309-43.164,6.508c-20.694,6.307-39.773,16.988-56.184,30.957
		c-13.632,11.605-25.437,25.509-34.794,41.133c-1.08-0.384-2.18-0.742-3.283-1.082c-4.379-1.364-8.914-2.572-13.536-3.28
		C103.777,73.537,99.055,73,94.304,73h-0.212c-4.359,0-8.603,0.467-12.806,1.076C77.079,74.679,73,75.707,69,76.843V75H0v203h69
		v-22.111c8,2.299,16.661,3.523,25.438,3.523c5.623,0,11.562-0.504,16.562-1.469V277h34.954c13.848,15,30.323,27.283,48.57,36.021
		C214.423,322.551,236.449,328,259.322,328h207.954c22.79,0,44.496-5.507,63.935-15.012c18.191-8.89,34.41-21.527,47.875-36.803
		l47.539-10.106l-0.984-4.667c2.631,0.223,5.295,0.323,7.982,0.323c13.061,0.004,25.553-2.686,36.885-7.524
		c0.221,0.093,0.664,0.27,0.664,0.27c4.818,1.936,9.881,3.586,15.068,4.729l6.182,1.352c0,0,2.236,0.34,3.131,0.447
		c3.831,0.48,7.723,0.716,11.649,0.72c1.044,0,2.087-0.017,3.123-0.057l-0.928,4.388l39.449,8.345l7.825,1.651l19.563,4.023
		L789.971,215h9.238c7.518,13,17.975,23.821,30.451,31.815c7.314,4.683,15.332,8.44,23.85,10.968
		c8.518,2.528,17.539,3.91,26.844,3.91c2.208,0,4.399-0.062,6.57-0.213l-6.785,32.055l66.908,14.132l24.979-118.062l1.335-6.317
		l20.838-98.5L927.329,70.652z"/>
</g>
<g>
	<g>
		<path fill="#662D91" d="M607.605,164.166c0,83.883-63.318,151.834-141.428,151.834c-2.93,0-205.025,0-207.955,0
			c-78.11,0-145.736-68.027-145.736-151.909S180.113,12.164,258.223,12.164c2.105,0,205.849,0.045,207.955,0.045
			C544.287,12.209,607.605,80.284,607.605,164.166z"/>
	</g>
	<g>
		<path fill="#F794DE" d="M568.264,165.508c0,64.957-52.66,117.492-117.621,117.492c-2.437,0-170.513,0-172.95,0
			c-64.962,0-121.204-52.594-121.204-117.551c0-64.956,56.242-117.605,121.204-117.605c1.751,0,171.198,0.015,172.95,0.015
			C515.604,47.858,568.264,100.552,568.264,165.508z"/>
	</g>
	<g>
		<g>
			<path fill="#662D91" d="M353.484,166.154h-2.799c-0.001,21.67-8.776,41.264-22.976,55.468
				c-14.204,14.2-33.797,22.974-55.468,22.976c-21.67-0.002-41.264-8.775-55.468-22.976c-14.2-14.204-22.975-33.798-22.976-55.468
				c0.001-21.671,8.776-41.264,22.976-55.469c14.204-14.2,33.797-22.974,55.468-22.976c21.671,0.001,41.264,8.776,55.468,22.976
				c14.2,14.205,22.975,33.798,22.976,55.469H353.484h2.799c0.001-23.199-9.412-44.228-24.616-59.427
				c-15.2-15.205-36.229-24.617-59.427-24.616c-23.199-0.001-44.227,9.411-59.427,24.616c-15.204,15.2-24.617,36.228-24.615,59.427
				c-0.001,23.199,9.411,44.227,24.615,59.426c15.2,15.205,36.229,24.617,59.427,24.616c23.199,0.001,44.227-9.411,59.427-24.616
				c15.204-15.199,24.617-36.228,24.616-59.426H353.484z"/>
		</g>
		<path fill="none" stroke="#000000" stroke-miterlimit="10" d="M352.983,67.308"/>
		<path fill="none" stroke="#000000" stroke-miterlimit="10" d="M352.983,163.674"/>
		<path stroke="#000000" stroke-miterlimit="10" d="M362.172,273.93c-33.791-0.064-36.728-29.373-36.728-29.373
			s9.238,0.138,12.997-0.148c3.758-0.285,16.456-1.721,23.043-1.706c7.519,0.016,18.775,1.405,27.01,1.922
			c6.125,0.384,10.578-0.067,10.578-0.067S395.963,273.994,362.172,273.93z"/>
		<g>
			<path fill="#662D91" d="M533.345,166.106h-2.8c-0.001,21.671-8.775,41.263-22.975,55.468
				c-14.205,14.2-33.799,22.975-55.469,22.977c-21.67-0.002-41.264-8.776-55.468-22.977c-14.2-14.205-22.975-33.797-22.976-55.468
				c0.001-21.67,8.775-41.264,22.976-55.468c14.204-14.2,33.797-22.975,55.468-22.976c21.67,0.001,41.264,8.776,55.469,22.976
				c14.199,14.204,22.974,33.797,22.975,55.468H533.345h2.8c0.001-23.199-9.412-44.227-24.616-59.427
				c-15.2-15.204-36.228-24.617-59.427-24.616c-23.199-0.001-44.227,9.412-59.427,24.616c-15.204,15.2-24.617,36.229-24.615,59.427
				c-0.001,23.199,9.411,44.227,24.615,59.427c15.2,15.204,36.229,24.617,59.427,24.615c23.2,0.002,44.227-9.411,59.427-24.615
				c15.204-15.2,24.617-36.229,24.616-59.427H533.345z"/>
		</g>
		<g>
			<g>
				<g>
					<path fill="#B055FF" d="M346.714,134.809c-6.158-14.556-16.423-26.917-29.355-35.654c-6.466-4.367-13.6-7.83-21.222-10.201
						c-7.618-2.371-15.724-3.643-24.097-3.643c-11.169-0.004-21.846,2.268-31.547,6.371c-14.556,6.158-26.913,16.427-35.65,29.355
						c-4.367,6.466-7.83,13.6-10.201,21.222c-2.368,7.618-3.643,15.72-3.643,24.098c0,11.165,2.267,21.845,6.37,31.546
						c6.158,14.553,16.423,26.913,29.356,35.646c6.466,4.371,13.6,7.834,21.218,10.201c7.618,2.371,15.724,3.646,24.098,3.646
						c11.168,0,21.85-2.268,31.551-6.373c14.552-6.159,26.913-16.424,35.65-29.353c4.367-6.466,7.83-13.601,10.201-21.218
						c2.367-7.622,3.643-15.724,3.643-24.097C353.084,155.187,350.817,144.506,346.714,134.809z M272.139,204.137
						c-20.438,0-37.005-16.566-37.005-37.005c0-20.434,16.567-37.005,37.005-37.005s37.002,16.571,37.002,37.005
						C309.141,187.57,292.577,204.137,272.139,204.137z"/>
				</g>
				<g>
					<circle cx="271.751" cy="167.503" r="37.629"/>
					<circle fill="#FFFFFF" cx="299.273" cy="134.565" r="13.015"/>
				</g>
			</g>
			<g>
				<g>
					<path fill="#B055FF" d="M527.064,134.409c-6.158-14.556-16.424-26.917-29.355-35.654c-6.467-4.367-13.602-7.83-21.223-10.201
						c-7.618-2.371-15.724-3.643-24.098-3.643c-11.169-0.004-21.846,2.268-31.547,6.37c-14.556,6.159-26.913,16.428-35.65,29.356
						c-4.367,6.466-7.83,13.6-10.201,21.222c-2.367,7.618-3.643,15.72-3.643,24.098c0,11.165,2.268,21.846,6.37,31.547
						c6.159,14.552,16.424,26.913,29.356,35.646c6.466,4.37,13.601,7.833,21.218,10.201c7.618,2.371,15.724,3.646,24.097,3.646
						c11.169,0,21.85-2.268,31.551-6.374c14.553-6.158,26.913-16.424,35.65-29.352c4.367-6.467,7.83-13.601,10.201-21.219
						c2.367-7.621,3.644-15.724,3.644-24.097C533.435,154.787,531.167,144.106,527.064,134.409z M452.489,203.737
						c-20.438,0-37.006-16.567-37.006-37.006c0-20.434,16.567-37.005,37.006-37.005c20.439,0,37.001,16.571,37.001,37.005
						C489.49,187.17,472.928,203.737,452.489,203.737z"/>
				</g>
				<g>
					<circle cx="452.101" cy="167.103" r="37.629"/>
					<circle fill="#FFFFFF" cx="479.624" cy="134.166" r="13.015"/>
				</g>
			</g>
		</g>
	</g>
</g>
<polygon fill="#0074FF" points="978.879,94.038 936.694,293.451 893.261,284.281 935.482,84.864 "/>
<line opacity="0.5" x1="937.046" y1="106.398" x2="935.719" y2="112.692"/>
<line opacity="0.5" x1="923.802" y1="169.273" x2="922.078" y2="177.447"/>
<line opacity="0.5" x1="611.652" y1="176.734" x2="611.152" y2="174.367"/>
<path fill="#662D91" stroke="#000000" stroke-miterlimit="10" d="M564.999,181.037l1.044-0.24v-0.008L564.999,181.037z"/>
<path fill="#B055FF" d="M594.457,177.134l-15.476-72.438c-8.198,7.41-18.259,19.185-22.89,29.386
	c-4.631,10.205-7.206,21.554-7.206,33.458c0,5.563,0.563,11.005,1.632,16.264l0.02,0.084l0.016,0.084
	c0.004,0.012,0.025,0.112,0.068,0.309c0.012,0.051,0.024,0.111,0.041,0.18l17.234,81.493l43.408-9.182L594.457,177.134z
	 M565.843,180.79v0.008l-1.044,0.24L565.843,180.79z M565.843,180.797l-1.044,0.24l1.044-0.248V180.797z"/>
<polygon fill="#662D91" stroke="#000000" stroke-miterlimit="10" points="566.043,180.79 566.043,180.797 564.999,181.037 "/>
<g>
	<polygon fill="#662D91" points="566.242,180.79 566.242,180.797 565.199,181.037 	"/>
	<path fill="#662D91" d="M586.324,119.275c-1.176,1.06-2.313,2.163-3.408,3.311l-1.955-9.246L586.324,119.275z"/>
</g>
<g>
	<rect x="681.825" y="237.193" fill="#662D91" stroke="#000000" stroke-miterlimit="10" width="0.004" height="0.009"/>
	<path fill="#662D91" stroke="#000000" stroke-miterlimit="10" d="M681.877,236.958c-0.004,0.036-0.012,0.067-0.02,0.101
		c-0.004,0.023-0.008,0.047-0.016,0.072c0.004-0.025,0.008-0.049,0.012-0.072C681.861,237.025,681.869,236.994,681.877,236.958z"/>
	<polygon fill="#662D91" stroke="#000000" stroke-miterlimit="10" points="696.525,203.367 696.525,203.416 696.517,203.412 	"/>
	<path fill="#662D91" stroke="#000000" stroke-miterlimit="10" d="M696.589,203.443h-0.063v-0.027
		C696.545,203.424,696.569,203.436,696.589,203.443z"/>
	<g>
		<path fill="#662D91" d="M777.746,133.695c-4.631-10.201-11.328-19.263-19.518-26.673c-7.183-6.498-15.54-11.729-24.723-15.339
			c-9.18-3.607-19.189-5.587-29.627-5.587c-14.943-0.004-29,4.063-41.028,11.141c-12.257,7.206-22.43,17.527-29.46,29.9
			c-6.719,11.796-10.557,25.485-10.553,40.004c-0.004,14.132,3.631,27.48,10.018,39.062l0,0
			c7.049,12.783,17.031,23.849,29.596,31.238c1.835,1.08,3.782,2.119,5.81,3.111c2.027,0.988,4.136,1.92,6.282,2.787
			c4.303,1.729,8.773,3.176,13.181,4.147l8.138,1.783c0,0,8.402-43.651,8.402-43.668c0.008-0.008,0.012-0.012,0.012-0.016
			c0.004-0.017-15.316-4.635-15.324-4.61c-12.053-5.255-20.754-16.744-22.046-30.4c-0.112-1.16-0.168-2.335-0.168-3.527
			c0-1.188,0.056-2.359,0.168-3.515c1.439-15.308,12.208-27.909,26.565-32.047c3.258-0.94,6.705-1.443,10.269-1.443
			c20.438,0,37.005,16.571,37.005,37.005c0,1.884-0.14,3.735-0.415,5.546c-0.216,1.44-0.513,2.855-0.892,4.235l-14.6,68.997
			c13.576-3.895,29.407-13.731,38.648-23.745c9.237-10.014,15.666-22.378,18.933-36.102c0.332-1.385,0.581-2.771,0.581-4.163v-0.008
			c1-4.758,1.622-9.661,1.622-14.668C784.622,155.241,782.373,143.896,777.746,133.695z M696.525,203.367v0.049
			c0.02,0.008,0.044,0.02,0.063,0.027h-0.063v-0.027c-0.004,0-0.004-0.004-0.009-0.004L696.525,203.367z M689.411,239.641
			l0.012,0.004l0.024,0.008l0.012,0.005l-0.016-0.024h0.084v0.037l-0.049-0.004l-0.02-0.005l-0.036-0.009l-0.012-0.008l-0.004-0.004
			H689.411z"/>
		<polygon fill="#662D91" points="689.527,239.633 689.527,239.67 689.479,239.666 689.459,239.661 689.459,239.657 
			689.443,239.633 		"/>
		<polygon fill="#662D91" points="696.525,203.367 696.525,203.416 696.517,203.412 		"/>
		<path fill="#662D91" d="M696.589,203.443h-0.063v-0.027C696.545,203.424,696.569,203.436,696.589,203.443z"/>
	</g>
</g>
<g>
	<path fill="#B055FF" d="M663.768,238.367c-7.418,4.371-16.006,7.856-24.69,9.68l-9.182-42.736c0.8-0.164,1.588-0.352,2.367-0.567
		c4.835,8.773,11.569,16.067,18.606,22.501C653.073,229.256,663.768,238.367,663.768,238.367z"/>
	<path fill="#B055FF" d="M710.973,167.541c0.004,14.132-2.686,25.705-9.07,37.285l-7.953-2.086
		c-14.592-3.988-25.58-16.684-27.044-32.164c0.112-1.16,0.168-2.339,0.168-3.527c0-1.188-0.056-2.359-0.168-3.515
		c-1.439-15.308-12.209-27.905-26.564-32.043c-3.263-0.944-6.71-1.447-10.273-1.447c-20.438,0-37.001,16.571-37.001,37.005
		c0,1.788,0.127,3.543,0.371,5.263c0.236,1.644,11.697,55.381,11.697,55.381l3.854,18.134c-13.601-4.476-29.999-13.728-39.341-24.12
		c-9.302-10.342-15.988-23.11-18.986-37.246c-0.009-0.036-0.017-0.072-0.025-0.108c-0.055-0.239-0.08-0.368-0.084-0.38l-0.02-0.084
		l-0.016-0.084c-1.068-5.258-1.632-10.701-1.632-16.264c0-11.904,2.575-23.253,7.206-33.458c2.316-5.099,5.143-9.917,8.414-14.384
		c3.275-4.471,6.994-8.59,11.093-12.293c7.182-6.49,15.536-11.72,24.718-15.324c9.177-3.607,19.182-5.586,29.615-5.586
		c14.943-0.004,29,4.063,41.028,11.141c12.249,7.206,22.426,17.523,29.464,29.896C707.139,139.333,710.977,153.017,710.973,167.541z
		"/>
</g>
<path fill="#662D91" d="M784.92,167.541c0,5.007-0.455,9.91-1.327,14.668l-0.02,0.112l-0.816,3.862l-16.875,79.786l-7.825-1.655
	l-7.826-1.655l-27.713-5.862l17.812-84.201l14.705-68.252c9.672,7.525,18.054,19.55,22.685,29.751
	C782.346,144.296,784.92,155.641,784.92,167.541z"/>
<g>
	<path fill="#662D91" d="M961.672,167.141c0,8.374-1.275,16.48-3.643,24.097c-2.372,7.618-5.835,14.752-10.201,21.219
		c-8.738,12.932-21.095,23.197-35.65,29.355c-9.697,4.104-20.379,6.37-31.548,6.37c-8.374,0-16.479-1.275-24.097-3.643
		c-7.619-2.371-14.752-5.835-21.219-10.201c-12.933-8.737-23.197-21.099-29.355-35.65c-4.104-9.701-6.371-20.378-6.371-31.547
		c0-8.373,1.276-16.479,3.644-24.097c2.372-7.618,5.835-14.756,10.201-21.222c8.737-12.929,21.095-23.194,35.649-29.352
		c9.697-4.107,20.379-6.375,31.548-6.375c5.626,0,11.129,0.576,16.443,1.672l-1.616,7.833l-1.646,7.826l-5.69,27.004
		c-2.46-0.516-5.015-0.788-7.63-0.788c-20.435,0-37.002,16.571-37.002,37.005c0,20.438,16.567,37.006,37.002,37.006
		c19.555,0,35.57-15.168,36.914-34.382l9.813-47.355l1.783-9.222v-0.004l2.574-10.275c8.285,7.414,18.036,20.824,22.723,31.077
		C958.98,143.744,961.672,155.161,961.672,167.141z"/>
</g>
<rect x="11" y="87" fill="#662D91" width="45" height="179"/>
<rect x="122" y="220" fill="#FC0073" width="44" height="45"/>
<g>
	<path fill="#B055FF" d="M167.832,134.818c-6.158-14.556-16.423-26.917-29.355-35.654c-6.466-4.367-13.6-7.83-21.222-10.201
		c-7.618-2.371-15.724-3.643-24.097-3.643c-11.169-0.004-21.846,2.267-31.547,6.37c-14.556,6.158-26.913,16.427-35.65,29.356
		c-4.367,6.466-7.83,13.6-10.201,21.222c-2.368,7.618-3.643,15.719-3.643,24.097c0,11.165,2.267,21.846,6.37,31.547
		c6.158,14.552,16.423,26.912,29.355,35.646c6.466,4.371,13.601,7.834,21.218,10.201c7.618,2.372,15.724,3.647,24.098,3.647
		c11.168,0,21.85-2.268,31.551-6.374c14.552-6.158,26.913-16.424,35.65-29.352c4.367-6.467,7.83-13.601,10.201-21.219
		c2.367-7.622,3.643-15.724,3.643-24.097C174.202,155.197,171.935,144.516,167.832,134.818z M93.256,204.147
		c-20.438,0-37.005-16.567-37.005-37.006c0-20.434,16.567-37.005,37.005-37.005c20.438,0,37.002,16.571,37.002,37.005
		C130.258,187.58,113.695,204.147,93.256,204.147z"/>
</g>
</svg>
