<?xml version="1.0" encoding="utf-8"?>
<!-- Generator: Adobe Illustrator 16.0.0, SVG Export Plug-In . SVG Version: 6.00 Build 0)  -->
<!DOCTYPE svg PUBLIC "-//W3C//DTD SVG 1.1//EN" "http://www.w3.org/Graphics/SVG/1.1/DTD/svg11.dtd">
<svg version="1.1" id="Layer_1" xmlns="http://www.w3.org/2000/svg" xmlns:xlink="http://www.w3.org/1999/xlink" x="0px" y="0px"
	 width="426px" height="317.939px" viewBox="0 0 426 317.939" enable-background="new 0 0 426 317.939" xml:space="preserve">
<g>
	<g opacity="0.7">
		<path fill="#E4AF9E" stroke="#000000" stroke-width="5" stroke-miterlimit="10" d="M183.321,74.104l16.188,141.805
			c0,0-20.047-14.103-54.317-10.19c-34.26,3.912-56.332,22.823-56.332,22.823L72.67,86.735c0,0,24.431-18.85,55.381-22.712
			C160.371,59.998,183.321,74.104,183.321,74.104z"/>
		<path fill="#E4AF9E" stroke="#000000" stroke-width="5" stroke-miterlimit="10" d="M314.135,202.821
			c0,0-20.379-14.063-54.643-10.152c-34.268,3.912-56.67,22.861-56.67,22.861L186.634,73.726c0,0,24.759-18.893,55.709-22.75
			c32.321-4.028,55.604,10.042,55.604,10.042L314.135,202.821z"/>
		<path fill="#666666" d="M121.386,101.902c0,0-8.267,1.748-15.556,4.708c-12.057,4.896-18.311,10.246-18.311,10.246l-2.933-25.695
			c0,0,9.313-8.776,23.712-13.553c5.537-1.837,10.046-2.353,10.046-2.353L121.386,101.902z"/>
		<path fill="#666666" d="M178.269,112.165l0.389,3.417c-9.133-3.576-24.009-7.353-43.813-5.091
			c-20.624,2.354-36.827,10.142-46.233,15.94l-0.394-3.445c9.409-5.779,26.249-13.824,45.241-16.193
			C152.793,104.383,169.117,108.428,178.269,112.165z"/>
		<path fill="#666666" d="M178.573,126.59l0.391,3.417c-9.135-3.575-24.341-7.313-44.145-5.054
			c-20.624,2.355-36.496,10.106-46.565,15.979l-0.393-3.444c10.071-5.856,26.581-13.862,45.571-16.231
			C152.766,118.847,169.421,122.856,178.573,126.59z"/>
		<path fill="#666666" d="M180.094,139.916l0.39,3.417c-9.134-3.575-24.341-7.315-44.144-5.054
			c-20.624,2.354-36.497,10.104-46.564,15.979l-0.394-3.444c10.071-5.856,26.579-13.86,45.571-16.232
			C154.288,132.17,170.943,136.178,180.094,139.916z"/>
		<path fill="#666666" d="M181.726,154.19l0.388,3.418c-9.133-3.576-24.339-7.316-44.143-5.055
			c-20.624,2.355-36.497,10.105-46.565,15.978l-0.393-3.443c10.071-5.856,26.58-13.862,45.571-16.233
			C155.917,146.446,172.572,150.454,181.726,154.19z"/>
		<path fill="#666666" d="M182.691,168.542l0.39,3.417c-9.134-3.576-24.338-7.315-44.145-5.056
			c-20.623,2.356-36.495,10.106-46.564,15.979l-0.393-3.443c10.072-5.854,26.579-13.861,45.571-16.232
			C156.885,160.797,173.54,164.805,182.691,168.542z"/>
		<path fill="#666666" d="M184.212,181.866l0.39,3.416c-9.133-3.573-24.34-7.314-44.145-5.054
			c-20.624,2.354-36.495,10.104-46.564,15.979l-0.393-3.443c10.07-5.856,26.578-13.863,45.572-16.234
			C158.406,174.12,175.061,178.128,184.212,181.866z"/>
		<path fill="#666666" d="M175.01,83.616l0.39,3.414c-9.133-3.574-24.081-7.343-43.885-5.083c-0.163,0.02-0.285,0.033-0.444,0.06
			l-0.591-3.799C149.652,75.893,165.86,79.906,175.01,83.616z"/>
		<path fill="#666666" d="M175.314,98.041l0.39,3.417c-7.803-3.66-23.476-7.259-42.87-5.191l-0.665-3.789
			C150.753,90.49,166.177,94.437,175.314,98.041z"/>
		<path fill="#666666" d="M290.188,69.5l0.39,3.417c-9.132-3.575-24.671-7.277-44.475-5.016
			c-20.623,2.354-36.827,10.143-46.896,16.016l-0.392-3.444c10.071-5.855,26.908-13.9,45.9-16.271
			C264.052,61.792,281.036,65.763,290.188,69.5z"/>
		<path fill="#666666" d="M290.494,83.927l0.389,3.417c-9.134-3.576-24.34-7.315-44.145-5.055
			c-20.623,2.355-36.494,10.105-46.563,15.979l-0.394-3.444c10.071-5.855,26.578-13.862,45.57-16.232
			C264.686,76.182,281.34,80.189,290.494,83.927z"/>
		<path fill="#666666" d="M292.015,97.25l0.391,3.417c-9.134-3.575-24.34-7.315-44.146-5.054
			c-20.623,2.354-36.494,10.106-46.563,15.979l-0.393-3.443c10.071-5.856,26.578-13.863,45.57-16.234
			C266.208,89.506,282.862,93.514,292.015,97.25z"/>
		<path fill="#666666" d="M293.646,111.527l0.39,3.416c-9.135-3.576-24.342-7.314-44.146-5.054
			c-20.624,2.356-36.495,10.106-46.563,15.979l-0.394-3.444c10.071-5.855,26.579-13.862,45.569-16.232
			C267.837,103.782,284.492,107.79,293.646,111.527z"/>
		<path fill="#666666" d="M294.613,125.876l0.389,3.418c-9.135-3.575-24.342-7.316-44.146-5.055
			c-20.623,2.354-36.494,10.104-46.564,15.979l-0.393-3.446c10.072-5.854,26.579-13.86,45.57-16.23
			C268.805,118.133,285.459,122.141,294.613,125.876z"/>
		<path fill="#666666" d="M296.133,139.201l0.391,3.416c-9.135-3.573-24.341-7.314-44.146-5.054
			c-20.62,2.355-36.493,10.107-46.564,15.98l-0.392-3.445c10.071-5.855,26.578-13.862,45.571-16.232
			C270.326,131.456,286.98,135.463,296.133,139.201z"/>
		<path fill="#666666" d="M298.197,157.285l0.39,3.416c-9.134-3.576-24.105-7.342-43.91-5.082c-0.162,0.02-0.296,0.035-0.456,0.063
			l-0.572-3.801C272.82,149.566,289.048,153.576,298.197,157.285z"/>
		<path fill="#666666" d="M298.502,171.711l0.391,3.414c-7.803-3.657-23.502-7.255-42.894-5.187l-0.65-3.79
			C273.929,164.16,290.025,168.03,298.502,171.711z"/>
		<path fill="#666666" d="M245.237,175.497c0,0-8.931,1.822-16.221,4.783c-12.056,4.897-18.972,10.321-18.972,10.321l-2.935-25.695
			c0,0,9.977-8.852,24.375-13.628c5.537-1.837,10.71-2.428,10.71-2.428L245.237,175.497z"/>
		<path opacity="0.5" fill="#C1C1C1" d="M302.563,72.059l16.188,141.804c0,0-26.225-13.396-61.674-9.35
			c-18.938,2.163-32.454,8.392-41.042,13.729c0.353,0.721,0.644,1.489,0.738,2.309c0.627,5.5-5.382,10.708-13.47,11.631
			c-8.081,0.923-15.125-2.796-15.751-8.296c-0.103-0.914-0.018-1.831,0.229-2.706c-9.58-3.177-24.443-5.965-42.973-3.85
			c-35.449,4.047-58.621,23.082-58.621,23.082L69.999,98.61c0,0,1.897-1.016,3.744-2.48l15.117,132.412
			c0,0,22.27-18.934,56.533-22.846c25.238-2.88,42.657,4.019,50.105,7.854c2.664,1.373,4.012,2.358,4.012,2.358L183.439,75.151
			l3.313-0.379l16.07,140.758c0,0,1.506-1.245,3.667-3.09c6.264-5.363,26.203-16.627,51.697-19.538
			c34.264-3.911,55.949,9.919,55.949,9.919L299.02,70.412C301.81,71.347,302.563,72.059,302.563,72.059z"/>
		<path fill="#666666" d="M198.943,216.82l0.172,1.513c-9.133-3.576-30.497-11.593-55.246-8.607
			c-25.044,3.024-43.945,15.777-54.677,21.726l-0.176-1.54c10.734-5.932,29.937-18.871,53.684-21.98
			C169.317,204.447,189.791,213.084,198.943,216.82z"/>
		<path fill="#666666" d="M199.377,220.627l0.173,1.514c-9.134-3.577-30.498-11.595-55.248-8.607
			c-25.043,3.021-43.945,15.776-54.676,21.725l-0.177-1.541c10.734-5.931,29.935-18.87,53.682-21.978
			C169.75,208.253,190.224,216.89,199.377,220.627z"/>
		<path fill="#666666" d="M203.987,217.109l0.196,1.511c8.015-5.67,26.54-18.556,51.285-21.611
			c25.032-3.091,47.313,4.63,58.026,7.97l-0.201-1.538c-11.014-3.282-33.326-11.15-57.125-8.454
			C229.494,198.009,212.503,211.213,203.987,217.109z"/>
		<path fill="#666666" d="M204.481,220.907l0.195,1.512c8.015-5.668,26.542-18.555,51.283-21.608
			c25.036-3.092,47.316,4.626,58.027,7.968l-0.201-1.538c-11.011-3.282-33.324-11.149-57.122-8.453
			C229.989,201.807,212.998,215.01,204.481,220.907z"/>
	</g>
	<g opacity="0.7">
		<g>
			<path fill="#90D0CA" stroke="#000000" stroke-width="5" stroke-miterlimit="10" d="M268.701,31.012l27.063,236.814
				c1.448,12.669-7.035,23.403-19.456,24.823l-117.757,13.457c-12.419,1.419-22.989-7.136-24.437-19.806L107.05,49.485
				c-1.448-12.669,6.835-24.132,19.253-25.551l117.757-13.458C256.482,9.057,267.253,18.342,268.701,31.012z"/>
			<circle opacity="0.5" fill="#4D4D4D" cx="256.695" cy="155.694" r="9.999"/>
			<path opacity="0.5" fill="#4D4D4D" d="M269.226,177.263c3.754,4.054-8.452,14.1-8.452,14.1s-13.968-6.93-11.419-11.828
				c4.089-7.849,9.926-1.229,9.926-1.229S262.883,170.416,269.226,177.263z"/>
			<path opacity="0.5" fill="#4D4D4D" d="M272.123,202.619c0.305,2.666-1.027,5.215-3.33,6.961
				c-0.938,0.709-1.233,3.433-1.233,3.433s-3.602-1.314-4.452-1.216c-5.487,0.627-10.348-2.468-10.854-6.907
				c-0.508-4.44,3.53-8.55,9.017-9.177S271.615,198.178,272.123,202.619z"/>
			<path opacity="0.5" fill="#4D4D4D" d="M268.073,237.492l-0.74-6.473c-6.647,1.182-10.126,14.613-10.126,14.613l-1.9-13.774
				c0,0,4.211-9.876,10.869-10.965l-0.61-5.351l9.451,8.887L268.073,237.492z"/>
			
				<rect x="147.906" y="250.848" transform="matrix(0.9935 -0.1136 0.1136 0.9935 -27.5663 21.6008)" opacity="0.5" fill="#4D4D4D" width="55.84" height="3.852"/>
			
				<rect x="148.867" y="259.051" transform="matrix(0.9935 -0.1135 0.1135 0.9935 -28.3542 23.1219)" opacity="0.5" fill="#4D4D4D" width="79.908" height="2.888"/>
			
				<rect x="149.305" y="263.84" transform="matrix(0.9935 -0.1135 0.1135 0.9935 -28.789 23.1993)" opacity="0.5" fill="#4D4D4D" width="79.907" height="0.962"/>
			<path opacity="0.5" fill="#4D4D4D" d="M193.004,119.169c-15.436,1.764-26.514,15.702-24.75,31.137
				c1.764,15.429,15.7,26.507,31.136,24.743c15.429-1.764,26.509-15.7,24.744-31.13C222.37,128.485,208.434,117.406,193.004,119.169
				z M194.881,158.424l-3.905-25.825l14.973,11.902L194.881,158.424z"/>
		</g>
		<path opacity="0.5" d="M248.229,2.248L121.145,16.772c-13.396,1.53-22.124,13.341-20.592,26.737l4.436,38.814l-1.365,5.013
			l1.73,15.138l2.489,4.826l1.211,10.595l-1.51,3.751l1.499,13.121l2.46,4.576l17.672,154.624
			c1.531,13.396,12.787,23.727,26.184,22.195l127.083-14.524c13.396-1.529,22.35-14.168,20.818-27.565l-19.66-172.033l0.35-5.408
			l-2.795-24.472l-1.534-4.936l-4.983-43.607C273.107,10.218,261.625,0.717,248.229,2.248z M295.765,267.826
			c1.448,12.669-7.035,23.403-19.456,24.823l-117.757,13.457c-12.419,1.419-22.989-7.136-24.437-19.806L107.05,49.485
			c-1.448-12.669,6.835-24.132,19.253-25.551l117.757-13.458c12.422-1.42,23.192,7.865,24.641,20.535L295.765,267.826z"/>
		<circle opacity="0.5" cx="165.534" cy="28.42" r="3.203"/>
		<path opacity="0.5" d="M210.697,23.721c0.197,1.727-1.042,3.285-2.768,3.482l-32.011,3.658c-1.726,0.198-3.285-1.042-3.482-2.768
			l-0.051-0.447c-0.197-1.726,1.042-3.284,2.768-3.481l32.011-3.658c1.726-0.198,3.285,1.042,3.482,2.768L210.697,23.721z"/>
		
			<rect x="150.226" y="269.436" transform="matrix(0.9935 -0.1135 0.1135 0.9935 -29.3533 26.3492)" opacity="0.5" fill="#4D4D4D" width="132.859" height="2.889"/>
		
			<rect x="152.348" y="286.486" transform="matrix(0.9935 -0.1136 0.1136 0.9935 -32.2001 20.1767)" opacity="0.5" fill="#4D4D4D" width="17.329" height="12.515"/>
		
			<rect x="177.233" y="283.917" transform="matrix(0.9935 -0.1135 0.1135 0.9935 -31.7575 22.7081)" opacity="0.5" fill="#4D4D4D" width="12.515" height="12.516"/>
		
			<rect x="198.23" y="280.692" transform="matrix(0.9935 -0.1135 0.1135 0.9935 -31.2097 25.8916)" opacity="0.5" fill="#4D4D4D" width="26.957" height="12.515"/>
		
			<rect x="234.615" y="277.193" transform="matrix(0.9935 -0.1135 0.1135 0.9935 -30.6183 29.3479)" opacity="0.5" fill="#4D4D4D" width="15.403" height="12.517"/>
		
			<rect x="260.441" y="274.242" transform="matrix(0.9935 -0.1135 0.1135 0.9935 -30.1161 32.2614)" opacity="0.5" fill="#4D4D4D" width="15.403" height="12.516"/>
	</g>
	<g>
		<path fill="#D9A385" d="M321.042,207.643c-5.453,22.157-51.834,21.021-60.627,7.489c-8.795-13.531-9.099-22.426-9.099-22.426
			s-11.091-15.228-6.498-26.682c4.592-11.455,11.058-10.744,11.058-10.744l29.857,7.647l11.155,2.073
			C296.889,165.001,326.494,185.486,321.042,207.643z"/>
		<path fill="#D9A385" d="M326.02,112.821c0,0,40.678,80.963,36.541,102.97c-4.139,22.006-14.946,51.035-14.946,51.035
			s-18.249,26.825-48.29,6.521c-30.044-20.307-26.949-39.439-34.55-53.107c-7.601-13.669,20.166-51.617,20.166-51.617l6.485-6.203
			c0,0-6.427-44.91-8.064-59.238C282.2,93.024,326.02,112.821,326.02,112.821z"/>
		<path fill="#D9A385" d="M265.299,182.343c-5.898,11.326-17.833,11.821-17.833,11.821s-18.51-3.322-31.049-11.683
			c-7.264-4.845-11.128-13.938-11.848-18.416c-1.962-12.212-1.363-16.423,3.647-23.72c5.008-7.294,12.774-6.339,12.774-6.339
			l43.964,24.673C264.954,158.68,271.199,171.021,265.299,182.343z"/>
		<path fill="#F3D4C7" d="M222.482,163.804l-16.014-9.652c0,0-1.509-3.416,2.027-11.304c3.535-7.887,7.471-9.878,7.471-9.878
			l16.016,9.651c0,0-0.137,5.253-2.904,11.427C226.313,160.219,222.482,163.804,222.482,163.804z"/>
		<path fill="#C48266" d="M306.299,163.745c-6.363-3.759-15.299-7.516-15.299-7.516v8.17c13-1.546,37.573,20.345,37.573,20.345
			S312.666,167.506,306.299,163.745z"/>
		<path fill="#C48266" d="M282.203,238.146c-6.398,1.88-10.419,1.457-10.419,1.457l-5.54-16.36
			c12.518,10.616,27.708,7.56,27.708,7.56S288.914,236.177,282.203,238.146z"/>
		<path fill="#C48266" d="M266.912,172.91c0.347-3.172-1.654-14.486-1.654-14.486l-2.991-0.82c7.063,16.992-2.19,29.401-2.19,29.401
			S266.065,180.706,266.912,172.91z"/>
		<path fill="#C48266" d="M244.028,168.712c-0.86,3.067,0.786,11.916,0.786,11.916l2.815,1.316
			c-0.082-13.232,1.183-17.482,4.169-22.018c0.842-1.277,5.061-4.19,6.529-1.334c1.23,2.391,2.193,10.375,2.376,10.119
			c0.173-0.242-0.624-8.486-1.823-11.196c-1.583-3.575-6.379-1.307-7.644-0.477C248.429,158.884,245.165,164.664,244.028,168.712z"
			/>
	</g>
</g>
</svg>
