<?xml version="1.0" encoding="utf-8"?>
<!-- Generator: Adobe Illustrator 16.0.0, SVG Export Plug-In . SVG Version: 6.00 Build 0)  -->
<!DOCTYPE svg PUBLIC "-//W3C//DTD SVG 1.1//EN" "http://www.w3.org/Graphics/SVG/1.1/DTD/svg11.dtd">
<svg version="1.1" id="Layer_1" xmlns="http://www.w3.org/2000/svg" xmlns:xlink="http://www.w3.org/1999/xlink" x="0px" y="0px"
	 width="426px" height="317.939px" viewBox="0 0 426 317.939" enable-background="new 0 0 426 317.939" xml:space="preserve">
<g>
	<path opacity="0.5" fill="#10FFC9" d="M267.956,87.623c-0.4,0.208-0.743,0.375-1.026,0.512c-0.234,0.137-0.509,0.266-0.821,0.364
		c0.146-0.069,0.431-0.186,0.821-0.364c5.946-3.552-15.186-16.429-33.354-15.868c-6.648,0.207-16.388,1.229-24.611,2.38
		c0.567-0.561,1.114-1.18,1.653-1.86c1.877-2.39,8.703-13.133-1.995-16.93c-1.828,0.571-3.364,1.249-4.645,2.006
		c2.825-2.075,5.162-2.539,5.162-2.539l3.266-12.857c0,0-2.482-4.851-1.828-5.578c3.452-1.376,6.913,6.887,6.913,6.887l-0.313-5.077
		c0,0-1.184-2.587-1.184-3.61c1.623,0.749,5.545,5.076,5.545,5.076c0-0.256-0.06-11.058-10.033-13.418
		c9.25-0.561,7.031-3.887,7.031-3.887s-12.595,2.804-14.423,0.109c-1.829-2.686,3.804-10.34,3.804-10.34s-6.218,1.545-8.038,5.155
		c-3.696-6.73-10.306-12.514-10.306-12.514s-10.961,1.75-7.901,4.771c-5.808-2.587-16.378-3.896-17.034-3.964
		c0.304,0.127,2.806,1.239,6.395,4.317c-8.604-3.895-17.737-4.859-17.737-4.859s3.041,2.362,6.404,5.096
		c-5.348-0.855-25.022,0.679-25.022,0.679s4.791,0.443,16.359,1.751c-11.753,0.974-23.438,6.08-28.357,9.277
		c-0.674,0.432-2.611-6.562-2.611-6.562l1.134,9.188c0,0,4.175-2.538,15.654-5.214c-6.13,3.06-9.573,5.971-14.579,10.625
		c-0.176,0.167-0.361,0.197-0.547,0.108c0.342-1.997,0.498-3.846,0.078-4.456c-0.176-0.246-1.026-0.501-2.327-0.738
		c-0.987-3.689-1.731-7.801-1.809-6.709c-0.049,0.807-0.068,3.424-0.058,6.404c-7.657-1.063-23.115-1.731-23.987-0.461
		c-1.134,1.662,18.53,34.117,20.271,34.825c0.723,0.295,8.096-1.181,16.593-3.079l0.206,0.167l8.634,11.244l4.313-7.388
		c0.665,1.898,3.305,3.562,3.305,5.805c0,4.82-5.671,13.635,1.036,16.97c9.289,4.613,8.576,15.05,22.011,13.999
		c1.319-0.099,2.581-0.305,3.774-0.591c-0.127,0.433-0.196,0.837-0.206,1.21c-2.776,7.25-4.859,15.347-4.537,22.312
		c0.01,0.276,0.029,0.542,0.058,0.807c-1.691,9.542-3.568,23.542-6.063,32.022c-6.003,20.442-12.017,48.312-7.627,57.865
		c0.372,0.816,2.376,12.13,2.376,12.13s8.106,2.893,14.726,2.893c2.317,0,4.792-0.501,7.031-1.161
		c1.799,7.87,4.272,18.671,5.427,23.689c1.643,7.093,9.778,20.963,9.778,20.963s-6.806,9.917-1.056,13.095
		c2.415,1.328,4.644,2.391,7.001,3.197c-0.059,0.04-0.099,0.06-0.099,0.06s-3.245,6.925-4.37,7.792
		c-1.125,0.875-1.642,1.789-5.847,2.832c-1.849,0.463-7.109,0.847-7.55,0.847c-4.664,0-7.196,1.328-9.006,4.25
		c-1.808,2.911-0.968,7.31-0.968,7.31s7.755,2.4,13.152,2.873c0.851,0.078,1.632,0.136,2.376,0.195
		c-0.226,2.047,0.117,3.818,0.117,3.818s7.755,2.399,13.152,2.872c5.417,0.481,8.142,0.59,14.634-0.256
		c13.506-1.762,21.725-8.884,21.725-8.884s0-1.495,0-3.748c0-0.197,0.668-0.305,0.668-0.305s0.416-2.913,0.074-4.171
		c-0.245-0.905-2.455-2.194-3.864-2.332c-0.341-1.427-0.734-2.931-1.223-4.309c4.968-0.423,8.615-1.819,9.084-4.064
		c1.007-7.634-4.476-4.26-1.658-7.259c2.817-3.001,3.895-4.575,2.104-7.319c-1.789-2.745-4.761-6.936-8.124-12.455
		c-3.363-5.528,2.681-30.448,4.265-35.052c0.537-1.563,0.116-3.157-1.32-4.633c2.336-2.863,2.953-7.358,0.948-8.402
		c1.858-0.776,3.13-1.436,3.501-1.879c1.135-1.337,2.072-3.011,2.846-4.968c14.872-10.104,11.753-31.706,11.851-37.205
		c0.06-3.051-3.989-25.058-7.216-39.953c7.079,26.75,10.08,0.965,13.2-10.162c1.057-3.778,2.356-7.477,4.303-9.985
		C272.729,104.22,272.68,95.887,267.956,87.623z M127.337,32.887c-2.229,2.99-6.767,7.978-9.191,10.595
		c-4.449-2.97-13.278-11.039-13.209-12.13c0.088-1.308,10.775-3.886,12.134-3.827c0.176,0.009,0.362,0.167,0.557,0.453
		c0.01,4.308,0.049,8.451,0.049,8.451s1.007-0.454,2.366-1.053c0.235-0.098,0.47-0.207,0.715-0.305
		C123.808,33.752,127.943,32.071,127.337,32.887z"/>
	<path opacity="0.5" fill="#EC881E" d="M284.552,86.548c-0.401,0.207-0.743,0.374-1.026,0.512c-0.234,0.137-0.51,0.265-0.822,0.363
		c0.146-0.068,0.43-0.187,0.822-0.363c5.944-3.552-15.186-16.429-33.354-15.869c-6.649,0.208-16.388,1.23-24.611,2.381
		c0.566-0.56,1.113-1.18,1.652-1.859c1.878-2.391,8.702-13.133-1.995-16.931c-1.828,0.57-3.364,1.249-4.645,2.007
		c2.826-2.076,5.163-2.538,5.163-2.538l3.265-12.857c0,0-2.482-4.851-1.827-5.578c3.45-1.377,6.913,6.887,6.913,6.887l-0.313-5.077
		c0,0-1.184-2.588-1.184-3.61c1.623,0.748,5.544,5.077,5.544,5.077c0-0.257-0.06-11.058-10.032-13.419
		c9.249-0.561,7.03-3.886,7.03-3.886s-12.594,2.805-14.423,0.109c-1.828-2.686,3.804-10.339,3.804-10.339s-6.218,1.545-8.037,5.155
		C212.78,9.981,206.17,4.197,206.17,4.197s-10.961,1.751-7.901,4.771c-5.808-2.586-16.378-3.895-17.033-3.964
		c0.304,0.127,2.806,1.239,6.395,4.318c-8.604-3.896-17.737-4.86-17.737-4.86s3.04,2.361,6.404,5.097
		c-5.349-0.856-25.022,0.679-25.022,0.679s4.791,0.442,16.358,1.75c-11.753,0.974-23.438,6.079-28.357,9.276
		c-0.674,0.433-2.61-6.562-2.61-6.562l1.135,9.188c0,0,4.175-2.538,15.654-5.212c-6.131,3.059-9.573,5.971-14.58,10.624
		c-0.176,0.167-0.361,0.198-0.547,0.108c0.342-1.998,0.499-3.846,0.079-4.457c-0.175-0.246-1.026-0.501-2.327-0.738
		c-0.987-3.689-1.731-7.801-1.809-6.708c-0.049,0.806-0.068,3.423-0.059,6.404c-7.657-1.063-23.115-1.731-23.986-0.462
		c-1.134,1.662,18.53,34.117,20.271,34.826c0.724,0.294,8.096-1.182,16.594-3.08l0.205,0.167l8.634,11.244l4.313-7.388
		c0.665,1.898,3.305,3.562,3.305,5.805c0,4.821-5.671,13.634,1.036,16.97c9.289,4.613,8.576,15.052,22.012,14
		c1.319-0.099,2.581-0.305,3.773-0.591c-0.126,0.434-0.195,0.837-0.205,1.209c-2.777,7.251-4.859,15.348-4.537,22.313
		c0.01,0.276,0.029,0.541,0.058,0.806c-1.691,9.544-3.568,23.542-6.063,32.022c-6.003,20.442-12.017,48.313-7.627,57.866
		c0.372,0.816,2.377,12.13,2.377,12.13s8.106,2.892,14.725,2.892c2.318,0,4.792-0.501,7.031-1.16
		c1.8,7.87,4.272,18.672,5.427,23.689c1.643,7.092,9.778,20.964,9.778,20.964s-6.806,9.916-1.056,13.093
		c2.415,1.329,4.645,2.392,7.001,3.197c-0.06,0.041-0.099,0.06-0.099,0.06s-3.246,6.926-4.371,7.792
		c-1.125,0.876-1.642,1.791-5.847,2.833c-1.849,0.462-7.109,0.847-7.549,0.847c-4.664,0-7.196,1.327-9.006,4.25
		c-1.808,2.911-0.968,7.309-0.968,7.309s7.755,2.4,13.151,2.873c0.851,0.078,1.633,0.137,2.376,0.195
		c-0.225,2.047,0.117,3.818,0.117,3.818s7.754,2.399,13.152,2.873c5.417,0.481,8.344,0.59,14.838-0.256
		c13.504-1.762,21.926-8.884,21.926-8.884s0-1.496,0-3.748c0-0.198,0.467-0.306,0.467-0.306s0.316-2.911-0.026-4.171
		c-0.244-0.905-2.506-2.194-3.915-2.331c-0.342-1.428-0.761-2.932-1.25-4.31c4.967-0.423,8.602-1.819,9.07-4.063
		c1.008-7.634-4.479-4.26-1.663-7.261c2.816-3,3.893-4.574,2.103-7.318c-1.789-2.746-4.763-6.937-8.125-12.455
		c-3.365-5.529,2.678-30.447,4.261-35.053c0.539-1.563,0.119-3.156-1.319-4.632c2.338-2.863,2.952-7.359,0.948-8.402
		c1.857-0.776,3.129-1.436,3.5-1.88c1.135-1.337,2.073-3.01,2.847-4.967c14.872-10.104,11.752-31.707,11.851-37.206
		c0.058-3.05-3.989-25.058-7.216-39.951c7.078,26.749,10.08,0.963,13.2-10.163c1.056-3.777,2.356-7.476,4.302-9.985
		C289.323,103.145,289.275,94.811,284.552,86.548z M143.932,31.812c-2.229,2.99-6.767,7.978-9.191,10.595
		c-4.449-2.971-13.278-11.038-13.21-12.13c0.088-1.309,10.775-3.885,12.134-3.827c0.177,0.01,0.362,0.167,0.558,0.453
		c0.009,4.309,0.049,8.45,0.049,8.45s1.007-0.453,2.366-1.053c0.234-0.098,0.469-0.206,0.714-0.305
		C140.402,32.677,144.538,30.995,143.932,31.812z"/>
	<path opacity="0.5" fill="#E21E79" d="M303.049,82.574c-0.401,0.208-0.742,0.375-1.026,0.512c-0.235,0.138-0.509,0.266-0.821,0.364
		c0.146-0.069,0.43-0.187,0.821-0.364c5.945-3.552-15.186-16.429-33.354-15.868c-6.648,0.206-16.389,1.229-24.611,2.38
		c0.567-0.561,1.114-1.18,1.652-1.86c1.877-2.39,8.702-13.133-1.994-16.93c-1.829,0.571-3.364,1.249-4.645,2.006
		c2.825-2.075,5.161-2.538,5.161-2.538l3.267-12.857c0,0-2.483-4.851-1.827-5.578c3.45-1.377,6.911,6.886,6.911,6.886l-0.313-5.076
		c0,0-1.183-2.587-1.183-3.61c1.622,0.748,5.545,5.076,5.545,5.076c0-0.256-0.06-11.058-10.033-13.418
		c9.25-0.561,7.03-3.887,7.03-3.887s-12.594,2.804-14.422,0.109c-1.829-2.686,3.803-10.34,3.803-10.34s-6.219,1.545-8.037,5.155
		c-3.696-6.729-10.307-12.513-10.307-12.513s-10.961,1.75-7.9,4.771c-5.808-2.587-16.378-3.896-17.034-3.964
		c0.304,0.127,2.807,1.239,6.395,4.317c-8.604-3.895-17.737-4.859-17.737-4.859s3.04,2.361,6.404,5.096
		c-5.348-0.855-25.021,0.679-25.021,0.679s4.791,0.443,16.358,1.751c-11.752,0.974-23.438,6.079-28.357,9.276
		c-0.673,0.433-2.61-6.562-2.61-6.562l1.135,9.188c0,0,4.175-2.539,15.655-5.214c-6.131,3.06-9.573,5.971-14.58,10.625
		c-0.176,0.167-0.361,0.197-0.547,0.107c0.341-1.996,0.498-3.846,0.078-4.456c-0.175-0.246-1.026-0.501-2.327-0.738
		c-0.987-3.689-1.731-7.801-1.809-6.71c-0.049,0.807-0.068,3.424-0.058,6.404c-7.657-1.063-23.115-1.731-23.986-0.461
		c-1.134,1.662,18.53,34.117,20.27,34.825c0.724,0.295,8.096-1.181,16.594-3.079l0.206,0.167l8.634,11.244l4.313-7.388
		c0.665,1.898,3.305,3.562,3.305,5.805c0,4.82-5.671,13.634,1.036,16.97c9.29,4.614,8.576,15.051,22.011,13.999
		c1.32-0.099,2.581-0.305,3.774-0.591c-0.127,0.433-0.196,0.836-0.206,1.21c-2.777,7.25-4.859,15.346-4.537,22.312
		c0.01,0.276,0.03,0.542,0.058,0.807c-1.691,9.542-3.568,23.541-6.063,32.022c-6.003,20.441-12.017,48.313-7.627,57.864
		c0.372,0.816,2.377,12.13,2.377,12.13s8.106,2.894,14.726,2.894c2.317,0,4.792-0.502,7.031-1.162
		c1.798,7.87,4.272,18.672,5.427,23.689c1.642,7.093,9.778,20.964,9.778,20.964s-6.807,9.916-1.057,13.095
		c2.415,1.327,4.645,2.39,7.001,3.197c-0.059,0.039-0.098,0.059-0.098,0.059s-3.246,6.926-4.371,7.792
		c-1.125,0.875-1.643,1.79-5.847,2.832c-1.85,0.463-7.109,0.848-7.55,0.848c-4.664,0-7.196,1.327-9.005,4.249
		c-1.809,2.912-0.968,7.31-0.968,7.31s7.754,2.4,13.151,2.873c0.852,0.079,1.633,0.137,2.377,0.196
		c-0.225,2.046,0.117,3.817,0.117,3.817s7.754,2.4,13.151,2.873c5.417,0.48,8.597,0.59,15.09-0.257
		c13.504-1.761,22.177-8.884,22.177-8.884s0-1.495,0-3.748c0-0.196,0.215-0.305,0.215-0.305s0.188-2.912-0.153-4.171
		c-0.243-0.905-2.567-2.194-3.976-2.332c-0.343-1.427-0.793-2.931-1.282-4.309c4.969-0.423,8.587-1.819,9.056-4.063
		c1.008-7.634-4.488-4.26-1.673-7.26c2.817-3.001,3.888-4.574,2.1-7.319c-1.79-2.745-4.764-6.936-8.127-12.455
		c-3.365-5.528,2.677-30.447,4.261-35.051c0.537-1.564,0.116-3.158-1.321-4.634c2.338-2.863,2.953-7.358,0.948-8.401
		c1.858-0.777,3.129-1.437,3.501-1.879c1.134-1.338,2.073-3.012,2.845-4.969c14.873-10.104,11.753-31.706,11.852-37.205
		c0.059-3.05-3.99-25.057-7.217-39.952c7.079,26.749,10.082,0.964,13.201-10.163c1.056-3.777,2.355-7.476,4.302-9.984
		C307.82,99.171,307.771,90.837,303.049,82.574z M162.429,27.838c-2.229,2.99-6.767,7.978-9.191,10.595
		c-4.449-2.971-13.279-11.039-13.21-12.13c0.088-1.309,10.775-3.886,12.134-3.828c0.177,0.01,0.362,0.167,0.558,0.454
		c0.01,4.308,0.049,8.45,0.049,8.45s1.007-0.453,2.366-1.053c0.234-0.098,0.47-0.207,0.714-0.306
		C158.9,28.703,163.036,27.021,162.429,27.838z"/>
	<path fill="#E7B28D" d="M197,215.208v5.902c0,2.45-0.884,4.427-2.614,4.427c-0.832,0-1.395-0.463-1.904-1.229
		c-0.323,1.85-1.298,3.197-2.746,3.197c-0.881,0-1.563-0.492-2.082-1.299c-0.059-0.089-0.088-0.167-0.137-0.266
		c-0.519,1.505-1.672,2.548-3.09,2.548c-0.978,0-1.833-0.491-2.439-1.299c-0.401-0.53-0.702-1.189-0.848-1.938
		c-0.519,0.787-1.25,1.27-2.081,1.27c-0.841,0-1.647-0.492-2.166-1.3c-0.518-0.796-0.894-1.907-0.894-3.128v-5.902
		c0-1.948,0-3.591,2-4.19v-3.395h17v2.41c1,0.217,0.854,0.581,1.156,1.063C196.675,212.876,197,213.987,197,215.208z"/>
	<g>
		<g>
			<path fill="#C48266" d="M220.989,293.606h16.617c0,0-1.385-10.658-4.5-14.926c-3.116-4.268-15.828-2.305-14.9,1.236
				C219.137,283.461,220.989,293.606,220.989,293.606z"/>
			<path fill="#403D65" d="M198.918,295.8c0,0,4.284,0,8.481-1.045c4.199-1.045,4.717-1.959,5.843-2.829
				c1.124-0.871,4.371-7.794,4.371-7.794s3.159-2.177,5.971,0.697c2.813,2.874,1.472,3.396,2.51,5.616
				c1.038,2.22,2.64,3.962,4.285,4.44c1.645,0.48,4.449,0.07,6.707-1.697c1.816-1.421-2.337-1.001-1.904-2.395
				c0.435-1.395,4.673,0.609,5.02,1.871c0.347,1.264,0,4.181,0,4.181s-10.284,6.387-20.685,7.724
				c-10.399,1.338-12.226-1.247-12.226-1.247s2.342-3.41-0.28-5.693C204.387,295.347,198.918,295.8,198.918,295.8z"/>
			<ellipse fill="#888788" cx="224.798" cy="292.395" rx="1.645" ry="1.654"/>
			<path fill="#888788" d="M189.874,307.163c0,0,7.75,2.397,13.157,2.875c5.409,0.477,8.442,0.586,14.936-0.262
				c13.5-1.764,22.033-8.883,22.033-8.883s0-1.565,0-3.918c-11,6.029-18.953,7.969-25.73,7.969c-3.703,0-7.027-1.72-7.027-1.72
				s2.384-3.352-0.04-5.269c-2.104-1.666-5.169-2.35-7.334-2.352c-4.662-0.005-7.208,1.329-9.014,4.245
				C189.045,302.766,189.874,307.163,189.874,307.163z"/>
			<path opacity="0.5" d="M189.874,307.163c0,0,7.75,2.397,13.157,2.875c5.409,0.477,8.442,0.586,14.936-0.262
				c13.5-1.764,22.033-8.883,22.033-8.883s0,0.784,0-1.565c-11,6.027-18.914,7.51-25.686,7.51c-0.845,0-1.925,0.007-3.307-0.03
				c-0.082-0.002-0.215-1.633-0.3-1.636c-0.174-0.005-0.261,1.619-0.443,1.611c-0.921-0.033-2.124-0.103-3.232-0.188
				c-0.188-0.016-0.132-1.712-0.326-1.729c-0.197-0.017-0.35,1.761-0.549,1.743c-0.898-0.086-2.134-0.32-3.127-0.455
				c-0.194-0.025-0.12-1.673-0.314-1.7c-0.152-0.022-0.229,1.625-0.383,1.602c-0.733-0.111-1.953-0.218-2.731-0.361
				c-0.146-0.027,0.211-1.769,0.064-1.796c-0.173-0.032-0.545,1.606-0.721,1.572c-0.916-0.182-1.86-0.387-2.829-0.619
				c-0.213-0.05-0.065-1.793-0.281-1.847c-0.11-0.028-0.583,1.636-0.696,1.606c-0.667-0.169-1.73-0.354-2.419-0.549
				c-0.25-0.071,0.285-1.755,0.032-1.829c-0.167-0.051-0.569,1.564-0.738,1.514c-0.708-0.215-1.598-0.497-2.327-0.742
				C189.117,306.21,189.874,307.163,189.874,307.163z"/>
			<path opacity="0.5" d="M190.958,299.706c0,0,2.81,0,7.099,1.007c4.458,1.048,9.236,2.512,9.236,2.512l2.51,0.974
				c0,0-9.792-2.648-11.83-3.078c-4.27-0.898-7.247-1.043-7.247-1.043L190.958,299.706z"/>
			<ellipse fill="#888788" cx="223.758" cy="296.052" rx="1.645" ry="1.654"/>
			<ellipse fill="#888788" cx="221.162" cy="298.664" rx="1.645" ry="1.654"/>
			<path fill="#C1C1C1" d="M209.51,294.272c0,0,4.16,1.269,6.413,2.355c2.253,1.089,3.361,2.007,4.343,2.614
				c0.981,0.608,2.072-1.1,0.906-1.88c-1.165-0.778-2.014-1.4-4.475-2.679c-2.459-1.277-5.493-2.068-6.434-1.62
				C209.323,293.513,209.51,294.272,209.51,294.272z"/>
			<path fill="#C1C1C1" d="M212.03,292.557c0,0,4.226,1.02,6.538,1.972c2.313,0.954,3.472,1.804,4.489,2.354
				c1.017,0.548,2.004-1.222,0.795-1.931s-2.094-1.28-4.625-2.41c-2.528-1.128-5.604-1.738-6.517-1.235
				C211.798,291.811,212.03,292.557,212.03,292.557z"/>
			<path fill="#C1C1C1" d="M213.483,290.95c0,0,4.177,0.309,6.521,0.867c2.342,0.557,3.568,1.204,4.617,1.577
				c1.048,0.373,1.742-1.532,0.488-2.032c-1.254-0.498-2.181-0.915-4.755-1.611c-2.576-0.695-5.597-0.789-6.398-0.144
				C213.155,290.253,213.483,290.95,213.483,290.95z"/>
		</g>
		<path fill="#4D4D4D" d="M210.709,280.87c5.75,3.173,10.458,4.806,18.292,5.236c7.835,0.43,14.488-1.047,15.131-4.143
			c1.014-7.634-4.477-4.252-1.66-7.257c2.816-3.006,3.896-4.579,2.104-7.325c-1.791-2.743-4.761-6.929-8.124-12.453
			s2.672-30.444,4.259-35.052s-5.184-9.491-21.823-10.998c-16.643-1.508-25.359,0.972-24.079,6.575
			c1.281,5.602,5.545,24.262,7.182,31.359c1.64,7.097,9.777,20.963,9.777,20.963S204.959,277.698,210.709,280.87z"/>
		<path opacity="0.5" fill="#1A1A1A" d="M210.709,280.87c14.856,3.407,21.602,2.091,28.854,0.69
			c-20.331,1.28-28.909-1.687-28.608-3.289c0.203-1.084,0.369-2.506,1.378-4.189c0.749-1.251,16.887,7.138,26.435,4.273
			c-0.11-1.271,7.65-10.569,1.692-4.224c-0.188,0.2-3.91,4.27-4.179,4.267c-12.701-0.157-21.672-6.326-24.863-15.292
			c-0.131-0.364,5.297,6.879,11.743,8.976c5.538,1.798,10.616-0.288,12.116-1.824c-3,0.891-6.862,3.124-12.297,0.611
			c-7.114-3.288-13.44-12.222-14.035-14.566c-1.718-6.761-4.686-13.126-6.002-20.282c-2.319-12.608,10.504-28.746,4.688-27.526
			c-9.758,2.047-14.104,1.356-12.824,6.96c1.281,5.602,5.545,24.262,7.182,31.359c1.64,7.097,9.777,20.963,9.777,20.963
			S204.959,277.698,210.709,280.87z"/>
		<path opacity="0.5" fill="#1A1A1A" d="M237.155,268.306c0.435,1.311-2.197,6.211-2.197,6.211s5.741-6.174,5.177-8.028
			c-0.401-1.319-4.555-3.068-6.91-3.962c-0.369-0.14-0.371-6.854-1.025-9.049c-0.428-1.42-1.353-6.943-0.501-10.698
			c5.487-24.188-7.15-33.217-8.273-33.372c-1.911-0.271-14.268-1.986-14.008-0.296c0.116,0.757-1.898,25.024,14.097,35.244
			c4.187,2.675,7.055,8.457,6.729,8.295c-3.406-1.698-10.153-5.912-14.213-10.731c3.408,5.905,14.975,12.37,14.947,12.806
			c-0.16,2.602,0.639,7.218,0.639,7.218S236.723,266.997,237.155,268.306z"/>
	</g>
	<g>
		<path fill="#C48266" d="M236.634,300.606h16.617c0,0-1.385-10.715-4.5-14.982c-3.116-4.268-15.827-2.276-14.899,1.265
			C234.781,290.432,236.634,300.606,236.634,300.606z"/>
		<path fill="#403D65" d="M214.563,302.687c0,0,4.284,0,8.481-1.045c4.198-1.045,4.717-1.959,5.843-2.83
			c1.126-0.87,4.371-7.793,4.371-7.793s3.159-2.177,5.972,0.696c2.813,2.875,1.471,3.396,2.509,5.616
			c1.038,2.221,2.641,3.962,4.285,4.44c1.645,0.48,4.449,0.071,6.708-1.696c1.815-1.421-2.338-1.001-1.905-2.396
			c0.435-1.394,4.674,0.609,5.021,1.872c0.347,1.264,0,4.18,0,4.18s-10.284,6.387-20.686,7.725
			c-10.398,1.337-12.225-1.247-12.225-1.247s2.341-3.411-0.281-5.693C220.032,302.233,214.563,302.687,214.563,302.687z"/>
		<ellipse fill="#888788" cx="240.443" cy="299.28" rx="1.644" ry="1.654"/>
		<path fill="#888788" d="M205.519,314.05c0,0,7.751,2.396,13.157,2.874c5.409,0.477,8.121,0.586,14.611-0.261
			C246.791,314.899,255,307.78,255,307.78s0-1.566,0-3.918c-10,6.029-18.631,7.968-25.406,7.968c-3.705,0-6.867-1.72-6.867-1.72
			s2.465-3.351,0.041-5.269c-2.105-1.665-5.131-2.349-7.294-2.352c-4.662-0.005-7.188,1.33-8.994,4.245
			C204.67,309.651,205.519,314.05,205.519,314.05z"/>
		<path opacity="0.5" d="M205.519,314.05c0,0,7.751,2.396,13.157,2.874c5.409,0.477,8.121,0.586,14.611-0.261
			C246.791,314.899,255,307.78,255,307.78s0,0.784,0-1.566c-10,6.027-18.59,7.51-25.363,7.51c-0.844,0-1.764,0.007-3.145-0.029
			c-0.083-0.002-0.134-1.633-0.22-1.636c-0.174-0.005-0.221,1.618-0.402,1.61c-0.923-0.032-2.104-0.102-3.212-0.188
			c-0.189-0.016-0.123-1.713-0.318-1.729c-0.196-0.017-0.343,1.761-0.543,1.742c-0.897-0.085-2.133-0.319-3.126-0.454
			c-0.193-0.026-0.117-1.674-0.312-1.7c-0.153-0.022-0.229,1.624-0.383,1.602c-0.733-0.111-1.952-0.219-2.731-0.361
			c-0.146-0.027,0.211-1.769,0.065-1.796c-0.173-0.032-0.545,1.606-0.722,1.571c-0.916-0.181-1.86-0.386-2.828-0.618
			c-0.213-0.05-0.064-1.794-0.281-1.847c-0.111-0.028-0.583,1.635-0.696,1.606c-0.667-0.169-1.73-0.354-2.419-0.55
			c-0.25-0.07,0.285-1.754,0.032-1.829c-0.167-0.05-0.569,1.565-0.738,1.515c-0.708-0.216-1.597-0.497-2.327-0.742
			C204.762,313.097,205.519,314.05,205.519,314.05z"/>
		<path opacity="0.5" d="M206.603,306.593c0,0,2.811,0,7.099,1.007c4.458,1.047,9.236,2.511,9.236,2.511l2.51,0.975
			c0,0-9.791-2.648-11.831-3.078c-4.269-0.899-7.247-1.043-7.247-1.043L206.603,306.593z"/>
		<ellipse fill="#888788" cx="239.403" cy="302.938" rx="1.645" ry="1.654"/>
		<ellipse fill="#888788" cx="236.807" cy="305.55" rx="1.645" ry="1.655"/>
		<path fill="#C1C1C1" d="M225.155,301.159c0,0,4.159,1.268,6.412,2.355s3.361,2.007,4.344,2.614
			c0.981,0.607,2.072-1.101,0.906-1.88c-1.166-0.778-2.015-1.401-4.476-2.679c-2.458-1.278-5.493-2.068-6.433-1.62
			C224.968,300.399,225.155,301.159,225.155,301.159z"/>
		<path fill="#C1C1C1" d="M227.676,299.443c0,0,4.226,1.019,6.538,1.971c2.313,0.954,3.472,1.805,4.488,2.354
			c1.017,0.547,2.004-1.223,0.795-1.932c-1.208-0.709-2.094-1.279-4.624-2.409c-2.529-1.128-5.604-1.739-6.517-1.235
			S227.676,299.443,227.676,299.443z"/>
		<path fill="#C1C1C1" d="M229.128,297.837c0,0,4.178,0.309,6.521,0.866s3.569,1.205,4.617,1.577
			c1.048,0.373,1.743-1.532,0.488-2.031c-1.254-0.499-2.181-0.916-4.755-1.611c-2.575-0.695-5.597-0.79-6.398-0.145
			C228.8,297.14,229.128,297.837,229.128,297.837z"/>
	</g>
	<path fill="#4D4D4D" d="M226.354,287.757c5.749,3.172,10.458,4.806,18.292,5.236c7.834,0.429,14.488-1.048,15.13-4.143
		c1.015-7.634-4.476-4.253-1.659-7.258c2.815-3.005,3.896-4.578,2.103-7.324c-1.791-2.744-4.761-6.929-8.123-12.454
		c-3.364-5.523,2.671-30.443,4.259-35.052c1.587-4.607-5.185-9.49-21.824-10.998c-16.644-1.507-25.359,0.973-24.079,6.575
		c1.281,5.603,5.544,24.262,7.182,31.359c1.64,7.098,9.776,20.963,9.776,20.963S220.604,284.585,226.354,287.757z"/>
	<path opacity="0.5" fill="#1A1A1A" d="M226.354,287.757c14.856,3.407,21.602,2.091,28.854,0.689
		c-20.33,1.281-28.909-1.686-28.607-3.288c0.202-1.085,0.368-2.507,1.377-4.189c0.75-1.251,16.888,7.137,26.435,4.273
		c-0.109-1.271,7.651-10.569,1.693-4.224c-0.188,0.2-3.91,4.27-4.18,4.267c-12.7-0.157-21.671-6.326-24.862-15.292
		c-0.131-0.365,5.296,6.879,11.742,8.976c5.539,1.798,10.616-0.289,12.117-1.825c-3,0.891-6.862,3.125-12.298,0.612
		c-7.114-3.288-13.439-12.222-14.034-14.566c-1.718-6.762-4.686-13.126-6.002-20.282c-2.32-12.608,10.504-28.747,4.688-27.526
		c-9.759,2.046-14.105,1.356-12.825,6.959c1.281,5.603,5.544,24.262,7.182,31.359c1.64,7.098,9.776,20.963,9.776,20.963
		S220.604,284.585,226.354,287.757z"/>
	<path opacity="0.5" fill="#1A1A1A" d="M252.801,275.191c0.435,1.311-2.197,6.211-2.197,6.211s5.742-6.173,5.177-8.027
		c-0.401-1.32-4.555-3.068-6.911-3.962c-0.369-0.141-0.371-6.854-1.025-9.049c-0.428-1.42-1.353-6.943-0.501-10.698
		c5.487-24.188-7.149-33.217-8.273-33.373c-1.911-0.27-14.268-1.985-14.008-0.296c0.117,0.758-1.898,25.025,14.098,35.245
		c4.187,2.675,7.055,8.457,6.729,8.295c-3.406-1.698-10.152-5.912-14.213-10.731c3.408,5.904,14.976,12.37,14.947,12.806
		c-0.159,2.602,0.64,7.218,0.64,7.218S252.368,273.883,252.801,275.191z"/>
	<path fill="#666666" d="M174.809,221.396c0,0,8.102,2.888,14.72,2.888c6.611,0,14.54-4.115,14.54-4.115l0.903-8.675
		c-14.206,8.56-30.64,0.314-31.684-1.125C173.287,210.896,174.809,221.396,174.809,221.396z"/>
	<path fill="#333333" d="M173.123,210.37c0.168,0.311,1.877,1.491,2.877,2.228v9.298l1,0.163v-9.204c0,0.425,1,0.86,3,1.276v8.784
		v0.125v-8.727c2,0.505,3.506,0.961,5.373,1.281l-0.771,8.285l0.705,0.09l0.929-8.27c1.457,0.226,3.006,0.362,4.594,0.372
		l-1.028,4.758c0.225-0.331,0.199-0.661,0.199-1.082v-0.151c0,0,0.515-0.005,0.519-0.005l0.686-3.254
		c0.184,0,0.606,0.269,0.794,0.269h0.006c0.062,0-0.375-0.368-0.317-0.368c-0.058,0-0.687-0.355-0.687-0.36v-0.005l0.614-0.005
		c0-0.005,0.258-0.005,0.268-0.017c0.009,0,0.151-0.005,0.161-0.01c0.011-0.006,0.077-0.011,0.077-0.016
		c0.011-0.026,0.073-0.053,0.079-0.089c0.003-0.032,0.041-0.063,0.041-0.102c0.004-0.036,0.022-0.066,0.028-0.104
		c0-0.005,0.009-0.01,0.009-0.015c0.005-0.032,0.013-0.063,0.018-0.095c0-0.048,0.006-0.089,0.012-0.138
		c0.004-0.015,0.01-0.025,0.01-0.031c-0.726,0.059-1.56,0.095-2.331,0.106C183.648,215.448,173.426,210.501,173.123,210.37z"/>
	<path fill="#666666" d="M172.427,209.261c0.678,1.472,16.555,11.003,31.28,3.06c3.876-2.092,5.692-8.447,3.307-9.861
		c1.904-0.673,3.208-1.258,3.601-1.673c13.874-14.651-3.125-77.317-4.992-80.529c-6.068-10.436-12.942-16.867-17.028-10.698
		c-2.408,3.638-4.774,29.034-8.538,41.845C174.053,171.842,168.038,199.717,172.427,209.261z"/>
	<path fill="#333333" d="M192.25,215.526c-0.877,1.418-3.925,8.17-2.719,8.758c6.894-0.063,14.618-4.132,14.618-4.132l0.866-8.249
		c2.934-2.641,4.097-7.681,2-8.92c1.904-0.672,3.21-1.256,3.6-1.671c13.877-14.654-3.126-77.32-4.994-80.528
		c-6.065-10.438-4.134,28.411-7.364,41.37C193.512,181.187,182.667,211.651,192.25,215.526z M191.028,219.616l-0.017,0.1v0.011
		c-0.005,0.006-0.005,0.011-0.015,0.016l0.015-0.104c0.005-0.006,0.005-0.012,0.012-0.017
		C191.028,219.622,191.028,219.616,191.028,219.616z"/>
	<path fill="#AF7B69" d="M204.879,212.396v0.006c0.046-0.026,0.098-0.053,0.146-0.083l-0.038-0.568l-0.005-0.053l-0.011-0.104
		v-0.074c-0.005,0-0.005,0.006-0.005,0.006v0.068L204.879,212.396z"/>
	<path fill="#AF7B69" d="M204.879,212.396v0.006c0.046-0.026,0.098-0.053,0.146-0.083l-0.038-0.568l-0.005-0.053l-0.011-0.104
		v-0.074c-0.005,0-0.005,0.006-0.005,0.006v0.068L204.879,212.396z"/>
	<path fill="#AF7B69" d="M205.034,212.203v0.188c0,0,0-0.005,0.005-0.005c0-0.006,0-0.006,0.006-0.011
		c0-0.005,0.006-0.01,0.011-0.016c0.01-0.011,0.021-0.021,0.037-0.031c0.005-0.006,0.005-0.006,0.01-0.01l-0.063-0.311v0.031
		L205.034,212.203z"/>
	<path fill="#AF7B69" d="M204.879,212.396v0.006c0.046-0.026,0.098-0.053,0.146-0.083l-0.038-0.568l0.046,0.227v0.005l0.005,0.016
		v-0.221l0.006-0.183c-0.006-0.005-0.011-0.005-0.015-0.005s-0.004,0-0.01,0.005h-0.006v-0.005h-0.047v0.005L204.879,212.396z"/>
	<path fill="#AF7B69" d="M205.034,212.203v0.188c0,0,0-0.005,0.005-0.005c0-0.006,0-0.006,0.006-0.011
		c0-0.005,0.006-0.01,0.011-0.016c0.01-0.011,0.021-0.021,0.037-0.031c0.005-0.006,0.005-0.006,0.01-0.01l-0.063-0.311v0.031
		L205.034,212.203z"/>
	<path fill="#AF7B69" d="M204.879,212.396v0.006c0.046-0.026,0.098-0.053,0.146-0.083l-0.038-0.568l0.046,0.227v0.005l0.005,0.016
		v-0.221l0.006-0.183v-0.005h-0.068l-0.005,0.005h-0.005L204.879,212.396z"/>
	<path fill="#AF7B69" d="M205.034,212.203v0.188c0,0,0-0.005,0.005-0.005c0-0.006,0-0.006,0.006-0.011
		c0-0.005,0.006-0.01,0.011-0.016c0.01-0.011,0.021-0.021,0.037-0.031c0.005-0.006,0.005-0.006,0.01-0.01l-0.063-0.357v0.078
		L205.034,212.203z"/>
	<path fill="#AF7B69" d="M204.977,211.563l0.057,0.346v0.006l0.005,0.021v-0.158l0.006-0.235c-0.006,0.006-0.015,0.006-0.031,0.01
		C205.004,211.557,204.994,211.557,204.977,211.563z"/>
	<path fill="#AF7B69" d="M204.879,212.396v0.006c0.046-0.026,0.098-0.053,0.146-0.083l-0.038-0.568l-0.005-0.053l-0.011-0.104
		v-0.032c0,0,0,0-0.005,0.005v0.027L204.879,212.396z"/>
	<path fill="#AF7B69" d="M205.034,212.203v0.188c0,0,0-0.005,0.005-0.005c0-0.006,0-0.006,0.006-0.011
		c0-0.005,0.006-0.01,0.011-0.016c0.01-0.011,0.021-0.021,0.037-0.031c0.005-0.006,0.005-0.006,0.01-0.01l-0.063-0.357v0.078
		L205.034,212.203z"/>
	<path fill="#AF7B69" d="M204.972,211.53v0.006l0.005,0.026l0.057,0.346v0.006l0.005,0.021v-0.158l0.006-0.235v-0.012h-0.031v-0.004
		C205.004,211.526,204.988,211.53,204.972,211.53z"/>
	<path fill="#AF7B69" d="M204.879,212.396v0.006c0.046-0.026,0.098-0.053,0.146-0.083l-0.038-0.568l-0.005-0.053l-0.011-0.104
		v-0.059c0,0,0,0-0.005,0.006v0.053L204.879,212.396z"/>
	<path fill="#666666" d="M201.946,219.297c0,0,21.263,2.765,27.88,2.765c14.438,0,28.788-4.734,28.788-4.734l0.463-8.918
		c-5.57,3.36-17.718,4.258-28.85,4.258c-20.843,0-21.453-4.272-30.519-4.272C199.709,208.92,201.946,219.297,201.946,219.297z"/>
	<path fill="#AF7B69" d="M243.18,220.729l0.663-0.088C243.617,220.672,243.399,220.703,243.18,220.729z"/>
	<path fill="#AF7B69" d="M239.767,221.345l0.517,0.031l0.016-0.268c-0.178,0.021-0.349,0.041-0.522,0.063l-0.006,0.057
		L239.767,221.345z"/>
	<path fill="#AF7B69" d="M236.124,221.597v0.041l0.35,0.021l0.172,0.01v-0.01l0.005-0.12h-0.005
		C236.469,221.56,236.296,221.58,236.124,221.597z"/>
	<path fill="#AF7B69" d="M231.927,222.001l0.188,0.011l0.053,0.005l0.157,0.01h0.063l0.063,0.006l0.004-0.09v-0.031
		c-0.066,0.005-0.135,0.01-0.203,0.01c-0.104,0.011-0.208,0.017-0.318,0.021v0.012L231.927,222.001z"/>
	<polygon fill="#AF7B69" points="228.456,222.059 228.509,222.063 228.521,222.063 228.797,222.08 228.797,222.059 	"/>
	<path fill="#AF7B69" d="M216.814,221.103v0.012l0.131,0.005C216.898,221.114,216.855,221.108,216.814,221.103z"/>
	<path fill="#666666" d="M263.486,116.123c-1.334-2.386-17.61-29.599-19.963-27.126c-4.958,5.205-15.775,22.401-36.599,37.365
		c-2.417,1.737-15.982-6.125-16.33-30.102c-2.773,7.25-4.86,15.349-4.531,22.311c0.674,14.215,10.806,23.3,11.535,27.744
		c2.363,14.427,4.418,19.122,0.722,25.204c-3.44,5.658-4.256,36.595,1.388,36.878c6.195,0.31,7.482,2.112,12.763,3.026
		c12.142,2.1,17.547,0.968,30.683,0.711c36.247-0.711,30.896-35.277,31.029-42.453C274.268,165.197,265.454,119.647,263.486,116.123
		z"/>
	<path fill="#666666" d="M204.571,126.099c15.772,3.087,31.453-36.702,43.609-37.102c10.85-0.361,20.525,2.71,34.834-1.875
		c8.764-2.803-13.438-16.875-32.402-16.287c-10.985,0.341-30.405,2.914-37.487,4.6c-6.283,1.495-22.378,14.879-22.53,20.823
		C190.161,113.681,199.732,125.153,204.571,126.099z M203.642,100.37c-0.031-8.363,5.282-17.453,11.564-18.949
		c7.082-1.686,27.958-4.458,38.887-3.277c15.786,1.702,20.488,4.169,11.298,3.849c-18.787-0.656-19.217-2.299-31.188,2.189
		c-11.398,4.27-21.689,33.342-29.194,29.226C202.833,112.215,203.694,113.417,203.642,100.37z"/>
	<path fill="#666666" d="M266.604,128.324c7.345,29.035,10.39,2.559,13.563-8.761c1.058-3.773,2.356-7.477,4.306-9.983
		c5.283-6.788,5.238-15.117,0.513-23.387c-1.276,0.656-3.98,2.311-8.844,2.803c-14.729,1.487-33.229-2.508-31.051,2.689
		C247.271,96.882,262.645,112.669,266.604,128.324z"/>
	<path fill="#333333" d="M197.797,101.42c0.052,13.047,5.036,10.795,7.212,11.988c7.505,4.116,17.796-24.957,29.194-29.226
		c11.971-4.488,12.4-2.846,31.188-2.189c9.19,0.32,4.488-2.147-11.298-3.849c-10.929-1.181-31.805,1.591-38.887,3.277
		c-1.451,0.347-4.144,2.147-4.144,2.147S197.765,93.062,197.797,101.42z"/>
	<path fill="#E7B28D" d="M204.991,95.692c-0.624,2.665-2.646,16.52,0.541,17.718c6.984,2.625,24.379-23.845,24.379-27.567
		c0-3.721-10.114-5.957-14.184-4.42C211.555,82.998,205.91,91.756,204.991,95.692z"/>
	<path fill="#E7B28D" d="M199.823,90.962c2.664,2.583,9.681,9.961,12.866,11.158c6.984,2.625,6.213-7.335,5.742-11.026
		c-0.819-6.389-3.084-11.505-6.147-14.612C207.446,71.579,193.814,85.144,199.823,90.962z"/>
	<path fill="#333333" d="M194.556,115.928c3.069,6.096,7.146,9.777,9.801,10.296c15.771,3.088,31.454-36.701,43.608-37.1
		c10.85-0.362,20.526,2.709,34.836-1.875c3.011-0.961,2.365-3.255-0.543-5.822c-0.141,0.719-0.762,1.297-1.936,1.675
		c-14.311,4.583-23.985,1.513-34.836,1.875c-12.154,0.398-27.838,40.188-43.608,37.101
		C199.895,121.687,197.119,119.534,194.556,115.928z"/>
	<path opacity="0.3" d="M199.822,90.96c1.126,1.093,3.037,3.045,5.104,5.026c0.021-0.111,0.041-0.209,0.062-0.295
		c0.919-3.927,6.435-12.916,10.699-14.255c-0.96-1.974-2.113-3.644-3.403-4.952C207.446,71.581,193.814,85.144,199.822,90.96z"/>
	<path opacity="0.3" d="M205.531,113.408c6.983,2.625,13.188-12.423,13.188-16.146c0-3.723,0.495-16.897-2.991-15.841
		c-0.017,0.005-0.026,0.01-0.042,0.015c-4.264,1.339-9.78,10.328-10.699,14.255c-0.021,0.086-0.041,0.185-0.062,0.295
		C204.242,99.242,202.452,112.247,205.531,113.408z"/>
	<path fill="#E7B28D" d="M163.98,64.668c0,4.821-5.667,13.64,1.043,16.976c9.286,4.614,8.568,15.051,22.007,14
		c8.407-0.657,14.016-5.137,19.049-11.551c3.998-5.095,8.35-11.257,8.35-18.64c0-16.674-12.266-30.191-27.398-30.191
		c-12.625,0-23.257,9.41-26.432,22.213C159.969,60.017,163.98,61.906,163.98,64.668z"/>
	<line fill="none" x1="185.726" y1="61.516" x2="185.726" y2="61.516"/>
	<path fill="none" d="M207.995,60.602c0,0-0.068,0.005-0.198,0.015"/>
	<path fill="#FFFFFF" d="M185.893,61.631c0.83,3.371,4.947,5.929,9.749,5.929c5.178,0,9.541-2.977,9.89-6.736
		c-3.648,0.267-8.45,0.677-10.193,0.755C193.084,61.678,187.38,61.642,185.893,61.631z"/>
	<ellipse fill="#0071B1" cx="196.032" cy="60.687" rx="3.849" ry="3.767"/>
	<ellipse cx="196.196" cy="60.563" rx="1.403" ry="1.412"/>
	<path fill="#C48266" d="M185.552,61.269c0.01,0.085,0.02,0.164,0.038,0.247c0,0,6.727,0.109,8.863,0.005
		c1.611-0.079,6.345-0.461,9.298-0.729c0.805-0.068,1.473-0.121,1.916-0.153c0.163-0.017,0.293-0.027,0.39-0.037
		c-0.081-0.185-0.179-0.352-0.298-0.53c-0.073-0.11-0.145-0.22-0.217-0.336c-1.964-3.008-4.355-7.346-7.929-8.768
		c-0.76-0.305-1.569-0.479-2.439-0.479c-2.123,0-4.695,0.447-6.419,1.407C186.144,53.356,185.513,60.964,185.552,61.269z"/>
	<path d="M185.783,60.606c0.02,0,0.042,0.785,0.073,0.922c0.706,3.429,4.539,6.3,9.011,6.3c4.793,0,8.827-2.876,9.115-6.663
		c0.015-0.146,0.018-0.303,0.018-0.449v-0.11h-0.021c-0.322,3-4.342,6.333-9.111,6.333c-4.425,0-8.219-2.333-8.983-6.333H185.783z"
		/>
	<path fill="#C48266" d="M185.533,61.91c0,6.165,6.153,11.016,11.734,11.016c5.576,0,8.468-4.851,8.468-11.016
		c0-0.431-0.024-0.856-0.067-1.271c-0.399,0.026-0.987-0.034-1.694,0.023c0,0.016-0.005-0.056-0.005-0.056H204v0.126
		c0,0.146-0.008,0.353-0.023,0.499c-0.288,3.786-4.325,6.821-9.123,6.821c-4.474,0-8.31-3.111-9.017-6.54
		c-0.028-0.138-0.054-0.906-0.073-0.906h0.102c-0.015,0-0.019,0-0.03,0h-0.246c-0.019,0-0.028,0.292-0.038,0.208
		C185.538,61.025,185.533,61.693,185.533,61.91z"/>
	<path fill="#B6272D" d="M174.896,83.306c0,0,1.545-0.23,4.741-0.788c0.79-0.138,0.771,0.283,2.337,0.283
		c0.594,0,2.309-0.348,2.926-0.283c3.812,0.397,6.305,0.875,6.305,0.875l0.783-0.35c0,0-4.389-1.831-8.651-2.074
		c-0.306-0.018-0.7,0.393-1.002,0.393c-0.326,0-0.558-0.408-0.873-0.387c-4.069,0.262-7.218,2.068-7.218,2.068L174.896,83.306z"/>
	<path fill="#603813" d="M182.421,50.489c0,0,3.106-1.529,7.81-1.481C199.538,49.101,205,52.944,205,52.944v-4.64
		c0,0-4.246-6.736-14.421-6.736c-6.523,0-9.298,2.095-9.298,2.095L182.421,50.489z"/>
	<path fill="#603813" d="M172.852,51.683c0,0-4.144,0.812-6.294,1.7c-2.747,1.137-4.558,3.763-4.558,3.763v-4.414
		c0,0,1.513-3.987,4.817-5.475c2.962-1.333,5.319-1.038,5.319-1.038L172.852,51.683z"/>
	<line fill="none" x1="177.897" y1="60.466" x2="177.897" y2="60.466"/>
	<ellipse fill="#0071B1" cx="172.026" cy="60.687" rx="3.849" ry="3.767"/>
	<ellipse cx="172.189" cy="60.563" rx="1.403" ry="1.412"/>
	<path fill="#FFFFFF" d="M164.413,63.574c-0.021,0.016-0.042,0.032-0.057,0.048c0.297,2.599,3.031,3.927,6.455,3.927
		c3.627,0,6.357-2.374,6.357-5.288c0-0.194-0.167-0.22-0.167-0.503v-0.017c0-0.079,0.188-0.151,0.167-0.226
		c-1.373-0.052-4.504-0.099-6.618,0.226c-2.531,0.389-5.599,1.407-6.178,1.822C164.365,63.563,164.417,63.569,164.413,63.574z"/>
	<path fill="#FFFFFF" d="M164.329,63.673c0,0.074,0,0.147,0.005,0.215c0.005-0.089,0.01-0.173,0.01-0.257
		C164.334,63.647,164.329,63.663,164.329,63.673z"/>
	<path opacity="0.3" d="M164.148,81.13c3.072,1.585,4.882,3.106,6.729,5.235c3.588,4.135,5.266,9.059,13.609,9.411
		c8.617,0.361,15.729-3.823,21.593-11.159c3.923-4.908,8.35-11.167,8.35-18.64c-9.395,21.266-22.447,23.888-30.919,24.535
		c-8.19,0.626-9.073-2.669-15.276-7.484c1.917,0.08,3.684-1.362,3.684-1.362S169.449,83.848,164.148,81.13z"/>
	<path d="M164.334,63.889c0.005,0.074,0.005,0.142,0.016,0.21c0.265,2.635,3.016,3.985,6.46,3.985c3.627,0,6.566-2.363,6.566-5.277
		c0-0.241,0.041-0.488,0.051-0.729c0.006-0.111,0.006-0.215-0.011-0.32c-0.015,0.283-0.041,0.31-0.041,0.503
		c0,2.914-2.939,5.288-6.566,5.288c-3.423,0-6.158-1.329-6.455-3.927c0,0.005-0.006,0.01-0.012,0.01
		C164.344,63.716,164.339,63.799,164.334,63.889z"/>
	<path fill="#9B7C52" d="M164.344,63.631c0.006,0,0.012-0.005,0.012-0.01c0-0.016-0.006-0.038-0.006-0.053
		C164.35,63.59,164.35,63.611,164.344,63.631z"/>
	<path fill="#C48266" d="M164.329,64.204c0,4.101,0.104,7.157,3.852,7.157c3.741,0,9.717-3.526,9.717-7.632
		c0-0.936-0.156-1.122-0.449-3.122h-0.021c0,0-0.428,1.077-0.428,1.135v0.017c0,0.104,0.225,0.208,0.219,0.32
		c-0.012,0.241,0.053,0.488,0.053,0.729c0,2.914-2.886,5.277-6.515,5.277c-3.443,0-6.168-1.35-6.433-3.985
		c-0.011-0.068,0.004-0.136-0.001-0.21C164.317,63.994,164.329,64.099,164.329,64.204z"/>
	<ellipse fill="#E7B28D" cx="177.896" cy="72.546" rx="6.002" ry="4.463"/>
	<polygon fill="#9B7C52" points="181.812,86.707 184.551,84.606 179.397,84.606 	"/>
	<path fill="#9B7C52" d="M175.875,79.375c2.935,0.007,7.241-4.142,6.099-3.289c-0.645,0.481-5.643,1.589-7.73-0.001
		C173.335,75.393,172.783,79.367,175.875,79.375z"/>
	<path fill="#754C24" d="M201.121,52.946c-0.02,0.008,0.005-0.583-0.107-0.665c-3.241-2.338-6.046-1.647-8.333-1.508
		c-4.512,0.275-6.789,3.61-7.086,10.743c-0.006,0.147,0.636-0.039,0.636-0.039c0.104-3.695,1.699-7.886,6.649-9.412
		C196.125,51.064,201.121,52.946,201.121,52.946z"/>
	<path fill="#754C24" d="M190.939,49.7c-6.222,0.061-9.694,0.871-7.986,16.025c0.034,0.3,0.106,0.585,0.106,0.585l0.029-0.006
		c-1.256-7.426,2.295-14.357,8.061-15.666C196.496,49.422,196.479,49.645,190.939,49.7z"/>
	<path fill="#754C24" d="M172.736,51.854c4.413-0.588,6.535,0.775,5.161,15.919c-0.028,0.299-1.838,0.523-1.838,0.523l1.371-1.858
		c1.379-8.208-1.274-13.237-6.318-13.494C167.285,52.749,168.807,52.375,172.736,51.854z"/>
	<path fill="#9B7C52" d="M171.895,72.546c0,2.464,3.98,5.681,7.871,4.176c3.093-1.197-5.739-1.559-5.739-4.024
		C174.026,70.233,171.895,70.082,171.895,72.546z"/>
	<path fill="#E7B28D" d="M214.429,70.445c-1.275,4.441,0.969,7.228,3.133,7.228c2.16,0,6.469-1.703,10.088-6.313
		c1.88-2.395,8.698-13.129-2-16.933C214.415,57.935,214.429,65.454,214.429,70.445z"/>
	<path opacity="0.3" d="M217.901,67.987c-0.781,2.725,0.269,5.952,0.269,5.952s5.625-2.562,7.845-5.391
		c1.153-1.47,3.73-9.866-1.06-9.746C220.162,58.923,217.901,64.923,217.901,67.987z"/>
	<ellipse fill="#0071B1" cx="170.461" cy="61.738" rx="3.849" ry="3.766"/>
	<ellipse cx="170.624" cy="61.615" rx="1.403" ry="1.41"/>
	<path fill="#C48266" d="M164.329,61.741c0,0.047,0.13,1.638,0.156,1.775c0,0,3.366-1.344,6.168-1.775
		c2.114-0.324,7.213-0.174,7.244-0.174c-0.266-4.263-2.693-8.621-6.262-8.621C167.888,52.946,164.329,57.173,164.329,61.741z"/>
	<path fill="#603813" d="M156.37,66.257l9.107-15.605l9.803-2.981c0,0,4.639-10.177,14.143-12.933
		c1.575,0.236,2.754,0.43,2.754,0.43l-2.016,3.639l2.349,0.525l7.307-1.182c0,0,14.48,8.682,15.134,25.516
		c4.436-8.433,11.221-9.764,11.221-9.764l3.262-12.858c0,0-2.479-4.854-1.826-5.58c3.456-1.382,6.914,6.888,6.914,6.888
		l-0.315-5.077c0,0-1.181-2.585-1.183-3.611c1.628,0.746,5.542,5.078,5.542,5.078s0.065-11.026-10.027-13.424
		c9.245-0.555,7.026-3.878,7.026-3.878s-12.59,2.798-14.416,0.107s3.805-10.345,3.805-10.345s-6.218,1.551-8.046,5.16
		c-3.696-6.736-10.307-12.511-10.307-12.511s-10.952,1.751-7.893,4.767c-6.001-2.667-17.07-3.979-17.07-3.979
		s2.609,1.05,6.431,4.334c-8.607-3.897-17.739-4.859-17.739-4.859s3.044,2.363,6.399,5.093c-5.343-0.851-25.015,0.684-25.015,0.684
		s4.785,0.438,16.354,1.747c-11.757,0.978-23.438,6.079-28.357,9.279c-0.671,0.436-2.609-6.563-2.609-6.563s1.131,9.187,1.131,9.188
		c0,0,4.174-2.538,15.657-5.21c-6.136,3.052-9.572,5.971-14.579,10.624c-2.042,1.898-4.472-13.814-4.602-11.801
		c-0.141,2.206,0,17.849,0,17.849s10.608-4.822,9.655-3.544c-3.131,4.2-10.804,12.32-10.804,12.32l14.166,11.234L156.37,66.257z"/>
	<path fill="#603813" d="M130.928,57.921c1.739,0.708,41.102-8.639,43.837-9.846c2.737-1.207,3.919-16.312,6.178-17.012
		c2.259-0.701,14.002,4.9,14.002,4.9l18.613-10.063c0,0-25.399-9.45-29.139-9.275c-3.739,0.174-29.399,2.361-31.834,3.412
		c-2.436,1.05-12.873,23.454-15.309,23.103c-2.435-0.35-15.396-11.901-15.309-13.213c0.088-1.313,10.776-3.887,12.13-3.825
		c1.353,0.062,3.266,9.162,3.266,9.162s2.529-9.157,1.482-10.661c-1.047-1.502-27.054-3.166-28.186-1.502
		C109.531,24.762,129.189,57.213,130.928,57.921z"/>
	<path fill="#9B7C52" d="M132.319,56.404c1.859,0.253,31.266-28.792,33.622-30.642c2.354-1.848,11.591-6.147,13.609-7.388
		c-4.292-1.338-20.648,4.191-24.21,5.141c-2.102,1.623-18.847,25.746-21.293,26.012c-2.447,0.266-17.32-21.109-17.558-22.403
		c-0.238-1.293,16.231-1.386,17.558-1.662c1.326-0.277,3.229,6.3,3.229,6.3s-0.181-5.629-1.565-6.826
		c-1.383-1.195-21.058-1.018-21.745,0.875C113.279,27.704,130.461,56.15,132.319,56.404z"/>
	<path fill="#754C24" d="M148.762,61.314c1.86,0.252,22.653-32.653,25.007-34.502c2.355-1.849,11.592-6.147,13.61-7.388
		c-4.293-1.337-20.649,4.192-24.21,5.14c-2.102,1.623-13.826,25.221-16.273,25.488c-2.446,0.266-6.587-10.05-6.825-11.344
		c-0.238-1.293,4.074-0.18,5.401-0.456c1.326-0.276,5.415,8.066,5.415,8.066s0.203-9.503-1.182-10.7
		c-1.383-1.195-20.17,0.825-20.858,2.717C128.159,40.229,146.902,61.061,148.762,61.314z"/>
	<path fill="#9B7C52" d="M174.063,58.964c1.868-0.188,8.322-26.032,10.184-28.382c0.512-0.646,2.127-1.288,4.328-1.871
		c0.45-0.119,6.739,2.292,9.545,3.051c0.675,0.183-5.403-3.314-4.564-3.302c3.179,0.048,7.069,0.349,9.479,1.026
		c1.749,0.491-5.03-2.515-3.217-2.712c3.479-0.375,6.745-0.541,8.828-0.393c-5.437-2.844-19.749-7.768-22.994-6.013
		c-1.669,2.07-16.231,3.038-19.148,23.034c-0.358,2.449-10.286-0.036-10.816-1.239c-0.531-1.202,4.01-2.534,5.366-2.68
		c1.346-0.145,3.796,2.519,3.796,2.519s1.116-4.257-0.507-5.095c-1.623-0.84-19.427,5.521-19.657,7.523
		C144.454,46.431,172.197,59.153,174.063,58.964z"/>
	<path fill="#754C24" d="M184.226,22.662c1.587-1.138,19.504,2.231,19.504,2.231l2.349,1.05c0,0-19.31-0.525-20.745,0.197
		c-1.436,0.723-9.698,29.557-11.96,30.191c-2.262,0.634-23.571-9.955-24.18-11.223c-0.61-1.269,4.435-3.539,4.435-3.539
		s-2,2.882-1.174,3.933c0.826,1.05,16.656,2.88,18.309,2.188C172.417,46.997,182.638,23.798,184.226,22.662z"/>
	<path fill="#754C24" d="M192.162,16.622l-12.612,1.174c0,0-19.099-0.364-21.446-0.385c-7.443-0.067-20.576,5.892-19.479,5.016
		c1.624-1.296,4.305-1.93,4.305-1.93s10.109-4.335,14.256-4.989C160.476,14.988,192.162,16.622,192.162,16.622z"/>
	<path fill="#9B7C52" d="M208.882,22.662l-12.328-1.797c0,0-18.89-5.814-21.185-6.31c-7.278-1.57-21.332,1.548-20.083,0.912
		c1.85-0.939,4.605-1.056,4.605-1.056s10.766-2.084,14.96-1.888C178.175,12.678,208.882,22.662,208.882,22.662z"/>
	<path fill="#754C24" d="M168.069,16.622l3.24,0.963l-19.68,5.777L137.8,31.937c0,0,10.035-9.497,13.367-10.594
		C153.806,20.472,168.069,16.622,168.069,16.622z"/>
	<path fill="#754C24" d="M159.479,9.971l17.045,1.932l26.507,8.805l-1.279-1.722l11.371,4.462l-2.724-3.365
		c0,0-21.355-8.605-23.986-9.499c-3.256-1.108-11.408-4.751-11.727-4.893l10.188,6.857c-3.601-1.218-6.628-2.237-7.52-2.542
		C174.03,8.883,159.479,9.971,159.479,9.971z"/>
	<polygon fill="#9B7C52" points="214.58,22.426 187.379,7.61 206.601,14.873 206.054,5.691 	"/>
	<polygon fill="#9B7C52" points="214.951,24.762 216.32,22.557 212.535,12.863 217.905,20.004 221.654,13.969 219.212,22.808 
		228.955,24.236 	"/>
	<polygon fill="#754C24" points="220.752,25.093 236.435,32.679 229.051,31.189 232.046,35.521 226.613,33.087 227.649,40.266 	"/>
	<polygon fill="#9B7C52" points="210.341,29.75 212.167,27.562 216.69,31.702 214.951,25.606 218.864,25.606 225.388,41.329 
		218.634,33.132 221.822,43.342 215.993,34.708 218.777,47.077 	"/>
	<polygon fill="#754C24" points="203.034,35 204.861,32.813 209.384,37.318 210.341,30.886 216.69,48.302 210.419,39.23 
		213.204,51.577 	"/>
	<path fill="#754C24" d="M208.859,80.943c0,0,3.742-1.926,6.44,2.364c1.186,1.886,2.719,9.318,2.719,9.318l0.52-0.607
		c0,0-0.813-5.779-2.222-9.695c-1.407-3.917-4.54-6.267-4.54-6.267L208.859,80.943z"/>
	<path fill="#754C24" d="M204.699,86.258c0,0-2.038,5.146,0.779,6.564c2.436,1.226,5.493-2.363,5.493-2.363l-0.63,2.691
		c0,0-2.71,4.754-5.831,2.457c-2.562-1.885-4.524-4.67-4.524-4.67L204.699,86.258z"/>
	<path d="M186,61.631c0,0,5.833-0.016,9.771-0.182c4.929-0.208,12.818-0.626,12.818-0.626s-1.43-0.138-2.017-0.26
		c-0.588-0.122-0.921-0.407-0.921-0.407s-7.366,0.625-9.872,0.667C193.274,60.865,186,60.99,186,60.99V61.631z"/>
	<path fill="#A8A8A8" d="M195.062,114.743c-0.455,1.759,0.182,3.447,1.425,3.771c1.244,0.326,2.621-0.835,3.076-2.595
		c0.455-1.757-0.184-3.447-1.426-3.772C196.893,111.822,195.516,112.984,195.062,114.743z"/>
	
		<ellipse transform="matrix(-0.9675 -0.2528 0.2528 -0.9675 358.2971 277.1115)" fill="#4D4D4D" cx="196.953" cy="115.535" rx="1.265" ry="1.788"/>
	<path fill="#A8A8A8" d="M209.188,118.739c0.545,1.991,2.191,3.271,3.679,2.859c1.489-0.413,2.254-2.361,1.709-4.353
		c-0.544-1.991-2.192-3.271-3.68-2.859C209.407,114.798,208.643,116.747,209.188,118.739z"/>
	<path fill="#4D4D4D" d="M210.159,118.808c0.297,1.082,1.193,1.778,2.002,1.555c0.81-0.225,1.225-1.284,0.928-2.366
		c-0.296-1.083-1.19-1.779-2-1.556C210.279,116.665,209.863,117.724,210.159,118.808z"/>
	<path fill="#333333" d="M263.486,115.597c-1.334-2.386-16.3-29.543-17.221-26.249c-1.075,3.851,15.307,14.17,22.748,60.376
		c1.055,6.548,4.059,29.088-6.679,57.155c14.375-8.495,12.1-28.475,11.85-37.727C274.063,164.672,265.454,119.123,263.486,115.597z"
		/>
	<path fill="#AF7B69" d="M239.771,221.229h0.006c0.174-0.021,0.345-0.099,0.522-0.12c-0.178,0.021-0.349,0.041-0.522,0.063
		L239.771,221.229z M236.124,221.597v0.041l0.35,0.021h0.172l0.005-0.12h-0.005C236.469,221.56,236.296,221.58,236.124,221.597z
		 M231.927,222.001l0.188,0.011l0.053,0.005l0.157,0.01l0.005-0.005c0.041-0.037,0.083-0.073,0.124-0.079v-0.031
		c-0.066,0.005-0.135,0.01-0.203,0.01c-0.104,0.011-0.208,0.017-0.318,0.021v0.012L231.927,222.001z M228.521,222.185h0.521v-0.104
		L228.521,222.185z M228.479,222.133l0.03-0.006l-0.053,0.058h0.059l0.006-0.121l0.276,0.017v-0.021h-0.276v-0.011l-0.006,0.011
		h-0.059l0.053,0.005l-0.114,0.047l0.025,0.027L228.479,222.133z"/>
	<path fill="#AF7B69" d="M228.479,222.133l0.03-0.006l-0.053,0.058h0.059l0.006-0.121v0.121h0.521v-0.104l-0.244-0.005v-0.017
		h-0.276v-0.011l-0.006,0.011h-0.059l0.053,0.005l-0.114,0.047l0.025,0.027L228.479,222.133z M231.927,222.001l0.188,0.011
		l0.053,0.005l0.157,0.01h0.057l-0.052-0.005l-0.157-0.01l-0.052-0.006l-0.073-0.005l0.125-0.047v-0.012
		c0-0.005,0.173-0.011,0.281-0.021c0.006,0.006,0.011,0,0.017,0c-0.006,0-0.011,0-0.017-0.005v-0.005
		c-0.066,0.005-0.135,0.01-0.203,0.01c-0.104,0.011-0.208,0.017-0.318,0.021v0.012L231.927,222.001z M236.124,221.597v0.041
		l0.35,0.021l-0.126-0.021v-0.041c0-0.017,0.121,0.063,0.298,0.063l0.005-0.12h-0.005
		C236.469,221.56,236.296,221.58,236.124,221.597z"/>
	<path fill="#AF7B69" d="M236.124,221.597v0.041l0.35,0.021l-0.126-0.021v-0.041c0-0.017,0.121,0.063,0.298,0.063l0.005-0.12h-0.005
		C236.469,221.56,236.296,221.58,236.124,221.597z M232.652,221.911c0.017,0,0.042,0,0.042,0.005v-0.005H232.652z M232.219,222.143
		l0.106,0.042h0.057c-0.026,0-0.072-0.047-0.1-0.047c-0.016,0-0.031,0-0.053,0.005C232.224,222.143,232.224,222.143,232.219,222.143
		z M231.927,222.001l0.188,0.011l0.006-0.006l0.052-0.052v-0.012c0-0.005,0.173-0.011,0.281-0.021c0.006,0.006,0.011,0,0.017,0
		c-0.006,0-0.011,0-0.017-0.005v-0.005c-0.066,0.005-0.135,0.01-0.203,0.01c-0.104,0.011-0.208,0.017-0.318,0.021v0.012
		L231.927,222.001z M228.479,222.133l0.03-0.006l-0.053,0.058h0.059l0.006-0.121v0.121h0.521v-0.104l-0.244-0.005v-0.017h-0.276
		v-0.011l-0.006,0.011h-0.059l0.053,0.005l-0.114,0.047l0.025,0.027L228.479,222.133z"/>
	<path fill="#AF7B69" d="M228.479,222.133l0.03-0.006l-0.053,0.058h0.059l0.006-0.121v0.121h0.521v-0.104l-0.244-0.005v-0.017
		h-0.276v-0.011l-0.006,0.011h-0.059l0.053,0.005l-0.114,0.047l0.025,0.027L228.479,222.133z M231.933,221.954l-0.006,0.047
		l0.188,0.011l0.053,0.005l0.005-0.005l-0.052-0.006l-0.073-0.005l0.125-0.047v-0.012c0-0.005,0.173-0.011,0.281-0.021
		c0.006,0.006,0.011,0,0.017,0c-0.006,0-0.011,0-0.017-0.005v-0.005c-0.066,0.005-0.135,0.01-0.203,0.01
		c-0.104,0.011-0.208,0.017-0.318,0.021V221.954z M232.694,221.911h-0.004c0.004,0.005,0.004,0.005,0.004,0.005V221.911z
		 M236.646,221.539c-0.177,0.021-0.35,0.041-0.521,0.058v0.041l0.35,0.021l-0.126-0.021v-0.041c0-0.017,0.121,0.063,0.298,0.063
		l0.005-0.12H236.646z"/>
	<path fill="#333333" d="M213.876,217.521c0.042,1.864,0.586,3.21,2.171,3.419c12.18,1.611,20.604,0.666,20.604,0.666h-0.005h0.005
		c1.012,0,9.905-1.354,11.371-1.549c4.667-0.615,7.328-0.896,10.595-2.744c-0.218-6.957,3.294-10.482,4.813-13.791
		c7.384-16.052,5.631-36.81,4.539-32.125c-1.267,5.455-1.424-36.974-2.577-32.348c-2.428,9.735-8.041-17.069-7.818-13.65
		c0.606,9.451-4.676,0.95-12.655,2.888c-13.354,3.241-18.485,17.328-18.485-6.616c-0.35,24.73-4.779,28.89-6.736,37.68
		c-2.339,10.502,0.709,11.309,0,15.751c-2.605,16.277-7.484,19.602-4.942,26.254c0.996,2.61,0.412,6.391-0.172,9.939
		c-0.053,0.305-0.101,0.604-0.152,0.898c-0.167,1.033-0.329,2.03-0.438,2.966L213.876,217.521z"/>
	<polygon fill="#AF7B69" points="228.456,222.059 228.509,222.063 228.521,222.063 228.797,222.08 228.797,222.059 228.521,222.059 
		228.521,222.048 228.515,222.059 	"/>
	<polygon fill="#AF7B69" points="228.395,222.11 228.42,222.138 228.456,222.185 228.479,222.133 228.509,222.063 	"/>
	<path fill="#AF7B69" d="M231.933,221.942v0.012c0.178-0.012,0.35-0.027,0.521-0.038v-0.005c-0.066,0.005-0.135,0.01-0.203,0.01
		C232.147,221.932,232.043,221.938,231.933,221.942z"/>
	<polygon fill="#AF7B69" points="228.515,222.059 228.521,222.059 228.521,222.048 	"/>
	<polygon fill="#AF7B69" points="228.395,222.11 228.42,222.138 228.456,222.185 228.479,222.133 228.509,222.063 	"/>
	<path fill="#AF7B69" d="M213.859,217.521l0.131-2.362C213.897,216.015,213.845,216.808,213.859,217.521z"/>
	<path fill="#333333" d="M197.363,145.444c1.844,15.135,4.592,19.438,0.878,25.506c-4.094,6.693-5.241,37.593,0.759,37.446v0.017
		c0,0.099,2.303,10.27,2.595,10.894c0.053,0.126-0.704-10.17-0.574-10.113c1.227,0.558,2.84,1.177,2.84,1.177l0.083,8.9l0.548,0.162
		l-0.013-9.063l2.52,0.609v8.784v0.127v-8.728c0,0,1.183,0.158,2.67,0.394l-0.323,8.507l0.602,0.03l0.519-8.457
		c0.876,0.136,1.958,0.294,3.158,0.455l-0.477,8.496l0.529,0.031l0.177-3.098l0.134-2.362l0.173-2.999l0.266,0.033
		c0.052-0.294-0.31-0.578-0.258-0.882c-6.08-1.156-10.171-3.787-15.171-3.829v-0.031c0-27.949,22.457-34.853-3.042-78.99
		c-4.238-7.351-6.966-3.14-7.31-27.12c-2.777,7.251-2.043,13.368-1.715,20.331C187.605,135.891,196.819,140.977,197.363,145.444z"/>
	<path fill="#333333" d="M194.556,115.928c3.069,6.096,7.146,9.777,9.801,10.296c15.771,3.088,31.454-36.701,43.608-37.1
		c10.85-0.362,20.526,2.709,34.836-1.875c3.011-0.961,3.93-1.155,1.023-3.723c-0.142,0.72-0.763,1.298-1.937,1.675
		c-14.311,4.584-23.731,1.769-34.582,2.131c-12.154,0.399-27.751,40.366-43.522,37.279
		C201.8,124.223,197.119,119.534,194.556,115.928z"/>
	<path fill="#333333" d="M229.545,141.472c0,0,2.673-9.796,15.371-12.056c12.697-2.26,13.93,6.853,13.93,6.853l0.465-2.163
		c0,0-1.13-8.858-14.395-7.711c-13.266,1.148-16.004,12.306-16.004,12.306L229.545,141.472z"/>
	<path fill="#333333" d="M233.361,101.341c0,0,3.654,2.897,7.423,10.751c3.326,6.932,4.132,14.302,4.132,14.302l2.392-0.126
		c0,0,0.424-5.864-3.197-14.176c-5.344-12.268-8.915-13.019-8.915-13.019L233.361,101.341z"/>
	<path fill="#333333" d="M266.604,128.324c6.127,29.319,10.39,2.559,13.563-8.761c0.857-5.198,0.195-19.062-10.109-2.267
		c-13.965-16.013-14.261-27.644-22.734-27.765C249.501,94.727,262.182,107.148,266.604,128.324z"/>
	<path fill="#E7B28D" d="M248,227.997v5.902c0,2.45-1.449,4.427-3.18,4.427c-0.832,0-1.678-0.463-2.187-1.229
		c-0.323,1.85-1.439,3.197-2.887,3.197c-0.881,0-1.635-0.492-2.152-1.299c-0.06-0.089-0.124-0.167-0.173-0.266
		c-0.519,1.505-1.689,2.548-3.107,2.548c-0.979,0-1.842-0.491-2.448-1.299c-0.4-0.53-0.705-1.189-0.853-1.938
		c-0.519,0.787-1.253,1.269-2.084,1.269c-0.841,0-1.582-0.491-2.1-1.299c-0.519-0.796-0.83-1.907-0.83-3.128v-5.902
		c0-1.948,1-3.591,2-4.19v-3.184h18v2.199c0,0.217,0.854,0.581,1.156,1.063C247.676,225.665,248,226.776,248,227.997z"/>
	<path fill="#666666" d="M221.822,222.445c0.757,1.432,17.135,10.064,31.399,1.313c3.755-2.303,5.219-8.751,2.762-10.029
		c1.862-0.778,3.132-1.435,3.502-1.872c13.047-15.401,0.824-76.399-2.001-78.802c-10.96-9.319-23.485,0.308-27.225,6.694
		c-2.205,3.766-0.948,11.502-4.001,24.501C221.387,184.993,216.914,213.161,221.822,222.445z"/>
	<path fill="#666666" d="M223.343,233.473c0,0,8.103,2.888,14.72,2.888c6.611,0,14.541-4.115,14.541-4.115l0.903-8.675
		c-14.206,8.56-30.641,0.314-31.685-1.125C221.822,222.972,223.343,233.473,223.343,233.473z"/>
	<path fill="#333333" d="M221.889,222.445c0.168,0.31,1.111,1.493,3.111,2.229v9.299l1,0.16v-9.202c0,0.425,1,0.861,2,1.276v8.784
		l1,0.128v-8.729c2,0.505,3.272,0.961,5.14,1.281l-0.888,8.284l0.649,0.094l0.898-8.272c1.457,0.226,2.992-0.015,4.58-0.006
		l-0.887,7.836h0.655l0.895-7.836c1.649-0.015,3.351,0.018,5.078-0.326l-0.842,7.891l0.675-0.141l0.84-7.722
		c1.377-0.305,2.761-0.716,4.139-1.277l-0.947,7.654l0.691-0.278l0.944-7.624l-0.053-0.004c1.003-0.44,2-0.95,2.992-1.548
		l-0.054-0.825c0,0-5.774,3.733-14.866,3.865C232.307,227.526,222.193,222.577,221.889,222.445z"/>
	<path fill="#333333" d="M249.743,217.521c1.471,0.665-10.786,14.988,3.479,6.237c3.755-2.303,5.219-8.751,2.762-10.029
		c1.862-0.778,3.132-1.435,3.502-1.872c13.047-15.401,0.824-76.399-2.001-78.802c0,0-2.523-2.933-7.859-3.72
		c-2.205,3.766,10.998,51.494,7.946,64.495C252.699,214.57,233.927,210.369,249.743,217.521z"/>
	<g>
		<path fill="#4D4D4D" d="M319,208.726c0,4.725-2.941,8.881-7.637,8.881H119.116c-4.696,0-8.116-4.156-8.116-8.881v-82.252
			c0-4.724,3.42-8.867,8.116-8.867h192.247c4.695,0,7.637,4.143,7.637,8.867V208.726z"/>
		<path fill="#4D4D4D" d="M343,196.559c0,3.867-1.922,6.048-4.044,6.048h-12.862c-2.122,0-6.094-2.181-6.094-6.048v-57.282
			c0-3.868,3.972-7.67,6.094-7.67h12.862c2.122,0,4.044,3.803,4.044,7.67V196.559z"/>
		<path fill="#009E92" d="M314,204.067c0,4.052-4.525,7.539-8.918,7.539H124.725c-4.396,0-7.725-3.487-7.725-7.539v-73.035
			c0-4.053,3.33-7.426,7.725-7.426h180.357c4.393,0,8.918,3.373,8.918,7.426V204.067z"/>
		<path fill="#C9145A" d="M144,204.067c0,4.052-4.58,7.539-8.973,7.539h-10.302c-4.396,0-7.725-3.487-7.725-7.539v-73.035
			c0-4.053,3.33-7.426,7.725-7.426h10.302c4.393,0,8.973,3.373,8.973,7.426V204.067z"/>
	</g>
</g>
</svg>
