<?xml version="1.0" encoding="utf-8"?>
<!-- Generator: Adobe Illustrator 16.0.0, SVG Export Plug-In . SVG Version: 6.00 Build 0)  -->
<!DOCTYPE svg PUBLIC "-//W3C//DTD SVG 1.1//EN" "http://www.w3.org/Graphics/SVG/1.1/DTD/svg11.dtd">
<svg version="1.1" id="Layer_1" xmlns="http://www.w3.org/2000/svg" xmlns:xlink="http://www.w3.org/1999/xlink" x="0px" y="0px"
	 width="426px" height="317.939px" viewBox="0 0 426 317.939" enable-background="new 0 0 426 317.939" xml:space="preserve">
<g>
	<g>
		<path fill="#90D0CA" stroke="#000000" stroke-width="5" stroke-miterlimit="10" d="M221.958,151.127
			c0.548,6.604-4.362,12.403-10.964,12.952L19.652,179.981c-6.604,0.551-12.402-4.358-12.952-10.964l-1.657-19.931
			c-0.549-6.605,4.361-12.404,10.965-12.953l191.342-15.904c6.604-0.549,12.402,4.359,12.95,10.966L221.958,151.127z"/>
		<path fill="#333333" d="M208.878,144.688c0.55,6.604-4.359,12.404-10.964,12.953l-2.989,0.247
			c-6.604,0.55-12.404-4.359-12.953-10.964l-0.413-4.983c-0.548-6.604,4.36-12.404,10.966-12.953l2.987-0.248
			c6.605-0.549,12.405,4.36,12.953,10.966L208.878,144.688z"/>
		<g>
			<path fill="#808080" d="M200.392,152.106c0,0-4.145-5.873-4.764-6.82l-3.367,7.496l-2.54,0.211l4.516-9.1l-5.736-8.043
				l2.568-0.213l4.486,6.586c0.397-1.057,3.313-7.234,3.313-7.234l2.54-0.211l-4.517,8.766l6.07,8.35L200.392,152.106z"/>
		</g>
		<path fill="#333333" d="M35.803,154.958c0.474,5.688-3.754,10.682-9.443,11.153c-5.687,0.472-10.68-3.755-11.15-9.441
			c-0.475-5.687,3.752-10.681,9.438-11.153C30.336,145.044,35.33,149.271,35.803,154.958z"/>
		<path fill="#333333" d="M130.816,147.163c0.272,3.301-2.182,6.201-5.482,6.475l-74.743,6.213c-3.303,0.274-6.202-2.18-6.476-5.482
			l0,0c-0.275-3.301,2.182-6.202,5.483-6.477l74.74-6.211C127.641,141.405,130.542,143.86,130.816,147.163L130.816,147.163z"/>
	</g>
	<g>
		<path fill="#E4AF9E" stroke="#000000" stroke-width="5" stroke-miterlimit="10" d="M421.152,172.834
			c-0.6,6.6-6.437,11.464-13.034,10.865l-191.214-17.366c-6.6-0.599-11.465-6.436-10.865-13.035l1.808-19.919
			c0.601-6.6,6.438-11.464,13.037-10.865l191.213,17.365c6.601,0.601,11.465,6.436,10.864,13.036L421.152,172.834z"/>
		<path fill="#333333" d="M409.382,164.233c-0.6,6.6-6.436,11.465-13.034,10.865l-2.988-0.271
			c-6.602-0.599-11.466-6.436-10.866-13.035l0.452-4.98c0.601-6.6,6.437-11.465,13.038-10.865l2.985,0.271
			c6.6,0.6,11.466,6.436,10.865,13.036L409.382,164.233z"/>
		<g>
			<path fill="#808080" d="M399.742,170.075c0,0-3.068-6.5-3.515-7.539l-4.612,6.801l-2.537-0.229l6.018-8.183l-4.262-8.914
				l2.566,0.233l3.283,7.262c0.572-0.972,4.513-6.554,4.513-6.554l2.538,0.23l-5.963,7.855l4.537,9.271L399.742,170.075z"/>
		</g>
		<path fill="#333333" d="M237.132,144.473c-0.516,5.683-5.542,9.873-11.227,9.356c-5.684-0.518-9.872-5.543-9.354-11.225
			c0.516-5.684,5.541-9.873,11.223-9.357C233.46,133.763,237.647,138.788,237.132,144.473z"/>
		<path fill="#333333" d="M332.065,153.195c-0.302,3.3-3.22,5.733-6.519,5.433l-74.694-6.783c-3.3-0.3-5.731-3.217-5.431-6.518l0,0
			c0.298-3.3,3.217-5.733,6.519-5.434l74.69,6.784C329.931,146.976,332.365,149.896,332.065,153.195L332.065,153.195z"/>
	</g>
	<g>
		<path fill="#E7B28D" d="M219.55,195.403c0.78,7.045,3.713,26.271,1.797,32.498c-4.202,13.654-18.332,0.91-23.351-4.096
			c-8.684-8.664-13.76-18.049-14.865-26.306C181.387,184.456,217.79,179.52,219.55,195.403z"/>
		<path opacity="0.3" d="M219.548,195.399c0.331,2.98,1.045,8.149,1.617,13.587c-0.191-0.097-0.366-0.181-0.518-0.247
			c-7-3.168-27.014-5.236-34.019-0.318c-1.856-3.752-3.029-7.442-3.494-10.92C181.389,184.458,217.79,179.52,219.548,195.399z"/>
		<path fill="#E7B28D" d="M222.048,208.562c4.751,2.15,28.021,15.178,26.104,21.405c-4.203,13.654-64.482,9.313-70.098,4.989
			c-5.616-4.324,2.833-22.279,9.909-26.673C195.218,203.779,215.032,205.384,222.048,208.562z"/>
		<path opacity="0.3" d="M248.15,229.966c-4.201,13.65-34.164,5.588-39.781,1.263s-26.078-18.878-20.411-22.944
			c0.027-0.019,0.047-0.027,0.073-0.046c7.004-4.917,27.018-2.85,34.019,0.319c0.151,0.066,0.326,0.15,0.518,0.247
			C228.278,211.55,249.998,223.941,248.15,229.966z"/>
		<path fill="#E7B28D" d="M223.168,110.249c7.276,5.602,27.208,7.244,24.396,21.31c-3.889,19.459,12.699,30.496-4.594,49.679
			c-10.819,12.002-24.136,15.313-39.699,15.5c-12.364,0.15-26.75-0.402-37.89-8.979c-25.163-19.373-31.222-53.703-13.533-76.677
			c14.758-19.169,41.386-24.377,64.417-14.323C220.838,98.755,218.999,107.04,223.168,110.249z"/>
		<line fill="none" x1="192.992" y1="139.603" x2="192.992" y2="139.603"/>
		<path fill="none" d="M165.839,172.069c-0.169,0.186-0.256,0.282-0.256,0.282"/>
		<path fill="#FFFFFF" d="M192.972,139.991c4.116,5.177,3.162,14.398-2.451,21.689c-6.051,7.859-15.644,11.025-21.726,7.188
			c0-6.199-3.857-16.512,4.33-23.342C176.445,142.757,190.135,137.886,192.972,139.991z"/>
		
			<ellipse transform="matrix(0.61 -0.7924 0.7924 0.61 -52.1815 202.5515)" fill="#0071B1" cx="179.693" cy="154.29" rx="7.375" ry="7.172"/>
		<circle cx="179.317" cy="154.395" r="2.688"/>
		<path fill="#C48266" d="M192.823,139.053c0.114,0.112,0.222,0.219,0.327,0.345c0,0-9.775-3.73-20.025,6.129
			c-10.776,10.853-1.91,20.41-2.476,21.047c-0.216,0.229-2.674,2.703-2.802,2.836c-0.182-0.336-0.323-0.678-0.452-1.068
			c-0.081-0.237-0.163-0.475-0.253-0.719c-2.246-6.477-5.996-15.145-3.965-22.226c0.428-1.508,1.112-2.937,2.131-4.259
			c2.479-3.221,6.162-6.61,9.625-8.109C180.19,130.758,192.409,138.64,192.823,139.053z"/>
		<path d="M192.925,139.69c-0.022,0.029,0.448,0.451,0.621,0.652c4.348,5.058,3.856,13.947-1.37,20.737
			c-5.604,7.278-14.824,9.923-20.874,5.962c-0.239-0.148-0.43-0.298-0.652-0.469l0.198,0.152l0.016-0.02
			c5.922,3.782,15.027,1.07,20.604-6.172c5.171-6.717,5.993-15.26,1.34-20.69L192.925,139.69z"/>
		<path fill="#C48266" d="M193.813,139.768c9.302,7.162,9.431,22.142,2.907,30.614c-6.519,8.467-17.22,7.221-26.522,0.059
			c-0.65-0.5-1.264-1.031-1.839-1.578c0.507-0.577,1.391-1.315,2.306-2.322c0.022,0.018,0.211,0.151,0.211,0.151l-0.027,0.034
			l-0.198-0.152c0.223,0.171,0.44,0.329,0.681,0.479c6.05,3.96,15.299,1.322,20.906-5.961c5.23-6.793,5.679-15.72,1.332-20.777
			c-0.173-0.202-0.643-0.623-0.621-0.652l-0.118,0.153c0.019-0.022,0.078,0.014,0.034-0.044l0.287-0.373
			c-0.105-0.126-0.213-0.232-0.327-0.345C193.157,139.274,193.487,139.518,193.813,139.768z"/>
		<path fill="#C65A63" d="M234.852,154.066c0,0,5.598,6.101,2.578,8.283c-0.746,0.54-0.1,1.013-1.166,2.399
			c-0.406,0.526-2.099,1.643-2.422,2.263c-2.002,3.837-9.98,1.603-9.98,1.603l-1.063,0.287c0,0,0.23-6.016,2.77-10.073
			c0.184-0.291,1.072-0.163,1.279-0.432c0.221-0.288-0.236-0.969,0.01-1.224c3.17-3.3,8.043-3.989,8.043-3.989L234.852,154.066z"/>
		<path fill="#603813" d="M180.216,121.774c0,0-6.57,3.76-11.998,10.955c-10.739,14.238-11.951,27.818-11.951,27.818l-7.004-5.393
			c0,0-4.572-15.089,7.324-30.54c7.626-9.905,14.345-12.093,14.345-12.093L180.216,121.774z"/>
		<path fill="#603813" d="M193.201,108.634c0,0,5.928-5.166,9.783-7.397c4.925-2.853,10.865-2.367,10.865-2.367l-6.66-5.127
			c0,0-7.645-2.52-13.753,0.769c-5.476,2.949-7.714,6.781-7.714,6.781L193.201,108.634z"/>
		<line fill="none" x1="200.559" y1="126.498" x2="200.559" y2="126.498"/>
		<circle cx="207.379" cy="117.946" r="2.688"/>
		<path fill="#FFFFFF" d="M221.013,109.635c0.048-0.014,0.097-0.026,0.138-0.032c3.575,3.472,2.383,9.167-1.619,14.365
			c-4.239,5.506-11.231,7.178-15.629,3.792c-0.294-0.226-0.356-0.224-0.785-0.554l-0.023-0.018
			c-0.119-0.092-0.229-0.178-0.316-0.295c-2.991-4.954-0.448-13.745,3.212-16.495c3.922-2.946,11.291-3.774,15.001-0.769
			C220.996,109.622,220.999,109.637,221.013,109.635z"/>
		<path fill="#FFFFFF" d="M221.261,109.624c0.11,0.086,0.222,0.171,0.319,0.258c-0.141-0.096-0.274-0.186-0.401-0.283
			C221.215,109.601,221.244,109.612,221.261,109.624z"/>
		<path opacity="0.3" d="M247.815,129.632c-1.198,6.507-1.021,11.022,0.034,16.3c2.046,10.251,7.517,18.521-1.707,31.596
			c-9.525,13.502-24.156,19.442-42.079,19.82c-11.992,0.254-26.612-0.297-37.89-8.979c43.072,10.445,62.288-6.326,73.168-18.438
			c10.52-11.708,6.576-16.88,6.564-31.891c-2.122,3.005-6.365,4.01-6.365,4.01S245.718,140.838,247.815,129.632z"/>
		<path d="M221.58,109.882c0.104,0.094,0.208,0.172,0.299,0.268c3.665,3.467,2.487,9.211-1.539,14.439
			c-4.24,5.508-11.24,7.224-15.639,3.838c-0.363-0.281-0.785-0.504-1.161-0.77c-0.173-0.119-0.331-0.241-0.472-0.388
			c0.447,0.306,0.517,0.296,0.811,0.522c4.396,3.386,11.413,1.682,15.652-3.824c4.002-5.198,5.194-10.894,1.619-14.365
			c0.009,0.006,0.022,0.004,0.028-0.004C221.306,109.696,221.439,109.786,221.58,109.882z"/>
		<path fill="#9B7C52" d="M221.179,109.599c-0.006,0.008-0.02,0.01-0.028,0.004c-0.023-0.019-0.049-0.051-0.072-0.069
			C221.109,109.558,221.142,109.582,221.179,109.599z"/>
		<path fill="#C48266" d="M222.061,110.24c6.189,4.765,10.679,8.474,6.298,14.162c-4.374,5.682-15.994,11.185-22.19,6.415
			c-1.411-1.086-2.258-2.117-3.5-3.781l0.023-0.031c0.135,0.104,0.314,0.115,0.402,0.184l0.023,0.018
			c0.158,0.122,0.274,0.3,0.447,0.42c0.376,0.266,0.785,0.504,1.15,0.785c4.396,3.385,11.391,1.678,15.631-3.83
			c4.026-5.229,5.202-10.969,1.535-14.436c-0.09-0.096-0.194-0.172-0.301-0.266C221.745,109.995,221.902,110.118,222.061,110.24z"/>
		
			<ellipse transform="matrix(0.61 -0.7924 0.7924 0.61 -26.0354 228.1617)" fill="#E7B28D" cx="218.789" cy="140.532" rx="11.5" ry="8.499"/>
		<path fill="#754C24" d="M162.065,153.021c0.034-0.021-0.889-0.671-0.88-0.936c0.26-7.639,4.582-11.095,7.465-14.405
			c5.688-6.531,13.384-6.11,24.494,1.725c0.23,0.163-0.8,0.922-0.8,0.922c-5.698-4.136-13.888-6.584-21.977-0.843
			C165.064,143.249,162.065,153.021,162.065,153.021z"/>
		<path fill="#754C24" d="M169.066,133.79c7.363-9.376,12.645-13.705,33.52,6.496c0.411,0.398,0.756,0.842,0.756,0.842l-0.043,0.037
			c-9.736-10.538-24.348-13.197-33.063-5.966C162.152,141.907,162.508,142.14,169.066,133.79z"/>
		<path fill="#754C24" d="M193.594,108.656c-6.044,6.017-6.468,10.824,17.991,26.331c0.484,0.305,2.938-2.183,2.938-2.183
			l-4.407-0.075c-13.996-7.441-18.485-17.313-12.977-25.27C201.32,101.421,198.976,103.298,193.594,108.656z"/>
		<path fill="#E7B28D" d="M172.915,193.559c8.194,3.226,9.773,9.868,7.246,13.151c-2.526,3.282-10.132,7.846-21.319,7.984
			c-5.813,0.072-29.98-2.047-23.216-22.711C154.052,179.002,165.382,187.759,172.915,193.559z"/>
		<path opacity="0.3" d="M165.146,195.975c5.028,1.979,8.67,7.322,8.67,7.322s-10.441,5.563-17.307,5.649
			c-3.566,0.043-19.249-5.801-13.467-12.936C148.825,188.876,160.522,192.415,165.146,195.975z"/>
		
			<ellipse transform="matrix(0.61 -0.7924 0.7924 0.61 -10.1089 212.8288)" fill="#0071B1" cx="211.171" cy="116.685" rx="7.375" ry="7.172"/>
		<circle cx="210.794" cy="116.789" r="2.688"/>
		<path fill="#C48266" d="M218.346,107.379c0.07,0.055,2.318,2.102,2.494,2.3c0,0-6.471-5.327-15.295,1.272
			c-5.759,4.307-3.286,16.78-3.322,16.827c-6.124-5.356-9.863-14.105-5.69-19.525C200.912,102.565,211.451,102.071,218.346,107.379z
			"/>
		<path fill="#603813" d="M234.463,100.542l-34.195-4.303l-15.958,11.42c0,0-20.781-4.78-36.051,6.446
			c-1.482,2.665-2.569,4.681-2.569,4.681l7.848,1.168l-1.953,4.176l-10.324,9.721c0,0-3.826,32.074,20.813,52.623
			c-17.91-3.063-27.85,5.691-27.85,5.691l-23.218-9.987c0,0-4.428-9.403-6.285-9.257c-6.127,3.645,2.311,18.502,2.311,18.502
			l-7.29-6.377c0,0-2.523-4.797-4.069-5.992c-0.778,3.34,1.184,14.315,1.184,14.315s-16.716-12.712-8.536-30.823
			c-11.646,13.393-14.065,6.164-14.065,6.164s18.938-15.865,17.013-21.766c-1.927-5.898-20.06-6.242-20.06-6.242
			s9.609-7.641,17.191-6.22c-5.843-13.438-6.832-30.185-6.832-30.185s15.442-14.594,16.42-6.447
			c2.992-12.209,13.95-30.54,13.95-30.54s-1.466,5.183-0.979,14.8c4.182-17.594,13.404-32.578,13.404-32.578
			s0.007,7.367,0.203,15.635c4.962-9.101,30.271-37.185,30.271-37.185s-4.931,7.771-16.478,26.857
			c15.218-16.713,36.572-28.521,47.148-32.271c1.445-0.513-6.854-11.588-6.854-11.588s12.545,12.392,12.545,12.393
			c0,0-8.71,3.391-26.162,17.719c11.775-5.769,20.197-7.596,33.072-9.791c5.251-0.895-15.622-22.84-12.433-20.698
			c3.495,2.347,26.937,20.739,26.937,20.739s-19.677,10.502-16.634,10.541c9.999,0.126,31.221-2.09,31.221-2.09l0.396,34.561
			L234.463,100.542z"/>
		<path fill="#603813" d="M265.623,71.229c-0.965,3.464-75.083,33.368-80.103,36.12c-5.019,2.752-29.196-13.002-32.895-10.387
			s-8.973,26.951-8.973,26.951l-36.944,16.568c0,0,15.428-49.543,20.063-55.018c4.634-5.477,37.93-41.892,42.361-44.369
			c4.432-2.479,64.44,26.705,66.76,22.601c2.318-4.104,0.036-37.203-2.046-38.596c-2.083-1.394-18.463,11.845-19.951,13.972
			c-1.488,2.125,10.01,15.604,10.01,15.604s-16.777-6.8-17.821-10.136s26.848-44.754,30.679-44.539S266.588,67.765,265.623,71.229z"
			/>
		<path fill="#9B7C52" d="M249.676,75.671c-2.393,2.685-81.175-2.686-86.894-2.426c-5.717,0.259-24.485,5.555-28.96,6.272
			c4.59-7.282,35.247-19.669,41.605-22.735c5.069-0.272,59.323,13.756,63.215,11.094c3.89-2.664-0.94-52.123-2.197-54.292
			c-1.255-2.167-25.342,18.224-27.613,19.478c-2.273,1.252,3.103,13.141,3.103,13.141s-6.71-8.371-6.177-11.826
			c0.533-3.454,29.39-27.717,32.734-25.835C241.837,10.421,252.066,72.987,249.676,75.671z"/>
		<path fill="#754C24" d="M235.896,83.247c-1.792,3.119-75.756-3.544-81.298-2.117c-5.542,1.426-22.828,10.457-27.059,12.078
			c2.997-8.069,30.463-26.479,36.058-30.785c4.906-1.305,54.224,8.313,57.485,4.908c3.262-3.405-7.466-21.679-9.142-23.543
			c-1.673-1.865-5.032,5.977-7,7.669s5.843,17.595,5.843,17.595s-14.576-10.734-14.763-14.225
			c-0.188-3.49,24.821-29.668,28.48-28.513C228.162,27.469,237.687,80.131,235.896,83.247z"/>
		<path fill="#9B7C52" d="M202.774,118.934c-2.469,2.615-49.012-17.612-54.734-17.515c-1.576,0.026-4.435,1.732-7.885,4.396
			c-0.706,0.545-4.421,12.895-6.553,18.037c-0.513,1.238,1.314-12.055,0.354-10.768c-3.643,4.885-7.737,11.141-9.531,15.586
			c-1.303,3.225,2.084-10.563-0.331-8.037c-4.635,4.846-8.702,9.613-10.913,12.947c2.063-11.559,11.362-39.012,17.804-41.897
			c5.076-0.13,23.557-21.113,57.142-2.312c4.114,2.305,11.971-15.656,10.774-17.859c-1.193-2.203-8.512,3.143-10.317,5.032
			c-1.793,1.876-0.637,8.691-0.637,8.691s-7.729-3.253-7.098-6.692c0.63-3.438,31.042-23.078,34.332-21.104
			C218.472,59.414,205.24,116.318,202.774,118.934z"/>
		<path fill="#754C24" d="M136.111,92.182c-3.572,1.088-19.434,32.208-19.434,32.208l-1.16,4.785c0,0,21.779-29.927,24.546-31.268
			c2.769-1.342,55.94,19.615,59.542,16.919s12.531-47.354,11.329-49.752c-1.203-2.399-10.526,2.624-10.526,2.624
			s6.688,0.311,7.308,2.785s-15.124,28.636-18.101,30.341S139.684,91.094,136.111,92.182z"/>
		<path fill="#754C24" d="M117.719,97.214l16.516-17.783c0,0,21.776-29.42,24.487-33.01c8.599-11.379,32.942-24.393,30.339-23.744
			c-3.854,0.961-7.947,4.293-7.947,4.293s-18.355,10.313-24.192,15.85C152.295,47.208,117.719,97.214,117.719,97.214z"/>
		<path fill="#9B7C52" d="M107.288,129.618l11.699-20.805c0,0,13.307-35.438,15.242-39.497
			c6.138-12.874,27.272-30.589,24.851-29.431c-3.581,1.715-6.975,5.762-6.975,5.762s-15.73,13.926-20.337,20.521
			C128.117,71.397,107.288,129.618,107.288,129.618z"/>
		<path fill="#754C24" d="M145.883,60.634l-2.333,6.039l31.722-23.168l29.107-11.033c0,0-26.065,4.204-31.615,7.986
			C168.366,43.454,145.883,60.634,145.883,60.634z"/>
		<path fill="#754C24" d="M145.885,39.867L128.877,67.99l-17.697,50.475l-1.104-3.942l-6.558,22.451l-1.896-8.046
			c0,0,11.977-42.423,13.704-47.452c2.136-6.232,6.165-22.843,6.324-23.491l-1.561,23.435c2.371-6.883,4.372-12.662,4.955-14.371
			C127.236,60.695,145.885,39.867,145.885,39.867z"/>
		<polygon fill="#9B7C52" points="100.274,137.995 109.711,79.481 98.202,117.104 84.986,105.606 		"/>
		<polygon fill="#9B7C52" points="103.363,141.272 98.437,140.791 88.232,123.78 92.73,140.231 79.242,138.91 95.435,145.473 
			86.202,161.923 		"/>
		<polygon fill="#754C24" points="97.082,150.467 90.199,183.091 96.58,170.148 99.618,179.728 102.296,168.652 111.918,178.567 		
			"/>
		<polygon fill="#9B7C52" points="116.281,140.067 110.844,140.3 112.357,152.403 105.74,143.103 101.166,149.044 116.717,176.793 
			111.967,156.804 123.51,173.399 117.225,154.466 132.601,173.037 		"/>
		<polygon fill="#754C24" points="132.745,135.075 127.309,135.308 128.822,147.411 117.997,141.39 136.855,171.264 
			130.494,151.204 145.872,169.774 		"/>
		<path fill="#754C24" d="M208.15,197.159c0,0,10.148,2.883,8.996,8.809c-0.995,5.124-9.986,5.595-9.986,5.595l4.798,2.169
			c0,0,10.34,1.408,10.521-6c0.15-6.08-1.758-12.294-1.758-12.294L208.15,197.159z"/>
		<path d="M192.823,139.053c0,0-14.66,1.728-19.513,7.515c-6.075,7.244-2.516,19.839-2.516,19.839s-2.067,2.721-1.565,1.688
			c0.503-1.032-1.056-2.857-1.056-2.857s-3.354-11.202,4.19-19.396c7.852-8.527,19.4-7.381,19.4-7.381L192.823,139.053z"/>
		<path fill="#9B7C52" d="M230.848,146.189c-3.421,4.465-14.715,6.183-12.093,5.44c1.479-0.419,8.993-6.723,9.035-11.738
			C227.808,137.708,234.451,141.486,230.848,146.189z"/>
		<path fill="#9B7C52" d="M225.194,132.212c3.719,2.864,3.921,12.644-2.897,16.801c-5.422,3.307,4.354-10.523,0.635-13.387
			C219.213,132.762,221.475,129.349,225.194,132.212z"/>
		<path fill="#6D1F25" d="M233.57,156.152c0,0,2.461,3.224,0.442,5.013c-0.5,0.442-0.187,0.664-0.978,1.692
			c-0.301,0.392-1.419,1.324-1.685,1.765c-1.641,2.727-5.967,2.294-5.967,2.294l-0.65,0.32c0,0,0.894-3.907,2.873-6.843
			c0.142-0.211,0.64-0.24,0.793-0.439c0.165-0.214-0.014-0.595,0.16-0.79c2.249-2.526,5.15-3.588,5.15-3.588L233.57,156.152z"/>
	</g>
	<g>
		<path fill="#B692D2" stroke="#000000" stroke-width="5" stroke-miterlimit="10" d="M218.676,220.764
			c-0.41,6.614-6.105,11.644-12.718,11.235L14.324,220.13c-6.615-0.408-11.645-6.103-11.235-12.719l1.235-19.961
			c0.41-6.615,6.105-11.645,12.719-11.235l191.635,11.867c6.614,0.41,11.644,6.104,11.233,12.72L218.676,220.764z"/>
		<path fill="#333333" d="M206.662,212.505c-0.409,6.614-6.104,11.645-12.718,11.235l-2.994-0.187
			c-6.614-0.408-11.646-6.104-11.235-12.719l0.31-4.99c0.411-6.613,6.104-11.645,12.72-11.235l2.992,0.186
			c6.615,0.41,11.646,6.104,11.235,12.72L206.662,212.505z"/>
		<g>
			<path fill="#808080" d="M197.194,218.622c0,0-3.254-6.41-3.73-7.437l-4.413,6.932l-2.544-0.158l5.781-8.353l-4.517-8.786
				l2.572,0.159l3.489,7.164c0.546-0.988,4.322-6.68,4.322-6.68l2.544,0.156l-5.734,8.023l4.802,9.138L197.194,218.622z"/>
		</g>
		<circle fill="#333333" cx="23.603" cy="197.059" r="10.333"/>
		<path fill="#333333" d="M129.06,203.691c-0.206,3.307-3.053,5.823-6.359,5.617l-74.857-4.636
			c-3.308-0.205-5.822-3.051-5.616-6.359l0,0c0.203-3.307,3.053-5.822,6.36-5.617l74.854,4.636
			C126.748,197.536,129.265,200.384,129.06,203.691L129.06,203.691z"/>
	</g>
	<g>
		<path fill="#D7D486" stroke="#000000" stroke-width="5" stroke-miterlimit="10" d="M422.729,182.987
			c1.042,6.544-3.419,12.695-9.961,13.738l-189.609,30.213c-6.544,1.044-12.695-3.416-13.738-9.961l-3.148-19.752
			c-1.042-6.544,3.419-12.695,9.963-13.738l189.608-30.215c6.545-1.042,12.695,3.418,13.737,9.963L422.729,182.987z"/>
		<path fill="#333333" d="M409.203,177.546c1.043,6.545-3.417,12.697-9.961,13.74l-2.963,0.471
			c-6.545,1.044-12.696-3.416-13.739-9.961l-0.787-4.938c-1.041-6.545,3.418-12.697,9.964-13.74l2.961-0.472
			c6.544-1.042,12.696,3.417,13.738,9.963L409.203,177.546z"/>
		<g>
			<path fill="#808080" d="M401.297,185.581c0,0-4.573-5.545-5.262-6.443l-2.797,7.728l-2.516,0.401l3.819-9.412l-6.323-7.591
				l2.544-0.405l4.969,6.23c0.316-1.082,2.762-7.462,2.762-7.462l2.517-0.401l-3.847,9.08l6.679,7.87L401.297,185.581z"/>
		</g>
		<circle fill="#333333" cx="227.182" cy="202.4" r="10.333"/>
		<path fill="#333333" d="M331.547,185.871c0.52,3.272-1.71,6.349-4.981,6.87l-74.066,11.803c-3.272,0.521-6.348-1.709-6.868-4.982
			l0,0c-0.522-3.271,1.708-6.348,4.981-6.869l74.063-11.802C327.948,180.368,331.025,182.599,331.547,185.871L331.547,185.871z"/>
	</g>
	<g>
		<path fill="#D79398" stroke="#000000" stroke-width="5" stroke-miterlimit="10" d="M331.796,238.109
			c0.244,6.622-4.927,12.189-11.547,12.435l-191.87,7.094c-6.623,0.246-12.19-4.924-12.435-11.548l-0.74-19.986
			c-0.245-6.622,4.927-12.189,11.548-12.435l191.87-7.096c6.622-0.244,12.19,4.926,12.434,11.549L331.796,238.109z"/>
		<path fill="#333333" d="M319.027,231.075c0.244,6.623-4.926,12.191-11.549,12.436l-2.998,0.111
			c-6.623,0.245-12.19-4.926-12.435-11.549l-0.185-4.996c-0.243-6.623,4.926-12.191,11.55-12.436l2.996-0.111
			c6.622-0.244,12.191,4.926,12.435,11.549L319.027,231.075z"/>
		<g>
			<path fill="#808080" d="M310.208,238.097c0,0-3.87-6.057-4.445-7.031l-3.709,7.333l-2.547,0.094l4.929-8.882l-5.36-8.299
				l2.575-0.095l4.179,6.785c0.445-1.037,3.643-7.073,3.643-7.073l2.548-0.096l-4.916,8.551l5.68,8.618L310.208,238.097z"/>
		</g>
		<circle fill="#333333" cx="135.336" cy="233.764" r="10.333"/>
		<path fill="#333333" d="M240.934,229.961c0.121,3.312-2.464,6.096-5.775,6.218l-74.949,2.771
			c-3.312,0.122-6.095-2.463-6.217-5.775l0,0c-0.123-3.311,2.463-6.095,5.776-6.217l74.946-2.771
			C238.025,224.063,240.811,226.649,240.934,229.961L240.934,229.961z"/>
	</g>
	<g>
		<path fill="#90D0CA" stroke="#000000" stroke-width="5" stroke-miterlimit="10" d="M421.758,228.993
			c1.585,6.434-2.348,12.936-8.78,14.52l-186.432,45.91c-6.435,1.585-12.937-2.347-14.521-8.783l-4.782-19.42
			c-1.585-6.434,2.348-12.936,8.781-14.52l186.432-45.911c6.435-1.584,12.937,2.347,14.521,8.783L421.758,228.993z"/>
		<path fill="#333333" d="M407.827,224.698c1.585,6.436-2.347,12.938-8.782,14.521l-2.913,0.717
			c-6.435,1.586-12.937-2.347-14.521-8.783l-1.196-4.854c-1.582-6.436,2.349-12.938,8.784-14.522l2.911-0.717
			c6.436-1.584,12.938,2.348,14.521,8.783L407.827,224.698z"/>
		<g>
			<path fill="#808080" d="M400.618,233.364c0,0-5.02-5.145-5.78-5.982l-2.143,7.934l-2.475,0.609l3.021-9.697l-6.934-7.037
				l2.502-0.617l5.47,5.795c0.226-1.105,2.13-7.666,2.13-7.666l2.476-0.609l-3.077,9.369l7.313,7.286L400.618,233.364z"/>
		</g>
		<circle fill="#333333" cx="228.51" cy="264.634" r="10.333"/>
		<path fill="#333333" d="M331.135,239.466c0.791,3.217-1.175,6.469-4.392,7.26l-72.825,17.935c-3.218,0.792-6.469-1.173-7.26-4.392
			l0,0c-0.793-3.217,1.174-6.469,4.393-7.261l72.822-17.933C327.09,234.281,330.342,236.247,331.135,239.466L331.135,239.466z"/>
	</g>
	<g>
		<path fill="#8AC0DA" stroke="#000000" stroke-width="5" stroke-miterlimit="10" d="M251.025,277.174
			c-0.931,6.562-7.005,11.126-13.564,10.196L47.362,260.407c-6.562-0.93-11.127-7.003-10.196-13.564l2.809-19.803
			c0.931-6.562,7.005-11.126,13.565-10.195l190.099,26.96c6.562,0.931,11.127,7.005,10.194,13.566L251.025,277.174z"/>
		<path fill="#333333" d="M239.702,267.991c-0.931,6.563-7.004,11.128-13.565,10.197l-2.971-0.422
			c-6.562-0.93-11.127-7.004-10.195-13.566l0.702-4.95c0.933-6.561,7.005-11.127,13.567-10.196l2.969,0.422
			c6.562,0.931,11.127,7.004,10.195,13.566L239.702,267.991z"/>
		<g>
			<path fill="#808080" d="M229.78,273.343c0,0-2.737-6.646-3.131-7.707l-4.948,6.561l-2.522-0.357l6.422-7.87l-3.808-9.116
				l2.551,0.362l2.913,7.417c0.622-0.941,4.836-6.318,4.836-6.318l2.524,0.358l-6.35,7.545l4.064,9.487L229.78,273.343z"/>
		</g>
		<circle fill="#333333" cx="58.434" cy="238.142" r="10.333"/>
		<path fill="#333333" d="M163.038,253.079c-0.467,3.28-3.504,5.563-6.784,5.098l-74.257-10.531
			c-3.281-0.465-5.563-3.502-5.098-6.783l0,0c0.465-3.28,3.503-5.563,6.785-5.098l74.254,10.531
			C161.219,246.761,163.503,249.798,163.038,253.079L163.038,253.079z"/>
	</g>
	<g>
		<path fill="#C489C6" stroke="#000000" stroke-width="5" stroke-miterlimit="10" d="M231.585,297.144
			c0.059,6.626-5.267,12.046-11.891,12.105L27.7,310.962c-6.626,0.061-12.047-5.264-12.106-11.891l-0.179-20
			c-0.059-6.627,5.267-12.047,11.892-12.106l191.994-1.715c6.627-0.059,12.047,5.266,12.104,11.894L231.585,297.144z"/>
		<path fill="#333333" d="M219.018,289.754c0.06,6.628-5.265,12.048-11.892,12.107l-3,0.025c-6.627,0.06-12.048-5.265-12.106-11.892
			l-0.044-5c-0.058-6.627,5.266-12.048,11.894-12.106l2.998-0.027c6.627-0.059,12.048,5.267,12.106,11.894L219.018,289.754z"/>
		<g>
			<path fill="#808080" d="M210.006,296.526c0,0-3.699-6.164-4.246-7.154l-3.914,7.227l-2.547,0.021l5.175-8.739l-5.126-8.446
				l2.577-0.021l3.987,6.898c0.475-1.023,3.839-6.969,3.839-6.969l2.55-0.023l-5.152,8.408l5.435,8.775L210.006,296.526z"/>
		</g>
		<circle fill="#333333" cx="35.325" cy="287.293" r="10.333"/>
		<path fill="#333333" d="M140.986,286.451c0.028,3.313-2.634,6.023-5.947,6.054l-74.996,0.67c-3.314,0.028-6.024-2.633-6.054-5.947
			l0,0c-0.029-3.313,2.634-6.024,5.948-6.053l74.994-0.67C138.244,280.474,140.957,283.138,140.986,286.451L140.986,286.451z"/>
	</g>
	<g>
		<path fill="#E4AF9E" stroke="#000000" stroke-width="5" stroke-miterlimit="10" d="M422.955,284.358
			c0.534,6.605-4.389,12.395-10.991,12.929l-191.375,15.495c-6.604,0.535-12.394-4.385-12.93-10.991l-1.614-19.936
			c-0.534-6.605,4.389-12.394,10.992-12.929l191.375-15.496c6.605-0.535,12.395,4.387,12.928,10.992L422.955,284.358z"/>
		<path fill="#333333" d="M409.89,277.892c0.535,6.605-4.386,12.395-10.992,12.93l-2.99,0.24
			c-6.605,0.536-12.395-4.385-12.929-10.992l-0.403-4.982c-0.533-6.605,4.388-12.396,10.994-12.93l2.988-0.242
			c6.605-0.535,12.395,4.387,12.929,10.993L409.89,277.892z"/>
		<g>
			<path fill="#808080" d="M401.387,285.292c0,0-4.132-5.881-4.748-6.83l-3.386,7.488l-2.538,0.205l4.533-9.088l-5.719-8.057
				l2.568-0.207l4.473,6.595c0.4-1.056,3.329-7.226,3.329-7.226l2.541-0.207l-4.535,8.757l6.051,8.362L401.387,285.292z"/>
		</g>
		<path fill="#333333" d="M236.793,287.792c0.461,5.689-3.777,10.674-9.468,11.134c-5.687,0.46-10.672-3.776-11.13-9.465
			c-0.462-5.688,3.774-10.673,9.463-11.134C231.348,277.866,236.333,282.104,236.793,287.792z"/>
		<path fill="#333333" d="M331.822,280.2c0.266,3.302-2.194,6.197-5.497,6.465l-74.755,6.053c-3.304,0.267-6.197-2.193-6.465-5.497
			l0,0c-0.267-3.302,2.194-6.198,5.498-6.464l74.753-6.053C328.658,274.435,331.555,276.896,331.822,280.2L331.822,280.2z"/>
	</g>
</g>
</svg>
